<svg width="116" height="116" viewBox="0 0 116 116" fill="none" xmlns="http://www.w3.org/2000/svg">
<g filter="url(#filter0_d_707_5283)">
<circle cx="58" cy="53" r="43" fill="white"/>
</g>
<path d="M64.9842 41.3432C64.9631 40.3414 64.4572 39.8042 63.4875 39.6953C63.0167 39.6444 62.5389 39.5791 62.0681 39.5283C61.8643 39.5065 61.7308 39.4339 61.6746 39.2016C61.4779 38.3813 61.1406 37.6118 60.7541 36.8713C60.6066 36.5882 60.5995 36.3849 60.8244 36.1309C61.1406 35.7679 61.4287 35.3686 61.7098 34.9766C62.2508 34.2144 62.2157 33.5247 61.5833 32.8423C60.8666 32.0728 60.1287 31.3106 59.3769 30.5701C58.7375 29.9458 58.0629 29.9168 57.3532 30.454C56.9527 30.7516 56.5662 31.071 56.1938 31.4049C56.0041 31.5719 55.8635 31.5719 55.6527 31.4485C54.8798 30.9912 54.0577 30.6282 53.1864 30.3814C52.9615 30.316 52.8491 30.1926 52.828 29.9531C52.7859 29.4812 52.7296 29.0093 52.6805 28.5375C52.5821 27.6228 52.1253 27.0565 51.3384 27.0275C50.1508 26.9839 48.9563 26.9985 47.7688 27.0275C47.1434 27.042 46.7429 27.4413 46.5602 28.0583C46.4126 28.5665 46.3705 29.0964 46.3494 29.6191C46.3283 30.0982 46.1737 30.3741 45.6819 30.4757C45.2884 30.5556 44.9089 30.7443 44.5365 30.9113C44.0447 31.1291 43.5317 31.6155 43.082 31.5501C42.5972 31.4775 42.1896 30.904 41.7399 30.5556C41.4237 30.3088 41.0934 30.091 40.6789 30.0982C40.2292 30.0982 39.8638 30.3088 39.5546 30.6282C38.8519 31.3469 38.1352 32.0801 37.4325 32.8205C36.765 33.5247 36.7299 34.2507 37.3061 35.0347C37.6223 35.4703 37.9525 35.8986 38.2898 36.3123C38.4374 36.4938 38.4795 36.639 38.3601 36.8641C37.9455 37.6336 37.6293 38.4466 37.4255 39.296C37.3482 39.6081 37.1866 39.6662 36.9266 39.688C36.3856 39.7388 35.8445 39.7896 35.3035 39.884C34.4673 40.0292 34.0246 40.5664 34.0105 41.4375C33.9965 42.5119 33.9965 43.5791 34.0105 44.6535C34.0246 45.5754 34.4884 46.1126 35.3807 46.2433C35.9359 46.3304 36.491 46.3957 37.0531 46.4393C37.3201 46.4611 37.4888 46.5555 37.566 46.8386C37.7698 47.5863 38.072 48.2905 38.4233 48.9656C38.5498 49.2052 38.5357 49.3721 38.3671 49.5754C37.9947 50.0327 37.6293 50.4973 37.285 50.9765C36.7439 51.7242 36.772 52.4429 37.3904 53.1108C38.1071 53.8875 38.8449 54.6425 39.5897 55.383C40.2432 56.0291 40.9178 56.0581 41.6486 55.4991C42.0983 55.1507 42.5409 54.795 42.9696 54.4175C43.1804 54.236 43.349 54.1852 43.602 54.3376C44.2836 54.7369 45.0003 55.049 45.7521 55.2741C46.0332 55.3612 46.1246 55.5136 46.1456 55.7968C46.1948 56.4066 46.2581 57.0236 46.3494 57.6261C46.4759 58.4828 47.0029 58.9619 47.8391 58.9837C48.8931 59.0054 49.9471 59.0054 51.0011 58.9837C51.8443 58.9691 52.3572 58.5045 52.4978 57.6407C52.5891 57.0672 52.6453 56.4937 52.6945 55.9129C52.7226 55.6225 52.7999 55.4556 53.1161 55.3684C53.9382 55.1434 54.7252 54.8167 55.463 54.3812C55.6949 54.2432 55.8425 54.2795 56.0392 54.4465C56.4538 54.8095 56.8824 55.1579 57.3181 55.4919C58.0418 56.0508 58.7375 56.0291 59.3839 55.3902C60.1428 54.6352 60.8947 53.8657 61.6184 53.0817C62.2086 52.4501 62.2368 51.7532 61.7449 51.0345C61.4919 50.6643 61.239 50.2796 60.9228 49.9674C60.5152 49.5609 60.5152 49.1979 60.8244 48.7406C61.0001 48.4865 61.0703 48.1671 61.2179 47.8839C61.4779 47.383 61.4006 46.6281 61.8714 46.3595C62.3281 46.0981 62.9605 46.178 63.5226 46.1126C64.4642 46.0037 64.9631 45.4738 64.9842 44.4938C65.0053 43.4484 65.0053 42.3958 64.9842 41.3432ZM49.5606 48.5736C46.5321 48.5663 44.0447 46.011 44.0306 42.8822C44.0165 39.7533 46.5391 37.1472 49.5747 37.1544C52.6032 37.1617 55.0836 39.717 55.1047 42.8459C55.1328 45.9674 52.6032 48.5736 49.5606 48.5736Z" fill="#0B2158"/>
<path d="M85.9716 55.2041C85.9575 54.4233 85.5463 54.0045 84.7594 53.9193C84.3766 53.8767 83.9938 53.827 83.618 53.7915C83.4479 53.7773 83.3486 53.7205 83.299 53.536C83.1431 52.89 82.8666 52.2937 82.5617 51.7117C82.4412 51.4916 82.4412 51.3284 82.6185 51.1367C82.8737 50.8528 83.1076 50.5404 83.3345 50.2352C83.7669 49.6389 83.7456 49.0994 83.2352 48.5671C82.6539 47.9637 82.0655 47.3674 81.4558 46.7924C80.9454 46.3026 80.3995 46.2813 79.8253 46.7002C79.5063 46.9344 79.1944 47.1828 78.8896 47.4455C78.7407 47.5733 78.6202 47.5733 78.4571 47.481C77.8262 47.119 77.1598 46.835 76.458 46.6434C76.2736 46.5937 76.1886 46.4943 76.1744 46.3097C76.146 45.9406 76.0964 45.5715 76.0539 45.2024C75.9688 44.4854 75.6073 44.0453 74.9692 44.024C74.0122 43.9885 73.0481 43.9956 72.091 44.024C71.5877 44.0382 71.2616 44.3435 71.1198 44.8262C70.9993 45.2237 70.9709 45.6354 70.9497 46.0471C70.9355 46.4233 70.8079 46.6363 70.4109 46.7144C70.0919 46.7782 69.787 46.9202 69.4893 47.0551C69.0923 47.2254 68.674 47.6017 68.3196 47.552C67.9297 47.4952 67.5965 47.048 67.242 46.7711C66.9868 46.5795 66.7245 46.4091 66.3842 46.4162C66.0227 46.4162 65.7249 46.5795 65.4768 46.8279C64.9026 47.4029 64.3284 47.9708 63.7612 48.5458C63.2225 49.0994 63.1941 49.6602 63.662 50.2707C63.9172 50.6114 64.1795 50.945 64.456 51.2716C64.5694 51.4135 64.6119 51.5271 64.5127 51.7046C64.1795 52.3008 63.9243 52.9397 63.7612 53.607C63.7045 53.8483 63.5698 53.898 63.3572 53.9122C62.9176 53.9477 62.4852 53.9903 62.0527 54.0684C61.3793 54.1819 61.0177 54.6008 61.0106 55.2822C60.9965 56.1198 60.9965 56.9574 61.0106 57.7951C61.0177 58.512 61.3934 58.9308 62.1165 59.0373C62.5632 59.1012 63.0169 59.158 63.4635 59.1935C63.6833 59.2148 63.8109 59.2857 63.8747 59.5058C64.0377 60.0879 64.2787 60.6416 64.5694 61.1668C64.6687 61.3514 64.6545 61.4863 64.5198 61.6424C64.222 61.9974 63.9243 62.3665 63.6478 62.7356C63.2083 63.3248 63.2295 63.8785 63.7329 64.4037C64.3142 65.0071 64.9026 65.6034 65.5123 66.1784C66.0369 66.6824 66.5827 66.7036 67.1782 66.2706C67.5398 66.0009 67.8942 65.717 68.2416 65.4259C68.4117 65.284 68.5464 65.2485 68.752 65.362C69.2979 65.6744 69.8792 65.9157 70.4889 66.0932C70.7157 66.1571 70.7866 66.2848 70.8079 66.4978C70.8504 66.9734 70.9 67.4561 70.9709 67.9317C71.0702 68.5989 71.4955 68.9752 72.1761 68.9894C73.0268 69.0035 73.8775 69.0035 74.7282 68.9894C75.4088 68.9752 75.8199 68.6202 75.9334 67.9388C76.0043 67.4916 76.0539 67.0373 76.0893 66.5901C76.1106 66.3629 76.1744 66.228 76.4296 66.1642C77.0889 65.9867 77.7269 65.7312 78.3224 65.3904C78.5067 65.284 78.6343 65.3123 78.7903 65.4472C79.1235 65.7312 79.4709 66.0009 79.8182 66.2635C80.3995 66.7036 80.9667 66.6824 81.4842 66.1855C82.1009 65.5963 82.7035 64.9929 83.2919 64.3753C83.7669 63.8785 83.7953 63.3319 83.3912 62.7711C83.1856 62.4801 82.98 62.1819 82.7248 61.9335C82.3987 61.614 82.3916 61.3301 82.6468 60.9752C82.7886 60.7764 82.8453 60.528 82.9658 60.3079C83.1714 59.9175 83.1147 59.3283 83.4904 59.1154C83.8591 58.9166 84.3695 58.9734 84.8232 58.9237C85.5817 58.8385 85.9858 58.4268 86 57.6602C85.9858 56.851 85.9858 56.0275 85.9716 55.2041ZM73.5301 60.8545C71.0844 60.8545 69.0852 58.8527 69.071 56.4038C69.0569 53.9548 71.0914 51.9246 73.5443 51.9246C75.983 51.9246 77.9892 53.9264 78.0034 56.3754C78.0176 58.8243 75.983 60.8616 73.5301 60.8545Z" fill="#0B2158"/>
<path d="M63.9903 67.9575C63.9763 67.3345 63.6477 66.9985 63.0254 66.9285C62.7178 66.8935 62.4171 66.8585 62.1095 66.8235C61.9767 66.8095 61.8928 66.7675 61.8578 66.6205C61.7319 66.1095 61.5152 65.6265 61.2635 65.1645C61.1656 64.9895 61.1656 64.8565 61.3055 64.7025C61.5082 64.4785 61.697 64.2265 61.8788 63.9815C62.2284 63.5055 62.2074 63.0715 61.8019 62.6515C61.3404 62.1685 60.865 61.6925 60.3826 61.2305C59.97 60.8385 59.5366 60.8245 59.0751 61.1605C58.8164 61.3495 58.5647 61.5455 58.327 61.7555C58.2081 61.8605 58.1103 61.8605 57.9774 61.7835C57.474 61.4965 56.9427 61.2655 56.3763 61.1115C56.2295 61.0695 56.1596 60.9925 56.1456 60.8455C56.1176 60.5515 56.0827 60.2575 56.0477 59.9635C55.9848 59.3895 55.6911 59.0395 55.1808 59.0185C54.4117 58.9905 53.6426 58.9975 52.8805 59.0185C52.475 59.0325 52.2163 59.2775 52.1044 59.6625C52.0065 59.9775 51.9856 60.3065 51.9716 60.6355C51.9576 60.9365 51.8597 61.1045 51.5451 61.1675C51.2934 61.2165 51.0487 61.3355 50.811 61.4405C50.4963 61.5805 50.1607 61.8815 49.8741 61.8395C49.5595 61.7975 49.2938 61.4335 49.0071 61.2165C48.8044 61.0625 48.5946 60.9295 48.3219 60.9295C48.0283 60.9295 47.7976 61.0625 47.5948 61.2585C47.1333 61.7135 46.6719 62.1685 46.2244 62.6375C45.7979 63.0785 45.77 63.5335 46.1405 64.0165C46.3433 64.2895 46.56 64.5555 46.7768 64.8145C46.8677 64.9265 46.9026 65.0175 46.8187 65.1575C46.553 65.6405 46.3503 66.1445 46.2174 66.6835C46.1685 66.8795 46.0636 66.9145 45.8958 66.9285C45.5462 66.9565 45.1967 66.9915 44.8471 67.0545C44.3087 67.1455 44.0221 67.4815 44.0081 68.0275C43.9941 68.6995 44.0011 69.3715 44.0081 70.0365C44.0151 70.6105 44.3157 70.9465 44.896 71.0305C45.2526 71.0865 45.6162 71.1285 45.9727 71.1565C46.1475 71.1705 46.2524 71.2265 46.3013 71.4015C46.4342 71.8635 46.623 72.3115 46.8537 72.7315C46.9376 72.8785 46.9236 72.9835 46.8187 73.1095C46.581 73.3965 46.3433 73.6835 46.1196 73.9845C45.77 74.4535 45.784 74.9015 46.1895 75.3145C46.6509 75.7975 47.1264 76.2735 47.6088 76.7355C48.0283 77.1415 48.4688 77.1555 48.9372 76.8055C49.2308 76.5885 49.5105 76.3645 49.7902 76.1265C49.923 76.0145 50.0349 75.9795 50.1957 76.0775C50.6362 76.3295 51.0976 76.5255 51.58 76.6655C51.7618 76.7215 51.8178 76.8195 51.8317 76.9945C51.8667 77.3795 51.9087 77.7575 51.9646 78.1425C52.0485 78.6745 52.3841 78.9825 52.9294 78.9895C53.6076 79.0035 54.2928 79.0035 54.971 78.9895C55.5164 78.9825 55.845 78.6885 55.9359 78.1495C55.9918 77.7925 56.0267 77.4285 56.0617 77.0715C56.0757 76.8895 56.1316 76.7845 56.3344 76.7285C56.8657 76.5885 57.3761 76.3855 57.8516 76.1125C57.9984 76.0285 58.0963 76.0495 58.2221 76.1545C58.4878 76.3855 58.7675 76.5955 59.0471 76.8125C59.5156 77.1625 59.9631 77.1485 60.3756 76.7495C60.865 76.2805 61.3474 75.7975 61.8158 75.3075C62.1934 74.9085 62.2144 74.4745 61.8997 74.0265C61.7319 73.7955 61.5711 73.5505 61.3684 73.3545C61.1027 73.1025 61.1027 72.8715 61.3055 72.5915C61.4173 72.4305 61.4663 72.2345 61.5572 72.0595C61.725 71.7445 61.676 71.2755 61.9767 71.1075C62.2703 70.9465 62.6828 70.9955 63.0394 70.9535C63.6477 70.8835 63.9693 70.5545 63.9833 69.9385C64.0042 69.2805 64.0042 68.6225 63.9903 67.9575ZM54.0411 72.4795C52.0834 72.4795 50.4824 70.8765 50.4754 68.9235C50.4684 66.9705 52.0904 65.3395 54.0551 65.3395C56.0058 65.3395 57.6069 66.9425 57.6208 68.9025C57.6348 70.8555 56.0058 72.4865 54.0411 72.4795Z" fill="#0B2158"/>
<defs>
<filter id="filter0_d_707_5283" x="0" y="0" width="116" height="116" filterUnits="userSpaceOnUse" color-interpolation-filters="sRGB">
<feFlood flood-opacity="0" result="BackgroundImageFix"/>
<feColorMatrix in="SourceAlpha" type="matrix" values="0 0 0 0 0 0 0 0 0 0 0 0 0 0 0 0 0 0 127 0" result="hardAlpha"/>
<feMorphology radius="3" operator="erode" in="SourceAlpha" result="effect1_dropShadow_707_5283"/>
<feOffset dy="5"/>
<feGaussianBlur stdDeviation="9"/>
<feComposite in2="hardAlpha" operator="out"/>
<feColorMatrix type="matrix" values="0 0 0 0 0 0 0 0 0 0 0 0 0 0 0 0 0 0 0.44 0"/>
<feBlend mode="normal" in2="BackgroundImageFix" result="effect1_dropShadow_707_5283"/>
<feBlend mode="normal" in="SourceGraphic" in2="effect1_dropShadow_707_5283" result="shape"/>
</filter>
</defs>
</svg>
