<svg width="199" height="94" viewBox="0 0 199 94" fill="none" xmlns="http://www.w3.org/2000/svg">
<path d="M1.91016 90.7487C1.08173 90.7487 0.410156 91.4203 0.410156 92.2487C0.410156 93.0772 1.08173 93.7487 1.91016 93.7487V90.7487ZM198.394 9.14844L183.394 0.488183V17.8087L198.394 9.14844ZM1.91016 93.7487H76.1519V90.7487H1.91016V93.7487ZM101.652 68.2487V33.1484H98.6519V68.2487H101.652ZM124.152 10.6484H184.894V7.64844H124.152V10.6484ZM101.652 33.1484C101.652 20.722 111.725 10.6484 124.152 10.6484V7.64844C110.069 7.64844 98.6519 19.0652 98.6519 33.1484H101.652ZM76.1519 93.7487C90.2351 93.7487 101.652 82.332 101.652 68.2487H98.6519C98.6519 80.6751 88.5783 90.7487 76.1519 90.7487V93.7487Z" fill="#89A7F2"/>
</svg>
