<svg width="203" height="66" viewBox="0 0 203 66" fill="none" xmlns="http://www.w3.org/2000/svg">
<path d="M202.5 2C202.5 1.17157 201.828 0.5 201 0.5C200.172 0.5 199.5 1.17157 199.5 2H202.5ZM9.5 66L18.1603 51H0.839746L9.5 66ZM199.5 2V14.7076H202.5V2H199.5ZM177 37.2076H33.5V40.2076H177V37.2076ZM33.5 37.2076C19.4167 37.2076 8 48.6244 8 62.7076H11C11 50.2812 21.0736 40.2076 33.5 40.2076V37.2076ZM199.5 14.7076C199.5 27.134 189.426 37.2076 177 37.2076V40.2076C191.083 40.2076 202.5 28.7909 202.5 14.7076H199.5Z" fill="#89A7F2"/>
</svg>
