<svg width="69" height="18" viewBox="0 0 69 18" fill="none" xmlns="http://www.w3.org/2000/svg">
<path d="M1.82812 2.64844C0.999698 2.64844 0.328125 3.32001 0.328125 4.14844C0.328125 4.97686 0.999698 5.64844 1.82812 5.64844V2.64844ZM68.492 9.05067L53.492 0.390415V17.7109L68.492 9.05067ZM1.82812 5.64844H32.709V2.64844H1.82812V5.64844ZM37.6112 10.5507H54.992V7.55067H37.6112V10.5507ZM33.6601 6.59955C33.6601 8.78169 35.429 10.5507 37.6112 10.5507V7.55067C37.0859 7.55067 36.6601 7.12484 36.6601 6.59955H33.6601ZM32.709 5.64844C33.2342 5.64844 33.6601 6.07427 33.6601 6.59955H36.6601C36.6601 4.41741 34.8911 2.64844 32.709 2.64844V5.64844Z" fill="#89A7F2"/>
</svg>
