<svg width="297" height="121" viewBox="0 0 297 121" fill="none" xmlns="http://www.w3.org/2000/svg">
<path d="M2 117.5C1.17157 117.5 0.5 118.172 0.5 119C0.5 119.828 1.17157 120.5 2 120.5V117.5ZM297 9L282 0.339746V17.6603L297 9ZM2 120.5H125.5V117.5H2V120.5ZM151 95V33H148V95H151ZM173.5 10.5H283.5V7.5H173.5V10.5ZM151 33C151 20.5736 161.074 10.5 173.5 10.5V7.5C159.417 7.5 148 18.9167 148 33H151ZM125.5 120.5C139.583 120.5 151 109.083 151 95H148C148 107.426 137.926 117.5 125.5 117.5V120.5Z" fill="#89A7F2"/>
</svg>
