<svg width="163" height="268" viewBox="0 0 163 268" fill="none" xmlns="http://www.w3.org/2000/svg">
<g filter="url(#filter0_d_344_6410)">
<path d="M150.211 9.39552C150.376 9.30025 150.433 9.08925 150.337 8.92424C150.242 8.75923 150.031 8.70269 149.866 8.79796L150.211 9.39552ZM42.2824 251.382C42.4665 251.431 42.6556 251.322 42.705 251.138L43.5086 248.139C43.5579 247.955 43.4487 247.766 43.2646 247.716C43.0806 247.667 42.8914 247.776 42.8421 247.96L42.1278 250.626L39.4618 249.912C39.2778 249.863 39.0886 249.972 39.0393 250.156C38.9899 250.34 39.0992 250.529 39.2832 250.578L42.2824 251.382ZM42.6705 250.876C41.9082 249.556 41.1622 248.242 40.4323 246.935L39.8299 247.272C40.5614 248.582 41.309 249.898 42.0729 251.221L42.6705 250.876ZM36.2448 239.172C34.8779 236.544 33.5771 233.943 32.3409 231.37L31.7189 231.669C32.9584 234.249 34.2624 236.856 35.6327 239.49L36.2448 239.172ZM28.6444 223.324C27.4549 220.608 26.3385 217.925 25.2931 215.272L24.6512 215.525C25.6998 218.186 26.8195 220.878 28.0124 223.6L28.6444 223.324ZM22.2212 206.988C21.2435 204.172 20.3472 201.393 19.5297 198.649L18.8685 198.846C19.6889 201.6 20.5883 204.389 21.5693 207.214L22.2212 206.988ZM17.2281 190.194C16.5107 187.277 15.8839 184.404 15.3443 181.573L14.6665 181.702C15.2085 184.545 15.8378 187.431 16.5581 190.359L17.2281 190.194ZM13.9554 172.996C13.5591 170.013 13.2614 167.08 13.0578 164.195L12.3695 164.243C12.5741 167.143 12.8733 170.09 13.2714 173.087L13.9554 172.996ZM12.7228 155.423C12.7074 152.462 12.7929 149.556 12.9739 146.704L12.2853 146.66C12.1033 149.529 12.0173 152.45 12.0328 155.426L12.7228 155.423ZM13.8461 137.946C14.2483 135 14.754 132.114 15.3567 129.288L14.6819 129.144C14.0757 131.987 13.5669 134.89 13.1625 137.853L13.8461 137.946ZM17.5055 120.793C18.3364 117.962 19.2659 115.195 20.2863 112.491L19.6407 112.248C18.6143 114.968 17.6793 117.751 16.8434 120.599L17.5055 120.793ZM23.6892 104.402C24.9332 101.726 26.2666 99.1173 27.681 96.5738L27.078 96.2385C25.6557 98.7961 24.3147 101.42 23.0635 104.111L23.6892 104.402ZM32.2127 89.0544C33.8161 86.5893 35.4949 84.1912 37.2399 81.8587L36.6873 81.4453C34.9337 83.7895 33.2462 86.2 31.6343 88.6782L32.2127 89.0544ZM42.7147 74.9969C44.6171 72.7564 46.5783 70.5825 48.5887 68.474L48.0893 67.9978C46.0701 70.1156 44.1 72.2993 42.1887 74.5503L42.7147 74.9969ZM54.8219 62.2822C56.9681 60.2605 59.1554 58.3056 61.3733 56.416L60.9258 55.8907C58.6995 57.7874 56.5037 59.75 54.3488 61.78L54.8219 62.2822ZM68.2003 50.8708C70.5389 49.0585 72.8989 47.3141 75.2689 45.636L74.8701 45.0729C72.4925 46.7565 70.1245 48.5068 67.7777 50.3254L68.2003 50.8708ZM82.5492 40.6998C85.0444 39.0795 87.5376 37.5303 90.0159 36.0504L89.6621 35.458C87.1768 36.9421 84.6761 38.4959 82.1734 40.1211L82.5492 40.6998ZM97.6482 31.6757C100.281 30.2273 102.88 28.8578 105.429 27.5648L105.117 26.9495C102.562 28.2457 99.9556 29.6188 97.3156 31.0712L97.6482 31.6757ZM113.344 23.7092C116.117 22.4125 118.801 21.2128 121.371 20.1065L121.099 19.4727C118.522 20.5816 115.832 21.7843 113.052 23.0842L113.344 23.7092ZM129.46 16.7686C132.494 15.5696 135.279 14.5283 137.755 13.6363L137.522 12.9872C135.039 13.8812 132.248 14.925 129.206 16.1269L129.46 16.7686ZM146.093 10.7764C146.694 10.5798 147.234 10.4049 147.71 10.2511C148.186 10.0974 148.597 9.96449 148.941 9.85231C149.284 9.74028 149.561 9.64798 149.767 9.57549C149.959 9.50803 150.123 9.44631 150.211 9.39552L149.866 8.79796C149.867 8.79739 149.861 8.80097 149.843 8.80905C149.826 8.81659 149.803 8.82609 149.774 8.83768C149.715 8.86087 149.637 8.88972 149.538 8.92462C149.34 8.99432 149.069 9.08456 148.726 9.19644C148.384 9.30818 147.974 9.44058 147.498 9.59455C147.022 9.74843 146.481 9.92361 145.878 10.1206L146.093 10.7764Z" fill="#F5F8FF"/>
</g>
<defs>
<filter id="filter0_d_344_6410" x="0.215623" y="0.874543" width="161.983" height="266.273" filterUnits="userSpaceOnUse" color-interpolation-filters="sRGB">
<feFlood flood-opacity="0" result="BackgroundImageFix"/>
<feColorMatrix in="SourceAlpha" type="matrix" values="0 0 0 0 0 0 0 0 0 0 0 0 0 0 0 0 0 0 127 0" result="hardAlpha"/>
<feMorphology radius="2.36308" operator="erode" in="SourceAlpha" result="effect1_dropShadow_344_6410"/>
<feOffset dy="3.93846"/>
<feGaussianBlur stdDeviation="7.08923"/>
<feComposite in2="hardAlpha" operator="out"/>
<feColorMatrix type="matrix" values="0 0 0 0 0 0 0 0 0 0 0 0 0 0 0 0 0 0 0.44 0"/>
<feBlend mode="normal" in2="BackgroundImageFix" result="effect1_dropShadow_344_6410"/>
<feBlend mode="normal" in="SourceGraphic" in2="effect1_dropShadow_344_6410" result="shape"/>
</filter>
</defs>
</svg>
