<svg width="50" height="60" viewBox="0 0 50 60" fill="none" xmlns="http://www.w3.org/2000/svg">
<path d="M1 15.2422L25 29.0232V57.9647L1 44.1826V15.2422Z" fill="#F5F8FF"/>
<path d="M25 29.023L1 15.242L25 1.45996L49 15.242L25 29.023Z" fill="#F5F8FF"/>
<path d="M49 15.2422L25 29.0232V57.9647L49 44.1826V15.2422Z" fill="#F5F8FF"/>
<path d="M1 15.242L25 29.0231M1 15.242V44.1824L25 57.9645M1 15.242L25 57.9645M1 15.242L25 1.45996L49 15.242M25 29.0231V57.9645M25 29.0231L49 15.242M25 57.9645L49 44.1824V15.242" stroke="#101010" stroke-width="2"/>
<path d="M1 15.5861L25 29.2561V57.9644L1 44.2944V15.5861Z" fill="#101010"/>
</svg>
