<svg width="58" height="58" viewBox="0 0 58 58" fill="none" xmlns="http://www.w3.org/2000/svg">
<path d="M25.3305 50.4266C15.0777 48.6173 7.2373 39.6913 7.2373 28.956C7.2373 17.0145 17.0076 7.24414 28.9492 7.24414C40.8907 7.24414 50.661 17.0145 50.661 28.956C50.661 39.6913 42.8206 48.6173 32.5678 50.4266L31.3616 49.4617H26.5367L25.3305 50.4266Z" fill="url(#paint0_linear_344_5404)"/>
<path d="M37.3927 34.9869L38.3577 28.9559H32.5678V24.7341C32.5678 23.0454 33.171 21.7186 35.8246 21.7186H38.5989V16.17C37.0308 15.9287 35.3421 15.6875 33.7741 15.6875C28.8286 15.6875 25.3306 18.703 25.3306 24.131V28.9559H19.9026V34.9869H25.3306V50.3059C26.5368 50.5471 27.743 50.6677 28.9492 50.6677C30.1554 50.6677 31.3616 50.5471 32.5678 50.3059V34.9869H37.3927Z" fill="white"/>
<defs>
<linearGradient id="paint0_linear_344_5404" x1="28.9492" y1="49.1649" x2="28.9492" y2="7.24414" gradientUnits="userSpaceOnUse">
<stop stop-color="#0062E0"/>
<stop offset="1" stop-color="#19AFFF"/>
</linearGradient>
</defs>
</svg>
