<svg width="59" height="59" viewBox="0 0 59 59" fill="none" xmlns="http://www.w3.org/2000/svg">
<path fill-rule="evenodd" clip-rule="evenodd" d="M29.4466 8.03027C17.4574 8.03027 7.73669 17.7509 7.73669 29.7428C7.73669 39.3355 13.9572 47.4727 22.5849 50.3451C23.6712 50.5437 24.0671 49.8732 24.0671 49.2974C24.0671 48.7829 24.0484 47.4167 24.0378 45.6054C17.9985 46.9169 16.7243 42.6944 16.7243 42.6944C15.7366 40.1872 14.3131 39.5194 14.3131 39.5194C12.3418 38.1719 14.4624 38.1986 14.4624 38.1986C16.6416 38.3532 17.7879 40.4365 17.7879 40.4365C19.7246 43.754 22.8702 42.7957 24.1071 42.2412C24.3043 40.8377 24.8641 39.8806 25.4853 39.3382C20.6642 38.7904 15.5953 36.927 15.5953 28.6072C15.5953 26.2373 16.4417 24.2993 17.8306 22.7812C17.6066 22.2321 16.8616 20.0248 18.0425 17.0352C18.0425 17.0352 19.8659 16.4514 24.0138 19.2611C25.7452 18.7799 27.6032 18.5387 29.4492 18.5307C31.2926 18.5387 33.1506 18.7799 34.8847 19.2611C39.0299 16.4514 40.8493 17.0352 40.8493 17.0352C42.0342 20.0248 41.2892 22.2321 41.0652 22.7812C42.4568 24.2993 43.2978 26.2373 43.2978 28.6072C43.2978 36.9483 38.2209 38.7837 33.3839 39.3208C34.1636 39.9913 34.858 41.3162 34.858 43.3421C34.858 46.2438 34.8314 48.5857 34.8314 49.2974C34.8314 49.8785 35.2219 50.5543 36.3242 50.3424C44.9452 47.4647 51.1604 39.3328 51.1604 29.7428C51.1604 17.7509 41.4384 8.03027 29.4466 8.03027Z" fill="black"/>
</svg>
