<svg width="59" height="58" viewBox="0 0 59 58" fill="none" xmlns="http://www.w3.org/2000/svg">
<path fill-rule="evenodd" clip-rule="evenodd" d="M48.8843 29.4224C48.8843 27.9683 48.7538 26.5702 48.5115 25.228H29.1989V33.16H40.2346C39.7593 35.7232 38.3146 37.8949 36.1428 39.349V44.4941H42.7699C46.6473 40.9242 48.8843 35.6673 48.8843 29.4224Z" fill="#4285F4"/>
<path fill-rule="evenodd" clip-rule="evenodd" d="M29.1988 49.4621C34.7353 49.4621 39.377 47.626 42.7698 44.4942L36.1427 39.3491C34.3066 40.5795 31.9577 41.3065 29.1988 41.3065C23.858 41.3065 19.3374 37.6993 17.7249 32.8525H10.8741V38.1654C14.2483 44.867 21.1829 49.4621 29.1988 49.4621Z" fill="#34A853"/>
<path fill-rule="evenodd" clip-rule="evenodd" d="M17.7251 32.8526C17.3149 31.6222 17.0819 30.308 17.0819 28.9565C17.0819 27.605 17.3149 26.2907 17.7251 25.0604V19.7476H10.8743C9.4855 22.5158 8.69324 25.6476 8.69324 28.9565C8.69324 32.2653 9.4855 35.3971 10.8743 38.1654L17.7251 32.8526Z" fill="#FBBC05"/>
<path fill-rule="evenodd" clip-rule="evenodd" d="M29.1988 16.6064C32.2094 16.6064 34.9124 17.641 37.0375 19.6729L42.9189 13.7915C39.3677 10.4826 34.726 8.45068 29.1988 8.45068C21.1829 8.45068 14.2483 13.0458 10.8741 19.7475L17.7249 25.0603C19.3374 20.2135 23.858 16.6064 29.1988 16.6064Z" fill="#EA4335"/>
</svg>
