<svg width="127" height="127" viewBox="0 0 127 127" fill="none" xmlns="http://www.w3.org/2000/svg">
<g filter="url(#filter0_d_707_5284)">
<circle cx="63.5" cy="58.5" r="48.5" fill="white"/>
</g>
<path fill-rule="evenodd" clip-rule="evenodd" d="M75.76 42.0064C77.1727 41.9979 78.5855 41.9979 79.9982 42.0064C80.5034 42.0064 80.7688 42.3489 81 42.7513V47.4006C80.726 47.9914 80.2637 48.1797 79.6301 48.1626C78.7787 48.1386 77.9231 48.144 77.0692 48.1494H77.0692H77.0691C76.7036 48.1518 76.3384 48.1541 75.974 48.1541C75.1692 48.1455 74.7839 47.7516 74.7753 46.9554C74.7726 46.8677 74.784 46.7718 74.7953 46.6763C74.8204 46.4641 74.8453 46.2542 74.7154 46.1419C74.5996 46.0445 74.3841 46.064 74.1707 46.0834C74.0842 46.0913 73.9981 46.0991 73.9191 46.0991H70.674C70.6608 46.1917 70.719 46.2179 70.7699 46.2408C70.7849 46.2475 70.7993 46.254 70.811 46.2618C74.1075 48.5137 76.0425 51.6046 76.6162 55.5432C76.7104 56.2196 76.8816 56.6563 77.5409 57.0245C78.7653 57.7094 79.1763 59.3106 78.6454 60.6548C78.1488 61.922 76.7789 62.7097 75.4089 62.5299C74.0903 62.3501 73.0029 61.3398 72.7889 60.0983C72.5406 58.6684 73.1827 57.367 74.4499 56.759C74.6469 56.6649 74.6982 56.5707 74.6726 56.3481C74.4414 54.1219 73.6451 52.1269 72.2495 50.3717C70.7254 48.4623 68.7818 47.1951 66.4272 46.5358C66.2645 46.493 66.1875 46.5358 66.1018 46.6728C64.8004 48.6592 62.206 48.6592 60.896 46.6642C60.78 46.4819 60.672 46.5162 60.5176 46.5652L60.5022 46.5701C56.418 47.803 53.8237 50.5001 52.6421 54.5842C52.487 55.1013 52.4147 55.6374 52.3428 56.1706C52.3314 56.2556 52.3199 56.3404 52.3082 56.4251C52.2825 56.6306 52.3852 56.682 52.5222 56.7505C53.4641 57.2128 54.0377 57.9577 54.2261 58.9938C54.5087 60.5606 53.4726 62.1104 51.8886 62.4957C50.3817 62.8553 48.7634 61.9391 48.2925 60.4579C47.8216 58.9681 48.4809 57.3926 49.868 56.7676C50.1762 56.622 50.2789 56.4508 50.3046 56.1426C50.4331 54.5329 50.8783 53.0002 51.5804 51.5447C52.625 49.3956 54.1234 47.6489 56.1012 46.3132C56.1397 46.2875 56.1761 46.2618 56.2125 46.2362L56.2125 46.2361L56.2126 46.2361C56.2489 46.2104 56.2853 46.1847 56.3238 46.1591C56.3238 46.1591 56.3238 46.1419 56.3153 46.0991H54.7313C54.5475 46.0991 54.3631 46.0997 54.1785 46.1002H54.1785H54.1784C53.6235 46.1018 53.0662 46.1034 52.5137 46.0906C52.2654 46.082 52.2054 46.1591 52.2226 46.3903C52.2397 46.6386 52.2311 46.8954 52.2226 47.1437C52.1969 47.7088 51.7859 48.1369 51.2208 48.1455C49.8166 48.1541 48.421 48.1541 47.0168 48.1455C46.4345 48.1455 46.015 47.7088 46.0064 47.118C45.9979 45.7652 45.9979 44.4038 46.0064 43.051C46.0064 42.4345 46.4431 42.0064 47.0681 42.0064C48.4295 41.9979 49.7995 41.9979 51.1608 42.0064C51.7859 42.015 52.1969 42.4431 52.214 43.0681V43.1024C52.2167 43.1986 52.2077 43.3047 52.1987 43.4105C52.1789 43.6437 52.1593 43.875 52.2654 43.9928C52.393 44.1326 52.6415 44.1042 52.8882 44.0759C52.9891 44.0643 53.0896 44.0528 53.1815 44.0528C54.3717 44.0571 55.5618 44.0571 56.7519 44.0571C57.9421 44.0571 59.1322 44.0571 60.3224 44.0613C60.5279 44.0699 60.6306 44.01 60.7248 43.813C61.2813 42.6657 62.206 42.0321 63.4818 42.0235C64.7747 42.015 65.708 42.6486 66.2731 43.813C66.3587 43.9843 66.4358 44.0613 66.6412 44.0613C69.2613 44.0528 71.8813 44.0528 74.5013 44.0613C74.7239 44.0613 74.7924 44.0014 74.7753 43.7788C74.7582 43.5134 74.7582 43.2565 74.7753 42.9911C74.801 42.4431 75.212 42.015 75.76 42.0064ZM60.5295 72.8238C62.5074 72.8152 64.4938 72.8152 66.4716 72.8238C68.2868 72.8324 69.8109 73.9198 70.4359 75.6236C70.65 76.2059 70.4274 76.6254 69.7167 76.985H57.2844C57.1988 76.9508 57.1218 76.908 57.0448 76.8652L57.0448 76.8652L57.0447 76.8651C56.5738 76.6083 56.3854 76.1288 56.5652 75.6236C57.1902 73.9198 58.7143 72.8324 60.5295 72.8238ZM67.3539 55.2371C66.4292 53.85 65.5045 52.4629 64.5198 50.9902C64.5198 54.2353 64.5198 57.3776 64.5113 60.5285C64.5113 60.7158 64.6109 60.7608 64.7258 60.8128C64.737 60.8178 64.7482 60.8229 64.7596 60.8282C66.1894 61.4874 66.8744 63.0372 66.4121 64.527C66.0096 65.8285 64.6996 66.7532 63.3811 66.6761C61.9341 66.5905 60.7182 65.563 60.4785 64.2273C60.2216 62.7889 60.898 61.4361 62.1909 60.8453C62.3964 60.7511 62.4649 60.6484 62.4649 60.4172C62.4563 57.4033 62.4563 54.3809 62.4563 51.367C62.4563 51.3436 62.4595 51.3196 62.4627 51.2956V51.2955C62.4724 51.2228 62.4822 51.1488 62.405 51.0844C62.3743 51.1253 62.3467 51.1661 62.3204 51.2052L62.3203 51.2053C62.3025 51.2316 62.2852 51.2572 62.268 51.2813C60.9867 53.2032 59.7076 55.123 58.4285 57.0427L58.4199 57.0556C57.1375 58.9802 55.8551 60.9049 54.5706 62.8317C54.1168 63.5081 54.151 63.902 54.7161 64.5013C55.1614 64.9722 55.5809 65.4689 55.9491 66.0083C56.9851 67.5066 57.6872 69.142 58.0297 70.9315C58.0725 71.1541 58.1153 71.2569 58.3893 71.1541C59.0743 70.8887 59.7935 70.7945 60.5299 70.7945C61.2148 70.7988 61.8977 70.7967 62.5805 70.7945H62.5811C63.2637 70.7924 63.9464 70.7902 64.6311 70.7945C64.8795 70.796 65.1287 70.7925 65.3781 70.789C66.5473 70.7724 67.7217 70.7558 68.8437 71.2569C68.8572 71.1986 68.8706 71.1497 68.8829 71.1052L68.8829 71.1052L68.8829 71.1052C68.894 71.0648 68.9041 71.0281 68.9122 70.9914C69.4174 68.4742 70.5476 66.2823 72.32 64.4328C72.808 63.9191 72.8251 63.4996 72.4227 62.9002C70.7447 60.3232 69.0495 57.7804 67.3543 55.2377L67.3541 55.2374L67.3539 55.2371ZM64.5204 63.6028C64.5204 64.1593 64.0581 64.6217 63.5015 64.6217C62.9279 64.6217 62.457 64.1422 62.4741 63.5771C62.4826 63.0205 62.9536 62.5668 63.5101 62.5753C64.0666 62.5839 64.5204 63.0462 64.5204 63.6028Z" fill="#0B2158"/>
<defs>
<filter id="filter0_d_707_5284" x="0" y="0" width="127" height="127" filterUnits="userSpaceOnUse" color-interpolation-filters="sRGB">
<feFlood flood-opacity="0" result="BackgroundImageFix"/>
<feColorMatrix in="SourceAlpha" type="matrix" values="0 0 0 0 0 0 0 0 0 0 0 0 0 0 0 0 0 0 127 0" result="hardAlpha"/>
<feMorphology radius="3" operator="erode" in="SourceAlpha" result="effect1_dropShadow_707_5284"/>
<feOffset dy="5"/>
<feGaussianBlur stdDeviation="9"/>
<feComposite in2="hardAlpha" operator="out"/>
<feColorMatrix type="matrix" values="0 0 0 0 0 0 0 0 0 0 0 0 0 0 0 0 0 0 0.44 0"/>
<feBlend mode="normal" in2="BackgroundImageFix" result="effect1_dropShadow_707_5284"/>
<feBlend mode="normal" in="SourceGraphic" in2="effect1_dropShadow_707_5284" result="shape"/>
</filter>
</defs>
</svg>
