<svg width="58" height="58" viewBox="0 0 58 58" fill="none" xmlns="http://www.w3.org/2000/svg">
<path d="M29.0124 7.90186C23.2947 7.90186 22.5772 7.92686 20.3315 8.02906C18.0902 8.13169 16.5603 8.48654 15.2217 9.00719C13.837 9.54494 12.6624 10.2643 11.4922 11.435C10.3211 12.6052 9.60175 13.7798 9.06226 15.1641C8.54031 16.5033 8.18504 18.0336 8.08416 20.2741C7.98371 22.5199 7.9574 23.2379 7.9574 28.9558C7.9574 34.6737 7.98284 35.3891 8.08459 37.6348C8.18767 39.8762 8.5425 41.4061 9.0627 42.7448C9.60087 44.1295 10.3202 45.3042 11.4908 46.4744C12.6606 47.6455 13.8352 48.3666 15.219 48.9044C16.5585 49.425 18.0889 49.7799 20.3297 49.8825C22.5754 49.9847 23.2925 50.0097 29.0098 50.0097C34.728 50.0097 35.4434 49.9847 37.689 49.8825C39.9303 49.7799 41.462 49.425 42.8015 48.9044C44.1857 48.3666 45.3586 47.6455 46.5284 46.4744C47.6994 45.3042 48.4188 44.1295 48.9582 42.7452C49.4758 41.4061 49.8311 39.8758 49.9364 37.6353C50.0372 35.3895 50.0635 34.6737 50.0635 28.9558C50.0635 23.2379 50.0372 22.5203 49.9364 20.2745C49.8311 18.0332 49.4758 16.5033 48.9582 15.1646C48.4188 13.7798 47.6994 12.6052 46.5284 11.435C45.3573 10.2638 44.1862 9.5445 42.8002 9.00719C41.458 8.48654 39.9273 8.13169 37.686 8.02906C35.4403 7.92686 34.7253 7.90186 29.0059 7.90186H29.0124ZM27.1238 11.6959C27.6843 11.6951 28.3098 11.6959 29.0124 11.6959C34.6337 11.6959 35.2999 11.7161 37.5197 11.817C39.5724 11.9109 40.6865 12.2539 41.4286 12.5421C42.4111 12.9237 43.1116 13.3798 43.848 14.1167C44.5849 14.8536 45.041 15.5554 45.4235 16.5379C45.7117 17.2792 46.0551 18.3933 46.1485 20.446C46.2494 22.6655 46.2713 23.3322 46.2713 28.951C46.2713 34.5697 46.2494 35.2364 46.1485 37.4559C46.0546 39.5086 45.7117 40.6227 45.4235 41.364C45.0419 42.3465 44.5849 43.0461 43.848 43.7826C43.1111 44.5195 42.4116 44.9756 41.4286 45.3572C40.6874 45.6467 39.5724 45.9889 37.5197 46.0827C35.3004 46.1836 34.6337 46.2055 29.0124 46.2055C23.3908 46.2055 22.7245 46.1836 20.5052 46.0827C18.4525 45.988 17.3384 45.645 16.5958 45.3568C15.6133 44.9752 14.9116 44.519 14.1747 43.7821C13.4378 43.0453 12.9817 42.3452 12.5992 41.3623C12.311 40.621 11.9676 39.5069 11.8742 37.4541C11.7733 35.2347 11.7531 34.568 11.7531 28.9457C11.7531 23.3234 11.7733 22.6602 11.8742 20.4408C11.9681 18.388 12.311 17.2739 12.5992 16.5318C12.9808 15.5493 13.4378 14.8475 14.1747 14.1106C14.9116 13.3737 15.6133 12.9175 16.5958 12.535C17.338 12.2455 18.4525 11.9034 20.5052 11.8091C22.4473 11.7214 23.2 11.6951 27.1238 11.6907V11.6959ZM40.2505 15.1918C38.8557 15.1918 37.7241 16.3221 37.7241 17.7174C37.7241 19.1122 38.8557 20.2438 40.2505 20.2438C41.6453 20.2438 42.7769 19.1122 42.7769 17.7174C42.7769 16.3225 41.6453 15.1909 40.2505 15.1909V15.1918ZM29.0124 18.1437C23.0416 18.1437 18.2007 22.9848 18.2007 28.9558C18.2007 34.9268 23.0416 39.7657 29.0124 39.7657C34.9832 39.7657 39.8224 34.9268 39.8224 28.9558C39.8224 22.9848 34.9828 18.1437 29.012 18.1437H29.0124ZM29.0124 21.9378C32.888 21.9378 36.0302 25.0797 36.0302 28.9558C36.0302 32.8315 32.888 35.9738 29.0124 35.9738C25.1364 35.9738 21.9947 32.8315 21.9947 28.9558C21.9947 25.0797 25.1364 21.9378 29.0124 21.9378V21.9378Z" fill="url(#paint0_radial_344_5405)"/>
<path d="M29.0124 7.90186C23.2947 7.90186 22.5772 7.92686 20.3315 8.02906C18.0902 8.13169 16.5603 8.48654 15.2217 9.00719C13.837 9.54494 12.6624 10.2643 11.4922 11.435C10.3211 12.6052 9.60175 13.7798 9.06226 15.1641C8.54031 16.5033 8.18504 18.0336 8.08416 20.2741C7.98371 22.5199 7.9574 23.2379 7.9574 28.9558C7.9574 34.6737 7.98284 35.3891 8.08459 37.6348C8.18767 39.8762 8.5425 41.4061 9.0627 42.7448C9.60087 44.1295 10.3202 45.3042 11.4908 46.4744C12.6606 47.6455 13.8352 48.3666 15.219 48.9044C16.5585 49.425 18.0889 49.7799 20.3297 49.8825C22.5754 49.9847 23.2925 50.0097 29.0098 50.0097C34.728 50.0097 35.4434 49.9847 37.689 49.8825C39.9303 49.7799 41.462 49.425 42.8015 48.9044C44.1857 48.3666 45.3586 47.6455 46.5284 46.4744C47.6994 45.3042 48.4188 44.1295 48.9582 42.7452C49.4758 41.4061 49.8311 39.8758 49.9364 37.6353C50.0372 35.3895 50.0635 34.6737 50.0635 28.9558C50.0635 23.2379 50.0372 22.5203 49.9364 20.2745C49.8311 18.0332 49.4758 16.5033 48.9582 15.1646C48.4188 13.7798 47.6994 12.6052 46.5284 11.435C45.3573 10.2638 44.1862 9.5445 42.8002 9.00719C41.458 8.48654 39.9273 8.13169 37.686 8.02906C35.4403 7.92686 34.7253 7.90186 29.0059 7.90186H29.0124ZM27.1238 11.6959C27.6843 11.6951 28.3098 11.6959 29.0124 11.6959C34.6337 11.6959 35.2999 11.7161 37.5197 11.817C39.5724 11.9109 40.6865 12.2539 41.4286 12.5421C42.4111 12.9237 43.1116 13.3798 43.848 14.1167C44.5849 14.8536 45.041 15.5554 45.4235 16.5379C45.7117 17.2792 46.0551 18.3933 46.1485 20.446C46.2494 22.6655 46.2713 23.3322 46.2713 28.951C46.2713 34.5697 46.2494 35.2364 46.1485 37.4559C46.0546 39.5086 45.7117 40.6227 45.4235 41.364C45.0419 42.3465 44.5849 43.0461 43.848 43.7826C43.1111 44.5195 42.4116 44.9756 41.4286 45.3572C40.6874 45.6467 39.5724 45.9889 37.5197 46.0827C35.3004 46.1836 34.6337 46.2055 29.0124 46.2055C23.3908 46.2055 22.7245 46.1836 20.5052 46.0827C18.4525 45.988 17.3384 45.645 16.5958 45.3568C15.6133 44.9752 14.9116 44.519 14.1747 43.7821C13.4378 43.0453 12.9817 42.3452 12.5992 41.3623C12.311 40.621 11.9676 39.5069 11.8742 37.4541C11.7733 35.2347 11.7531 34.568 11.7531 28.9457C11.7531 23.3234 11.7733 22.6602 11.8742 20.4408C11.9681 18.388 12.311 17.2739 12.5992 16.5318C12.9808 15.5493 13.4378 14.8475 14.1747 14.1106C14.9116 13.3737 15.6133 12.9175 16.5958 12.535C17.338 12.2455 18.4525 11.9034 20.5052 11.8091C22.4473 11.7214 23.2 11.6951 27.1238 11.6907V11.6959ZM40.2505 15.1918C38.8557 15.1918 37.7241 16.3221 37.7241 17.7174C37.7241 19.1122 38.8557 20.2438 40.2505 20.2438C41.6453 20.2438 42.7769 19.1122 42.7769 17.7174C42.7769 16.3225 41.6453 15.1909 40.2505 15.1909V15.1918ZM29.0124 18.1437C23.0416 18.1437 18.2007 22.9848 18.2007 28.9558C18.2007 34.9268 23.0416 39.7657 29.0124 39.7657C34.9832 39.7657 39.8224 34.9268 39.8224 28.9558C39.8224 22.9848 34.9828 18.1437 29.012 18.1437H29.0124ZM29.0124 21.9378C32.888 21.9378 36.0302 25.0797 36.0302 28.9558C36.0302 32.8315 32.888 35.9738 29.0124 35.9738C25.1364 35.9738 21.9947 32.8315 21.9947 28.9558C21.9947 25.0797 25.1364 21.9378 29.0124 21.9378V21.9378Z" fill="url(#paint1_radial_344_5405)"/>
<defs>
<radialGradient id="paint0_radial_344_5405" cx="0" cy="0" r="1" gradientUnits="userSpaceOnUse" gradientTransform="translate(19.1419 53.2529) rotate(-90) scale(41.732 38.8125)">
<stop stop-color="#FFDD55"/>
<stop offset="0.1" stop-color="#FFDD55"/>
<stop offset="0.5" stop-color="#FF543E"/>
<stop offset="1" stop-color="#C837AB"/>
</radialGradient>
<radialGradient id="paint1_radial_344_5405" cx="0" cy="0" r="1" gradientUnits="userSpaceOnUse" gradientTransform="translate(0.904394 10.9352) rotate(78.6811) scale(18.6543 76.8911)">
<stop stop-color="#3771C8"/>
<stop offset="0.128" stop-color="#3771C8"/>
<stop offset="1" stop-color="#6600FF" stop-opacity="0"/>
</radialGradient>
</defs>
</svg>
