<svg width="274" height="126" viewBox="0 0 274 126" fill="none" xmlns="http://www.w3.org/2000/svg">
<path d="M-88.4677 37.9055C-89.1921 37.4873 -90.1184 37.7355 -90.5366 38.4599C-90.9548 39.1842 -90.7066 40.1105 -89.9822 40.5287L-88.4677 37.9055ZM269.507 1.20337C269.29 0.395415 268.46 -0.0840583 267.652 0.132432L254.485 3.66034C253.677 3.87683 253.198 4.70729 253.414 5.51524C253.631 6.32319 254.461 6.80267 255.269 6.58618L266.973 3.45026L270.109 15.1537C270.325 15.9616 271.156 16.4411 271.963 16.2246C272.771 16.0081 273.251 15.1776 273.034 14.3697L269.507 1.20337ZM266.732 0.838094C266.018 2.07509 265.302 3.30074 264.585 4.51513L267.193 6.05553C267.915 4.83248 268.636 3.59821 269.355 2.35262L266.732 0.838094ZM260.264 11.6669C258.817 14.0062 257.365 16.3011 255.908 18.5522L258.451 20.1984C259.92 17.9294 261.383 15.6167 262.84 13.2598L260.264 11.6669ZM251.394 25.3591C249.806 27.6971 248.212 29.9846 246.612 32.2226L249.076 33.9842C250.69 31.7262 252.298 29.4188 253.9 27.0612L251.394 25.3591ZM241.795 38.7888C240.129 41.0022 238.456 43.1635 236.779 45.2736L239.15 47.1587C240.844 45.0275 242.533 42.8451 244.215 40.6108L241.795 38.7888ZM231.51 51.7122C229.748 53.8034 227.981 55.8399 226.208 57.8228L228.467 59.8414C230.259 57.8361 232.046 55.7773 233.826 53.6639L231.51 51.7122ZM220.579 63.9245C218.661 65.9372 216.738 67.8892 214.811 69.7817L216.933 71.9432C218.885 70.0267 220.831 68.0507 222.772 66.014L220.579 63.9245ZM208.921 75.3668C206.847 77.2657 204.767 79.098 202.684 80.8653L204.643 83.1753C206.756 81.383 208.864 79.5255 210.966 77.6011L208.921 75.3668ZM196.421 85.9736C194.21 87.7059 191.996 89.3674 189.778 90.96L191.544 93.4205C193.797 91.8029 196.046 90.116 198.289 88.3579L196.421 85.9736ZM183.066 95.5649C180.739 97.0884 178.408 98.5386 176.076 99.9176L177.618 102.525C179.99 101.122 182.359 99.6478 184.725 98.0993L183.066 95.5649ZM168.951 103.909C166.504 105.204 164.057 106.424 161.609 107.571L162.894 110.314C165.387 109.146 167.878 107.904 170.368 106.586L168.951 103.909ZM154.124 110.851C151.568 111.896 149.012 112.864 146.458 113.758L147.458 116.617C150.061 115.706 152.666 114.72 155.27 113.655L154.124 110.851ZM138.684 116.254C136.036 117.029 133.392 117.727 130.751 118.352L131.448 121.299C134.14 120.663 136.836 119.951 139.535 119.161L138.684 116.254ZM122.77 120.021C120.058 120.515 117.351 120.934 114.651 121.281L115.038 124.286C117.789 123.931 120.548 123.504 123.312 123.001L122.77 120.021ZM106.538 122.116C103.794 122.328 101.058 122.469 98.3316 122.543L98.4134 125.571C101.189 125.496 103.976 125.352 106.771 125.136L106.538 122.116ZM90.1516 122.564C87.4082 122.505 84.6764 122.381 81.9579 122.194L81.7504 125.216C84.5153 125.406 87.2945 125.533 90.0864 125.593L90.1516 122.564ZM73.7926 121.446C71.0709 121.135 68.3643 120.765 65.6743 120.339L65.2005 123.331C67.9326 123.763 70.6825 124.14 73.4488 124.456L73.7926 121.446ZM57.5873 118.884C54.9013 118.344 52.234 117.751 49.5871 117.109L48.873 120.052C51.5576 120.703 54.2637 121.305 56.9898 121.854L57.5873 118.884ZM41.6323 115.018C38.9882 114.271 36.3669 113.477 33.7702 112.641L32.8423 115.525C35.4724 116.371 38.1282 117.175 40.808 117.933L41.6323 115.018ZM25.9981 109.993C23.402 109.059 20.8334 108.087 18.2939 107.079L17.1773 109.895C19.7461 110.914 22.3453 111.898 24.973 112.843L25.9981 109.993ZM10.7181 103.939C8.17804 102.841 5.67071 101.711 3.19805 100.555L1.91499 103.299C4.41356 104.467 6.94784 105.609 9.51586 106.719L10.7181 103.939ZM-4.21068 96.9628C-6.67442 95.726 -9.0994 94.4666 -11.4835 93.1899L-12.9135 95.8601C-10.5066 97.1491 -8.05795 98.4208 -5.56959 99.6699L-4.21068 96.9628ZM-18.7287 89.1891C-21.1458 87.8141 -23.515 86.426 -25.834 85.0309L-27.3955 87.6265C-25.0561 89.0338 -22.6656 90.4344 -20.2265 91.8219L-18.7287 89.1891ZM-32.7937 80.7321C-35.1744 79.2232 -37.4939 77.7137 -39.7491 76.2111L-41.4286 78.7319C-39.1549 80.2468 -36.8161 81.7689 -34.4152 83.2906L-32.7937 80.7321ZM-46.5707 71.556C-48.8819 69.9414 -51.1126 68.3446 -53.2588 66.7758L-55.0463 69.2211C-52.8834 70.8022 -50.6351 72.4116 -48.3054 74.0391L-46.5707 71.556ZM-59.8233 61.8702C-62.1 60.1314 -64.2568 58.4446 -66.2876 56.8254L-68.176 59.1938C-66.1296 60.8254 -63.9561 62.5252 -61.6619 64.2775L-59.8233 61.8702ZM-72.6883 51.6111C-75.0608 49.6363 -77.1849 47.8206 -79.0446 46.2039L-81.032 48.4898C-79.1578 50.1192 -77.0171 51.949 -74.6261 53.9392L-72.6883 51.6111ZM-85.1164 40.8187C-86.0099 40.0126 -86.7308 39.3589 -87.2544 38.893C-87.5162 38.6601 -87.7395 38.4645 -87.917 38.3151C-88.0545 38.1994 -88.27 38.0197 -88.4677 37.9055L-89.9822 40.5287C-90.0587 40.4846 -90.0514 40.4779 -89.867 40.633C-89.7226 40.7545 -89.5246 40.9276 -89.2679 41.156C-88.7546 41.6127 -88.0497 42.252 -87.1454 43.0678L-85.1164 40.8187Z" fill="#F5F8FF"/>
</svg>
