<svg width="104" height="104" viewBox="0 0 104 104" fill="none" xmlns="http://www.w3.org/2000/svg">
<g filter="url(#filter0_d_707_5285)">
<circle cx="52" cy="47" r="37" fill="white"/>
</g>
<path fill-rule="evenodd" clip-rule="evenodd" d="M52.6933 33.5446C52.6933 33.9307 52.3863 34.2376 52.0002 34.2376C51.6141 34.2376 51.3071 33.9307 51.3071 33.5446V27.6931C51.3071 27.3069 51.6141 27 52.0002 27C52.3863 27 52.6933 27.3069 52.6933 27.6931V33.5446ZM42.4953 38.1884C42.3171 38.1884 42.129 38.1092 42.0002 37.9804L37.8616 33.8418C37.5943 33.5745 37.5943 33.129 37.8616 32.8616C38.129 32.5943 38.5745 32.5943 38.8418 32.8616L42.9903 37.0002C43.2577 37.2676 43.2577 37.7131 42.9903 37.9804C42.8517 38.1191 42.6735 38.1884 42.4953 38.1884ZM39.2475 46.9997C39.2475 46.6136 38.9406 46.3066 38.5545 46.3066H32.6931C32.3069 46.3066 32 46.6136 32 46.9997C32 47.3859 32.3069 47.6928 32.6931 47.6928H38.5545C38.9406 47.6928 39.2475 47.3859 39.2475 46.9997ZM65.4553 46.3066H71.3068C71.683 46.3066 71.9998 46.6136 71.9998 46.9997C71.9998 47.3859 71.6929 47.6928 71.3068 47.6928H65.4553C65.0691 47.6928 64.7622 47.3859 64.7622 46.9997C64.7622 46.6136 65.0691 46.3066 65.4553 46.3066ZM61.505 38.1884C61.6832 38.1884 61.8614 38.1191 62 37.9804L66.1386 33.8418C66.406 33.5745 66.406 33.129 66.1386 32.8616C65.8713 32.5943 65.4258 32.5943 65.1585 32.8616L61.0198 37.0002C60.7525 37.2676 60.7525 37.7131 61.0198 37.9804C61.1485 38.1191 61.3268 38.1884 61.505 38.1884ZM48.3464 62.4453H55.9207C56.3959 62.4453 56.7919 62.8315 56.7919 63.3166C56.7919 63.7918 56.4058 64.1879 55.9207 64.1879H48.3464C47.8711 64.1879 47.4751 63.8017 47.4751 63.3166C47.4751 62.8414 47.8711 62.4453 48.3464 62.4453ZM54.6137 65.3369H49.8811C49.3959 65.3369 49.0098 65.733 49.0098 66.2082C49.0098 66.6933 49.4058 67.0795 49.8811 67.0795H54.6137C55.0989 67.0795 55.485 66.6834 55.485 66.2082C55.485 65.733 55.089 65.3369 54.6137 65.3369ZM42 47.2075C42 41.6234 46.5248 37.0986 52.099 37.0986C57.6733 37.0986 62.198 41.6234 62.2079 47.2075C62.2079 50.1481 60.9604 52.7917 58.9307 54.6333C57.1485 56.2868 56.1287 58.5838 56.1287 61.0095H48.0792C48.0792 58.5838 47.0594 56.2669 45.2772 54.6333C43.2673 52.7917 42 50.1481 42 47.2075ZM46.2475 50.2967C44.5248 47.1877 45.6634 43.2471 48.7624 41.5244C49.198 41.2967 49.3366 40.762 49.099 40.3165C48.8713 39.9006 48.3465 39.7422 47.9109 39.9897C43.9604 42.1778 42.5248 47.1877 44.7228 51.1382C44.8812 51.4254 45.1881 51.5838 45.4851 51.5838C45.6238 51.5838 45.7723 51.5541 45.901 51.4848C46.3366 51.2471 46.4752 50.7125 46.2475 50.2967Z" fill="#0B2158"/>
<defs>
<filter id="filter0_d_707_5285" x="0" y="0" width="104" height="104" filterUnits="userSpaceOnUse" color-interpolation-filters="sRGB">
<feFlood flood-opacity="0" result="BackgroundImageFix"/>
<feColorMatrix in="SourceAlpha" type="matrix" values="0 0 0 0 0 0 0 0 0 0 0 0 0 0 0 0 0 0 127 0" result="hardAlpha"/>
<feMorphology radius="3" operator="erode" in="SourceAlpha" result="effect1_dropShadow_707_5285"/>
<feOffset dy="5"/>
<feGaussianBlur stdDeviation="9"/>
<feComposite in2="hardAlpha" operator="out"/>
<feColorMatrix type="matrix" values="0 0 0 0 0 0 0 0 0 0 0 0 0 0 0 0 0 0 0.44 0"/>
<feBlend mode="normal" in2="BackgroundImageFix" result="effect1_dropShadow_707_5285"/>
<feBlend mode="normal" in="SourceGraphic" in2="effect1_dropShadow_707_5285" result="shape"/>
</filter>
</defs>
</svg>
