<svg width="59" height="58" viewBox="0 0 59 58" fill="none" xmlns="http://www.w3.org/2000/svg">
<path d="M8.56812 11.3612C8.56812 9.75349 9.87141 8.4502 11.4791 8.4502H46.6684C48.2761 8.4502 49.5794 9.75349 49.5794 11.3612V46.5504C49.5794 48.1581 48.2761 49.4614 46.6684 49.4614H11.4791C9.87141 49.4614 8.56812 48.1581 8.56812 46.5504V11.3612Z" fill="#0A66C2"/>
<path d="M17.7734 21.1862C19.7383 21.1862 21.3311 19.5934 21.3311 17.6285C21.3311 15.6636 19.7383 14.0708 17.7734 14.0708C15.8085 14.0708 14.2157 15.6636 14.2157 17.6285C14.2157 19.5934 15.8085 21.1862 17.7734 21.1862Z" fill="white"/>
<path d="M24.5894 23.8155H30.4857V26.5166C30.4857 26.5166 32.0857 23.3165 36.4392 23.3165C40.3227 23.3165 43.5398 25.2296 43.5398 31.0609V43.3574H37.4295V32.5509C37.4295 29.111 35.593 28.7327 34.1936 28.7327C31.2893 28.7327 30.7921 31.2378 30.7921 32.9996V43.3574H24.5894V23.8155Z" fill="white"/>
<path d="M14.6721 23.8155H20.8748V43.3575H14.6721V23.8155Z" fill="white"/>
</svg>
