<svg width="23" height="24" viewBox="0 0 23 24" fill="none" xmlns="http://www.w3.org/2000/svg">
<path fill-rule="evenodd" clip-rule="evenodd" d="M4.56789 4.56756C4.56789 2.35104 6.36473 0.554199 8.58125 0.554199H18.7971C21.0136 0.554199 22.8104 2.35104 22.8104 4.56756V10.4052C22.8104 12.6217 21.0136 14.4185 18.7971 14.4185H18.0674C17.0599 14.4185 16.2431 13.6018 16.2431 12.5943V8.5288C16.2431 7.75158 15.6131 7.12152 14.8358 7.12152H7.12184C5.71133 7.12152 4.56789 5.97807 4.56789 4.56756ZM8.58125 2.7433C7.57374 2.7433 6.75699 3.56005 6.75699 4.56756C6.75699 4.76906 6.92034 4.93241 7.12184 4.93241H14.8358C16.8221 4.93241 18.4322 6.54257 18.4322 8.5288V12.2294H18.7971C19.8046 12.2294 20.6213 11.4127 20.6213 10.4052V4.56756C20.6213 3.56005 19.8046 2.7433 18.7971 2.7433H8.58125Z" fill="#F5F8FF"/>
<path fill-rule="evenodd" clip-rule="evenodd" d="M0.189678 8.94598C0.189678 6.72946 1.98652 4.93262 4.20304 4.93262H14.4189C16.6354 4.93262 18.4322 6.72946 18.4322 8.94598V14.7836C18.4322 17.0001 16.6354 18.797 14.4189 18.797H10.951L7.61102 22.5755C6.43919 23.9012 4.25573 22.9499 4.42868 21.189L4.66361 18.797H4.20304C1.98652 18.797 0.189678 17.0001 0.189678 14.7836V8.94598ZM4.20304 7.12172C3.19553 7.12172 2.37878 7.93847 2.37878 8.94598V14.7836C2.37878 15.7911 3.19553 16.6078 4.20304 16.6078H5.06605C6.14403 16.6078 6.98693 17.5376 6.88157 18.6104L6.7175 20.281L9.4197 17.2239C9.76598 16.8322 10.2637 16.6078 10.7865 16.6078H14.4189C15.4264 16.6078 16.2431 15.7911 16.2431 14.7836V8.94598C16.2431 7.93847 15.4264 7.12172 14.4189 7.12172H4.20304Z" fill="#F5F8FF"/>
</svg>
