<svg width="26" height="26" viewBox="0 0 26 26" fill="none" xmlns="http://www.w3.org/2000/svg">
<path d="M0.33309 7.5709C0.333331 3.57299 3.57447 0.332227 7.57239 0.332467L18.4322 0.333122C22.4301 0.333363 25.6709 3.57451 25.6706 7.57242L25.67 18.4322C25.6697 22.4301 22.4286 25.6709 18.4307 25.6706L7.57087 25.67C3.57295 25.6697 0.332195 22.4286 0.332436 18.4307L0.33309 7.5709Z" fill="#264187"/>
<path d="M11.3331 8.11488C10.2803 7.5885 9.04166 8.35403 9.04166 9.53105V16.4692C9.04166 17.6462 10.2803 18.4117 11.3331 17.8853L18.2712 14.4163C19.4382 13.8328 19.4382 12.1674 18.2712 11.5839L11.3331 8.11488Z" fill="white"/>
</svg>
