<svg width="25" height="16" viewBox="0 0 25 16" fill="none" xmlns="http://www.w3.org/2000/svg">
<path d="M19.4056 0.874126C19.0559 0.34965 18.3566 0 17.6573 0H2.27273C1.04895 0 0 1.04895 0 2.27273V13.1119C0 14.3357 1.04895 15.3846 2.27273 15.3846H17.6573C18.3566 15.3846 19.0559 15.035 19.4056 14.5105L25 7.69231L19.4056 0.874126ZM18.007 13.4615L17.6573 13.6364H2.27273C1.92308 13.6364 1.74825 13.4615 1.74825 13.1119V2.27273C1.74825 1.92308 1.92308 1.74825 2.27273 1.74825H17.6573L18.007 1.92308L22.7273 7.69231L18.007 13.4615ZM16.0839 4.54545C14.3357 4.54545 12.9371 5.94406 12.9371 7.69231C12.9371 9.44056 14.3357 10.8392 16.0839 10.8392C17.8322 10.8392 19.2308 9.44056 19.2308 7.69231C19.2308 5.94406 17.8322 4.54545 16.0839 4.54545ZM16.0839 9.09091C15.3846 9.09091 14.6853 8.56643 14.6853 7.69231C14.6853 6.81818 15.2098 6.29371 16.0839 6.29371C16.958 6.29371 17.4825 6.99301 17.4825 7.69231C17.4825 8.39161 16.958 9.09091 16.0839 9.09091Z" fill="#F5F8FF"/>
</svg>
