<svg width="328" height="120" viewBox="0 0 328 120" fill="none" xmlns="http://www.w3.org/2000/svg">
<path d="M345.804 83.8012C346.494 84.2 347.378 83.9633 347.777 83.2725C348.176 82.5816 347.939 81.6982 347.248 81.2994L345.804 83.8012ZM4.40213 118.804C4.6086 119.575 5.40062 120.032 6.17117 119.825L18.7279 116.461C19.4985 116.254 19.9557 115.462 19.7493 114.692C19.5428 113.921 18.7508 113.464 17.9802 113.671L6.81868 116.661L3.82795 105.5C3.62148 104.729 2.82945 104.272 2.05891 104.478C1.28836 104.685 0.831086 105.477 1.03756 106.247L4.40213 118.804ZM7.04822 119.153C7.72935 117.973 8.41194 116.804 9.09596 115.646L6.60857 114.177C5.91966 115.343 5.23227 116.52 4.54643 117.708L7.04822 119.153ZM13.2171 108.825C14.5964 106.594 15.9812 104.405 17.3712 102.258L14.9462 100.688C13.5452 102.852 12.1496 105.058 10.76 107.306L13.2171 108.825ZM21.6759 95.7667C23.1905 93.537 24.7109 91.3554 26.2367 89.221L23.8867 87.5409C22.3472 89.6944 20.8136 91.895 19.2862 94.1435L21.6759 95.7667ZM30.8305 82.9588C32.4199 80.8478 34.0148 78.7866 35.6149 76.7742L33.3537 74.9763C31.7376 77.0089 30.1271 79.0902 28.5227 81.2211L30.8305 82.9588ZM40.6397 70.6337C42.32 68.6393 44.0055 66.6971 45.6958 64.806L43.542 62.8808C41.8326 64.7932 40.1287 66.7568 38.4305 68.7723L40.6397 70.6337ZM51.0645 58.9868C52.8934 57.0672 54.7274 55.2056 56.5659 53.4008L54.5421 51.3393C52.6803 53.167 50.8238 55.0515 48.9731 56.994L51.0645 58.9868ZM62.1828 48.0742C64.1612 46.2631 66.1442 44.5157 68.1313 42.8303L66.2626 40.6272C64.2474 42.3365 62.2371 44.108 60.2322 45.9433L62.1828 48.0742ZM74.104 37.9584C76.2123 36.3063 78.3245 34.7217 80.4398 33.2029L78.7548 30.8563C76.6064 32.399 74.4619 34.0078 72.3222 35.6846L74.104 37.9584ZM86.8408 28.8112C89.0604 27.3582 91.2828 25.9752 93.507 24.66L92.0366 22.1733C89.7743 23.5111 87.5147 24.9173 85.2586 26.3941L86.8408 28.8112ZM100.303 20.8533C102.636 19.618 104.97 18.4548 107.305 17.3612L106.079 14.7451C103.702 15.8587 101.325 17.043 98.9508 18.3003L100.303 20.8533ZM114.443 14.2324C116.881 13.236 119.318 12.313 121.754 11.4606L120.8 8.73384C118.318 9.60256 115.834 10.5431 113.35 11.5582L114.443 14.2324ZM129.168 9.07996C131.693 8.34092 134.215 7.67508 136.734 7.07945L136.069 4.26819C133.502 4.87537 130.93 5.55412 128.357 6.30745L129.168 9.07996ZM144.346 5.48747C146.932 5.01644 149.513 4.61678 152.088 4.28526L151.719 1.42009C149.095 1.75793 146.465 2.16526 143.828 2.64539L144.346 5.48747ZM159.826 3.48915C162.443 3.2868 165.053 3.15224 167.652 3.08203L167.574 0.194255C164.927 0.26575 162.27 0.40278 159.603 0.608911L159.826 3.48915ZM175.454 3.06163C178.07 3.11794 180.675 3.23689 183.268 3.41488L183.466 0.532839C180.829 0.351813 178.179 0.230779 175.516 0.173473L175.454 3.06163ZM191.055 4.12791C193.651 4.42449 196.232 4.77779 198.798 5.18409L199.25 2.33082C196.644 1.91817 194.021 1.55919 191.383 1.25775L191.055 4.12791ZM206.51 6.57138C209.072 7.08678 211.616 7.65258 214.14 8.2649L214.821 5.45749C212.261 4.83646 209.68 4.2624 207.08 3.73931L206.51 6.57138ZM221.727 10.2583C224.248 10.9714 226.748 11.7285 229.225 12.5254L230.11 9.77545C227.601 8.9683 225.069 8.20125 222.513 7.47849L221.727 10.2583ZM236.637 15.0512C239.113 15.9417 241.563 16.8693 243.985 17.8298L245.05 15.1444C242.6 14.1728 240.121 13.2342 237.615 12.3329L236.637 15.0512ZM251.21 20.8248C253.632 21.8723 256.023 22.9498 258.381 24.0524L259.605 21.4356C257.222 20.3213 254.805 19.2323 252.356 18.1733L251.21 20.8248ZM265.447 27.478C267.797 28.6575 270.11 29.8586 272.383 31.0762L273.747 28.5296C271.452 27.3003 269.116 26.0875 266.743 24.8962L265.447 27.478ZM279.293 34.8918C281.598 36.2031 283.858 37.527 286.069 38.8574L287.559 36.382C285.328 35.0399 283.048 33.7041 280.722 32.3808L279.293 34.8918ZM292.707 42.9572C294.977 44.3962 297.19 45.8359 299.34 47.2689L300.942 44.8648C298.774 43.4201 296.543 41.9684 294.253 40.5172L292.707 42.9572ZM305.846 51.7085C308.05 53.2484 310.178 54.7712 312.225 56.2674L313.929 53.9353C311.867 52.4274 309.722 50.8925 307.501 49.3403L305.846 51.7085ZM318.485 60.9459C320.656 62.6042 322.713 64.2129 324.65 65.7571L326.451 63.4984C324.499 61.9423 322.427 60.3211 320.239 58.6501L318.485 60.9459ZM330.754 70.73C333.017 72.6134 335.043 74.345 336.817 75.8869L338.712 73.7067C336.924 72.1528 334.883 70.4077 332.603 68.5097L330.754 70.73ZM342.607 81.0227C343.459 81.7915 344.147 82.415 344.646 82.8594C344.896 83.0814 345.109 83.268 345.278 83.4105C345.409 83.5208 345.615 83.6923 345.804 83.8012L347.248 81.2994C347.321 81.3415 347.314 81.3479 347.138 81.1999C347 81.084 346.812 80.919 346.567 80.7011C346.077 80.2656 345.405 79.6558 344.542 78.8778L342.607 81.0227Z" fill="#F5F8FF"/>
</svg>
