<svg width="16" height="15" viewBox="0 0 16 15" fill="none" xmlns="http://www.w3.org/2000/svg">
<path fill-rule="evenodd" clip-rule="evenodd" d="M9.27102 1.82333C8.69807 0.662408 7.04263 0.662405 6.46969 1.82333L5.11691 4.56434C5.08441 4.6302 5.02158 4.67584 4.94891 4.6864L1.92402 5.12595C0.642872 5.31211 0.13131 6.88652 1.05836 7.79017L3.24719 9.92375C3.29978 9.97501 3.32378 10.0489 3.31136 10.1213L2.79465 13.1339C2.5758 14.4099 3.91508 15.3829 5.06097 14.7805L7.76652 13.3581C7.83152 13.3239 7.90918 13.3239 7.97418 13.3581L10.6797 14.7805C11.8256 15.3829 13.1649 14.4099 12.946 13.1339L12.4293 10.1213C12.4169 10.0489 12.4409 9.97501 12.4935 9.92375L14.6823 7.79017C15.6094 6.88652 15.0978 5.31211 13.8167 5.12595L10.7918 4.6864C10.7191 4.67584 10.6563 4.6302 10.6238 4.56434L9.27102 1.82333Z" fill="#FBBC05"/>
</svg>
