<svg width="59" height="58" viewBox="0 0 59 58" fill="none" xmlns="http://www.w3.org/2000/svg">
<path d="M12.9456 14.4468L6.89966 19.927L8.99159 22.561C9.9232 21.9819 11.7864 20.4712 12.6173 20.4712C14.4805 20.4712 16.1555 25.5196 17.7537 31.0714C19.1889 36.0567 20.6744 48.4446 27.523 48.4446C35.4039 48.4446 51.9714 27.1687 51.9714 17.6995C51.9714 14.2732 51.2916 9.34229 44.4682 9.34229C37.1563 9.34229 33.559 16.3987 32.6744 19.927C33.3108 19.5027 35.0432 19.2198 35.9978 19.2198C39.887 19.2198 39.0564 23.2511 38.526 24.8775C37.9957 26.5038 33.9184 34.423 31.7197 34.423C29.0327 34.423 27.4416 22.7554 26.6638 17.6995C25.886 12.6436 23.8707 9.88579 20.7947 9.88579C18.3339 9.88579 14.5366 12.9264 12.9456 14.4468Z" fill="#3CB9E6"/>
</svg>
