<svg width="610" height="667" viewBox="0 0 610 667" fill="none" xmlns="http://www.w3.org/2000/svg">
<path d="M0.576705 360.636H5.39915L10.0426 369.406H10.2415L14.8849 360.636H19.7074L12.2798 373.801V381H8.00426V373.801L0.576705 360.636ZM25.6808 381.298C24.1362 381.298 22.8005 380.97 21.6737 380.314C20.5534 379.651 19.6883 378.73 19.0785 377.55C18.4686 376.363 18.1637 374.988 18.1637 373.423C18.1637 371.846 18.4686 370.467 19.0785 369.287C19.6883 368.1 20.5534 367.179 21.6737 366.523C22.8005 365.86 24.1362 365.528 25.6808 365.528C27.2253 365.528 28.5576 365.86 29.6779 366.523C30.8048 367.179 31.6732 368.1 32.283 369.287C32.8929 370.467 33.1978 371.846 33.1978 373.423C33.1978 374.988 32.8929 376.363 32.283 377.55C31.6732 378.73 30.8048 379.651 29.6779 380.314C28.5576 380.97 27.2253 381.298 25.6808 381.298ZM25.7006 378.017C26.4033 378.017 26.9899 377.818 27.4606 377.42C27.9312 377.016 28.2859 376.466 28.5245 375.77C28.7698 375.074 28.8924 374.282 28.8924 373.393C28.8924 372.505 28.7698 371.713 28.5245 371.017C28.2859 370.321 27.9312 369.771 27.4606 369.366C26.9899 368.962 26.4033 368.76 25.7006 368.76C24.9914 368.76 24.3948 368.962 23.9109 369.366C23.4336 369.771 23.0723 370.321 22.8271 371.017C22.5884 371.713 22.4691 372.505 22.4691 373.393C22.4691 374.282 22.5884 375.074 22.8271 375.77C23.0723 376.466 23.4336 377.016 23.9109 377.42C24.3948 377.818 24.9914 378.017 25.7006 378.017ZM45.7461 374.497V365.727H49.9819V381H45.9151V378.226H45.756C45.4113 379.121 44.838 379.84 44.0359 380.384C43.2404 380.927 42.2693 381.199 41.1225 381.199C40.1017 381.199 39.2035 380.967 38.4279 380.503C37.6523 380.039 37.0458 379.379 36.6083 378.524C36.1774 377.669 35.9587 376.645 35.9521 375.452V365.727H40.1879V374.696C40.1945 375.598 40.4364 376.31 40.9137 376.834C41.391 377.357 42.0307 377.619 42.8327 377.619C43.3432 377.619 43.8204 377.503 44.2646 377.271C44.7087 377.033 45.0666 376.681 45.3384 376.217C45.6168 375.753 45.7527 375.18 45.7461 374.497Z" fill="white"/>
<path d="M66.223 66V45.6364H70.5284V62.4503H79.2585V66H66.223ZM88.9308 66.2983C87.3862 66.2983 86.0505 65.9702 84.9237 65.3139C83.8034 64.651 82.9383 63.7296 82.3285 62.5497C81.7186 61.3632 81.4137 59.9877 81.4137 58.4233C81.4137 56.8456 81.7186 55.4669 82.3285 54.2869C82.9383 53.1004 83.8034 52.179 84.9237 51.5227C86.0505 50.8598 87.3862 50.5284 88.9308 50.5284C90.4753 50.5284 91.8076 50.8598 92.9279 51.5227C94.0548 52.179 94.9232 53.1004 95.533 54.2869C96.1429 55.4669 96.4478 56.8456 96.4478 58.4233C96.4478 59.9877 96.1429 61.3632 95.533 62.5497C94.9232 63.7296 94.0548 64.651 92.9279 65.3139C91.8076 65.9702 90.4753 66.2983 88.9308 66.2983ZM88.9506 63.017C89.6533 63.017 90.2399 62.8182 90.7106 62.4205C91.1812 62.0161 91.5359 61.4659 91.7745 60.7699C92.0198 60.0739 92.1424 59.2817 92.1424 58.3935C92.1424 57.5052 92.0198 56.7131 91.7745 56.017C91.5359 55.321 91.1812 54.7708 90.7106 54.3665C90.2399 53.9621 89.6533 53.7599 88.9506 53.7599C88.2414 53.7599 87.6448 53.9621 87.1609 54.3665C86.6836 54.7708 86.3223 55.321 86.0771 56.017C85.8384 56.7131 85.7191 57.5052 85.7191 58.3935C85.7191 59.2817 85.8384 60.0739 86.0771 60.7699C86.3223 61.4659 86.6836 62.0161 87.1609 62.4205C87.6448 62.8182 88.2414 63.017 88.9506 63.017ZM101.832 66L97.6758 50.7273H101.961L104.328 60.9886H104.467L106.933 50.7273H111.139L113.645 60.929H113.774L116.1 50.7273H120.376L116.23 66H111.745L109.12 56.3949H108.931L106.306 66H101.832ZM129.213 66.2983C127.642 66.2983 126.29 65.9801 125.156 65.3438C124.029 64.7008 123.161 63.7926 122.551 62.6193C121.941 61.4394 121.636 60.044 121.636 58.4332C121.636 56.8622 121.941 55.4834 122.551 54.2969C123.161 53.1103 124.019 52.1856 125.126 51.5227C126.24 50.8598 127.546 50.5284 129.044 50.5284C130.052 50.5284 130.99 50.6908 131.858 51.0156C132.733 51.3338 133.495 51.8144 134.145 52.4574C134.801 53.1004 135.312 53.9091 135.676 54.8835C136.041 55.8513 136.223 56.9848 136.223 58.2841V59.4474H123.327V56.8224H132.236C132.236 56.2126 132.103 55.6723 131.838 55.2017C131.573 54.7311 131.205 54.3632 130.734 54.098C130.27 53.8262 129.73 53.6903 129.114 53.6903C128.471 53.6903 127.901 53.8395 127.403 54.1378C126.913 54.4295 126.528 54.8239 126.25 55.321C125.972 55.8116 125.829 56.3584 125.822 56.9616V59.4574C125.822 60.2131 125.962 60.866 126.24 61.4162C126.525 61.9664 126.926 62.3906 127.443 62.6889C127.96 62.9872 128.573 63.1364 129.283 63.1364C129.753 63.1364 130.184 63.0701 130.575 62.9375C130.966 62.8049 131.301 62.6061 131.58 62.3409C131.858 62.0758 132.07 61.7509 132.216 61.3665L136.134 61.625C135.935 62.5663 135.527 63.3883 134.911 64.0909C134.301 64.7869 133.512 65.3305 132.544 65.7216C131.583 66.1061 130.473 66.2983 129.213 66.2983ZM138.987 66V50.7273H143.094V53.392H143.253C143.531 52.4441 143.999 51.7282 144.655 51.2443C145.311 50.7538 146.067 50.5085 146.922 50.5085C147.134 50.5085 147.363 50.5218 147.608 50.5483C147.853 50.5748 148.069 50.6113 148.254 50.6577V54.4162C148.055 54.3565 147.78 54.3035 147.429 54.2571C147.078 54.2107 146.756 54.1875 146.464 54.1875C145.841 54.1875 145.285 54.3234 144.794 54.5952C144.31 54.8603 143.926 55.2315 143.641 55.7088C143.362 56.1861 143.223 56.7363 143.223 57.3594V66H138.987ZM174.972 52.7656H170.616C170.537 52.2022 170.375 51.7017 170.129 51.2642C169.884 50.8201 169.569 50.4422 169.185 50.1307C168.8 49.8191 168.356 49.5805 167.852 49.4148C167.355 49.2491 166.815 49.1662 166.232 49.1662C165.178 49.1662 164.259 49.428 163.477 49.9517C162.695 50.4687 162.089 51.2244 161.658 52.2188C161.227 53.2064 161.011 54.4062 161.011 55.8182C161.011 57.2699 161.227 58.4896 161.658 59.4773C162.095 60.465 162.705 61.2107 163.487 61.7145C164.269 62.2183 165.174 62.4702 166.202 62.4702C166.778 62.4702 167.312 62.3939 167.803 62.2415C168.3 62.089 168.741 61.867 169.125 61.5753C169.509 61.277 169.828 60.9157 170.08 60.4915C170.338 60.0672 170.517 59.5833 170.616 59.0398L174.972 59.0597C174.859 59.9943 174.577 60.8958 174.126 61.7642C173.682 62.6259 173.082 63.3982 172.327 64.081C171.578 64.7571 170.683 65.294 169.642 65.6918C168.608 66.0829 167.438 66.2784 166.132 66.2784C164.316 66.2784 162.692 65.8674 161.26 65.0455C159.835 64.2235 158.708 63.0336 157.879 61.4759C157.057 59.9181 156.646 58.0322 156.646 55.8182C156.646 53.5975 157.064 51.7083 157.899 50.1506C158.734 48.5928 159.868 47.4062 161.3 46.5909C162.732 45.7689 164.342 45.358 166.132 45.358C167.312 45.358 168.406 45.5237 169.413 45.8551C170.428 46.1866 171.326 46.6705 172.108 47.3068C172.89 47.9366 173.527 48.7088 174.017 49.6236C174.514 50.5384 174.832 51.5857 174.972 52.7656ZM184.88 66.2983C183.335 66.2983 182 65.9702 180.873 65.3139C179.753 64.651 178.888 63.7296 178.278 62.5497C177.668 61.3632 177.363 59.9877 177.363 58.4233C177.363 56.8456 177.668 55.4669 178.278 54.2869C178.888 53.1004 179.753 52.179 180.873 51.5227C182 50.8598 183.335 50.5284 184.88 50.5284C186.424 50.5284 187.757 50.8598 188.877 51.5227C190.004 52.179 190.872 53.1004 191.482 54.2869C192.092 55.4669 192.397 56.8456 192.397 58.4233C192.397 59.9877 192.092 61.3632 191.482 62.5497C190.872 63.7296 190.004 64.651 188.877 65.3139C187.757 65.9702 186.424 66.2983 184.88 66.2983ZM184.9 63.017C185.603 63.017 186.189 62.8182 186.66 62.4205C187.13 62.0161 187.485 61.4659 187.724 60.7699C187.969 60.0739 188.092 59.2817 188.092 58.3935C188.092 57.5052 187.969 56.7131 187.724 56.017C187.485 55.321 187.13 54.7708 186.66 54.3665C186.189 53.9621 185.603 53.7599 184.9 53.7599C184.191 53.7599 183.594 53.9621 183.11 54.3665C182.633 54.7708 182.272 55.321 182.026 56.017C181.788 56.7131 181.668 57.5052 181.668 58.3935C181.668 59.2817 181.788 60.0739 182.026 60.7699C182.272 61.4659 182.633 62.0161 183.11 62.4205C183.594 62.8182 184.191 63.017 184.9 63.017ZM207.859 55.0824L203.981 55.321C203.915 54.9896 203.772 54.6913 203.553 54.4261C203.335 54.1544 203.046 53.9389 202.688 53.7798C202.337 53.6141 201.916 53.5312 201.425 53.5312C200.769 53.5312 200.216 53.6705 199.765 53.9489C199.314 54.2206 199.089 54.5852 199.089 55.0426C199.089 55.4072 199.235 55.7154 199.526 55.9673C199.818 56.2192 200.318 56.4214 201.028 56.5739L203.792 57.1307C205.277 57.4356 206.384 57.9261 207.113 58.6023C207.842 59.2784 208.207 60.1667 208.207 61.267C208.207 62.268 207.912 63.1463 207.322 63.902C206.738 64.6577 205.936 65.2476 204.915 65.6719C203.901 66.0895 202.731 66.2983 201.406 66.2983C199.384 66.2983 197.773 65.8774 196.573 65.0355C195.38 64.187 194.681 63.0336 194.475 61.5753L198.641 61.3565C198.767 61.973 199.072 62.4437 199.556 62.7685C200.04 63.0866 200.66 63.2457 201.415 63.2457C202.158 63.2457 202.754 63.1032 203.205 62.8182C203.663 62.5265 203.895 62.152 203.901 61.6946C203.895 61.3101 203.732 60.9953 203.414 60.75C203.096 60.4981 202.605 60.3059 201.942 60.1733L199.298 59.6463C197.806 59.348 196.696 58.831 195.967 58.0952C195.244 57.3594 194.883 56.4214 194.883 55.2812C194.883 54.3002 195.148 53.455 195.678 52.7457C196.215 52.0365 196.968 51.4896 197.935 51.1051C198.91 50.7206 200.05 50.5284 201.356 50.5284C203.285 50.5284 204.803 50.9361 205.91 51.7514C207.023 52.5668 207.673 53.6771 207.859 55.0824ZM218.998 50.7273V53.9091H209.8V50.7273H218.998ZM211.888 47.0682H216.124V61.3068C216.124 61.6979 216.184 62.0028 216.303 62.2216C216.422 62.4337 216.588 62.5829 216.8 62.669C217.019 62.7552 217.271 62.7983 217.556 62.7983C217.755 62.7983 217.953 62.7817 218.152 62.7486C218.351 62.7088 218.504 62.679 218.61 62.6591L219.276 65.8111C219.064 65.8774 218.766 65.9536 218.381 66.0398C217.997 66.1326 217.529 66.1889 216.979 66.2088C215.958 66.2486 215.063 66.1127 214.294 65.8011C213.532 65.4896 212.939 65.0057 212.515 64.3494C212.09 63.6932 211.882 62.8646 211.888 61.8636V47.0682ZM93.1566 87.4929C93.0771 86.6908 92.7357 86.0677 92.1325 85.6236C91.5292 85.1794 90.7106 84.9574 89.6765 84.9574C88.9738 84.9574 88.3806 85.0568 87.8967 85.2557C87.4128 85.4479 87.0415 85.7164 86.783 86.0611C86.5311 86.4058 86.4052 86.7969 86.4052 87.2344C86.3919 87.599 86.4682 87.9171 86.6339 88.1889C86.8062 88.4607 87.0415 88.696 87.3398 88.8949C87.6381 89.0871 87.9828 89.2562 88.3739 89.402C88.765 89.5412 89.1826 89.6605 89.6268 89.7599L91.4563 90.1974C92.3446 90.3963 93.1599 90.6615 93.9023 90.9929C94.6448 91.3243 95.2878 91.732 95.8313 92.2159C96.3749 92.6998 96.7958 93.2699 97.0941 93.9261C97.399 94.5824 97.5548 95.3348 97.5614 96.1832C97.5548 97.4295 97.2366 98.5099 96.6069 99.4247C95.9838 100.333 95.0823 101.039 93.9023 101.543C92.729 102.04 91.3138 102.288 89.6566 102.288C88.0127 102.288 86.5808 102.036 85.3612 101.533C84.1481 101.029 83.2002 100.283 82.5174 99.2955C81.8413 98.3011 81.4866 97.0715 81.4535 95.6065H85.6197C85.6661 96.2893 85.8616 96.8594 86.2063 97.3168C86.5576 97.7675 87.025 98.1089 87.6083 98.3409C88.1983 98.5663 88.8645 98.679 89.6069 98.679C90.3361 98.679 90.9691 98.5729 91.506 98.3608C92.0496 98.1487 92.4705 97.8537 92.7688 97.4759C93.0671 97.098 93.2163 96.6638 93.2163 96.1733C93.2163 95.7159 93.0804 95.3314 92.8086 95.0199C92.5434 94.7083 92.1523 94.4432 91.6353 94.2244C91.1249 94.0057 90.4985 93.8068 89.756 93.6278L87.5387 93.071C85.8219 92.6534 84.4663 92.0005 83.4719 91.1122C82.4776 90.224 81.9838 89.0275 81.9904 87.5227C81.9838 86.2898 82.3119 85.2126 82.9748 84.2912C83.6443 83.3698 84.5624 82.6506 85.729 82.1335C86.8957 81.6165 88.2215 81.358 89.7063 81.358C91.2177 81.358 92.5368 81.6165 93.6637 82.1335C94.7972 82.6506 95.6789 83.3698 96.3086 84.2912C96.9383 85.2126 97.2631 86.2798 97.283 87.4929H93.1566ZM108.501 86.7273V89.9091H99.304V86.7273H108.501ZM101.392 83.0682H105.628V97.3068C105.628 97.6979 105.688 98.0028 105.807 98.2216C105.926 98.4337 106.092 98.5829 106.304 98.669C106.523 98.7552 106.775 98.7983 107.06 98.7983C107.259 98.7983 107.457 98.7817 107.656 98.7486C107.855 98.7088 108.008 98.679 108.114 98.6591L108.78 101.811C108.568 101.877 108.269 101.954 107.885 102.04C107.5 102.133 107.033 102.189 106.483 102.209C105.462 102.249 104.567 102.113 103.798 101.801C103.036 101.49 102.443 101.006 102.018 100.349C101.594 99.6932 101.385 98.8646 101.392 97.8636V83.0682ZM111.261 102V86.7273H115.367V89.392H115.526C115.805 88.4441 116.272 87.7282 116.928 87.2443C117.585 86.7538 118.34 86.5085 119.195 86.5085C119.407 86.5085 119.636 86.5218 119.881 86.5483C120.127 86.5748 120.342 86.6113 120.528 86.6577V90.4162C120.329 90.3565 120.054 90.3035 119.702 90.2571C119.351 90.2107 119.03 90.1875 118.738 90.1875C118.115 90.1875 117.558 90.3234 117.067 90.5952C116.584 90.8603 116.199 91.2315 115.914 91.7088C115.636 92.1861 115.496 92.7363 115.496 93.3594V102H111.261ZM132.512 95.4972V86.7273H136.748V102H132.681V99.2259H132.522C132.177 100.121 131.604 100.84 130.801 101.384C130.006 101.927 129.035 102.199 127.888 102.199C126.867 102.199 125.969 101.967 125.194 101.503C124.418 101.039 123.811 100.379 123.374 99.5241C122.943 98.669 122.724 97.6449 122.718 96.4517V86.7273H126.953V95.696C126.96 96.5975 127.202 97.3101 127.679 97.8338C128.157 98.3575 128.796 98.6193 129.598 98.6193C130.109 98.6193 130.586 98.5033 131.03 98.2713C131.474 98.0327 131.832 97.6813 132.104 97.2173C132.382 96.7533 132.518 96.1799 132.512 95.4972ZM147.036 102.298C145.472 102.298 144.126 101.967 142.999 101.304C141.879 100.634 141.017 99.7064 140.414 98.5199C139.817 97.3333 139.519 95.9678 139.519 94.4233C139.519 92.8589 139.821 91.4867 140.424 90.3068C141.034 89.1203 141.899 88.1955 143.019 87.5327C144.139 86.8632 145.472 86.5284 147.016 86.5284C148.349 86.5284 149.515 86.7704 150.516 87.2543C151.517 87.7382 152.309 88.4176 152.893 89.2926C153.476 90.1676 153.798 91.1951 153.857 92.375H149.86C149.747 91.6127 149.449 90.9995 148.965 90.5355C148.488 90.0649 147.862 89.8295 147.086 89.8295C146.43 89.8295 145.856 90.0085 145.366 90.3665C144.882 90.7178 144.504 91.2315 144.232 91.9077C143.96 92.5838 143.825 93.4025 143.825 94.3636C143.825 95.3381 143.957 96.1667 144.222 96.8494C144.494 97.5322 144.875 98.0526 145.366 98.4105C145.856 98.7685 146.43 98.9474 147.086 98.9474C147.57 98.9474 148.004 98.848 148.388 98.6491C148.78 98.4503 149.101 98.1619 149.353 97.7841C149.612 97.3996 149.781 96.9389 149.86 96.402H153.857C153.791 97.5687 153.473 98.5961 152.903 99.4844C152.339 100.366 151.56 101.055 150.566 101.553C149.572 102.05 148.395 102.298 147.036 102.298ZM164.693 86.7273V89.9091H155.495V86.7273H164.693ZM157.583 83.0682H161.819V97.3068C161.819 97.6979 161.879 98.0028 161.998 98.2216C162.118 98.4337 162.283 98.5829 162.495 98.669C162.714 98.7552 162.966 98.7983 163.251 98.7983C163.45 98.7983 163.649 98.7817 163.848 98.7486C164.047 98.7088 164.199 98.679 164.305 98.6591L164.971 101.811C164.759 101.877 164.461 101.954 164.076 102.04C163.692 102.133 163.225 102.189 162.674 102.209C161.654 102.249 160.759 102.113 159.99 101.801C159.227 101.49 158.634 101.006 158.21 100.349C157.786 99.6932 157.577 98.8646 157.583 97.8636V83.0682ZM177.246 95.4972V86.7273H181.482V102H177.415V99.2259H177.256C176.911 100.121 176.338 100.84 175.536 101.384C174.74 101.927 173.769 102.199 172.623 102.199C171.602 102.199 170.703 101.967 169.928 101.503C169.152 101.039 168.546 100.379 168.108 99.5241C167.677 98.669 167.459 97.6449 167.452 96.4517V86.7273H171.688V95.696C171.694 96.5975 171.936 97.3101 172.414 97.8338C172.891 98.3575 173.531 98.6193 174.333 98.6193C174.843 98.6193 175.32 98.5033 175.765 98.2713C176.209 98.0327 176.567 97.6813 176.838 97.2173C177.117 96.7533 177.253 96.1799 177.246 95.4972ZM184.87 102V86.7273H188.977V89.392H189.136C189.414 88.4441 189.881 87.7282 190.538 87.2443C191.194 86.7538 191.95 86.5085 192.805 86.5085C193.017 86.5085 193.246 86.5218 193.491 86.5483C193.736 86.5748 193.951 86.6113 194.137 86.6577V90.4162C193.938 90.3565 193.663 90.3035 193.312 90.2571C192.96 90.2107 192.639 90.1875 192.347 90.1875C191.724 90.1875 191.167 90.3234 190.677 90.5952C190.193 90.8603 189.808 91.2315 189.523 91.7088C189.245 92.1861 189.106 92.7363 189.106 93.3594V102H184.87ZM202.576 102.298C201.005 102.298 199.653 101.98 198.52 101.344C197.393 100.701 196.524 99.7926 195.914 98.6193C195.305 97.4394 195 96.044 195 94.4332C195 92.8622 195.305 91.4834 195.914 90.2969C196.524 89.1103 197.383 88.1856 198.49 87.5227C199.603 86.8598 200.909 86.5284 202.407 86.5284C203.415 86.5284 204.353 86.6908 205.221 87.0156C206.096 87.3338 206.859 87.8144 207.508 88.4574C208.164 89.1004 208.675 89.9091 209.039 90.8835C209.404 91.8513 209.586 92.9848 209.586 94.2841V95.4474H196.69V92.8224H205.599C205.599 92.2126 205.467 91.6723 205.201 91.2017C204.936 90.7311 204.568 90.3632 204.098 90.098C203.634 89.8262 203.093 89.6903 202.477 89.6903C201.834 89.6903 201.264 89.8395 200.767 90.1378C200.276 90.4295 199.892 90.8239 199.613 91.321C199.335 91.8116 199.192 92.3584 199.186 92.9616V95.4574C199.186 96.2131 199.325 96.866 199.603 97.4162C199.888 97.9664 200.289 98.3906 200.806 98.6889C201.324 98.9872 201.937 99.1364 202.646 99.1364C203.117 99.1364 203.547 99.0701 203.939 98.9375C204.33 98.8049 204.664 98.6061 204.943 98.3409C205.221 98.0758 205.433 97.7509 205.579 97.3665L209.497 97.625C209.298 98.5663 208.89 99.3883 208.274 100.091C207.664 100.787 206.875 101.33 205.907 101.722C204.946 102.106 203.836 102.298 202.576 102.298Z" fill="white"/>
<path d="M455.879 66V45.6364H460.185V62.4503H468.915V66H455.879ZM478.587 66.2983C477.042 66.2983 475.707 65.9702 474.58 65.3139C473.46 64.651 472.595 63.7296 471.985 62.5497C471.375 61.3632 471.07 59.9877 471.07 58.4233C471.07 56.8456 471.375 55.4669 471.985 54.2869C472.595 53.1004 473.46 52.179 474.58 51.5227C475.707 50.8598 477.042 50.5284 478.587 50.5284C480.132 50.5284 481.464 50.8598 482.584 51.5227C483.711 52.179 484.579 53.1004 485.189 54.2869C485.799 55.4669 486.104 56.8456 486.104 58.4233C486.104 59.9877 485.799 61.3632 485.189 62.5497C484.579 63.7296 483.711 64.651 482.584 65.3139C481.464 65.9702 480.132 66.2983 478.587 66.2983ZM478.607 63.017C479.31 63.017 479.896 62.8182 480.367 62.4205C480.837 62.0161 481.192 61.4659 481.431 60.7699C481.676 60.0739 481.799 59.2817 481.799 58.3935C481.799 57.5052 481.676 56.7131 481.431 56.017C481.192 55.321 480.837 54.7708 480.367 54.3665C479.896 53.9621 479.31 53.7599 478.607 53.7599C477.898 53.7599 477.301 53.9621 476.817 54.3665C476.34 54.7708 475.979 55.321 475.733 56.017C475.495 56.7131 475.375 57.5052 475.375 58.3935C475.375 59.2817 475.495 60.0739 475.733 60.7699C475.979 61.4659 476.34 62.0161 476.817 62.4205C477.301 62.8182 477.898 63.017 478.607 63.017ZM491.488 66L487.332 50.7273H491.618L493.984 60.9886H494.123L496.589 50.7273H500.795L503.301 60.929H503.43L505.757 50.7273H510.032L505.886 66H501.402L498.777 56.3949H498.588L495.963 66H491.488ZM518.869 66.2983C517.298 66.2983 515.946 65.9801 514.812 65.3438C513.686 64.7008 512.817 63.7926 512.207 62.6193C511.598 61.4394 511.293 60.044 511.293 58.4332C511.293 56.8622 511.598 55.4834 512.207 54.2969C512.817 53.1103 513.676 52.1856 514.783 51.5227C515.896 50.8598 517.202 50.5284 518.7 50.5284C519.708 50.5284 520.646 50.6908 521.514 51.0156C522.389 51.3338 523.152 51.8144 523.801 52.4574C524.457 53.1004 524.968 53.9091 525.332 54.8835C525.697 55.8513 525.879 56.9848 525.879 58.2841V59.4474H512.983V56.8224H521.892C521.892 56.2126 521.759 55.6723 521.494 55.2017C521.229 54.7311 520.861 54.3632 520.391 54.098C519.927 53.8262 519.386 53.6903 518.77 53.6903C518.127 53.6903 517.557 53.8395 517.06 54.1378C516.569 54.4295 516.185 54.8239 515.906 55.321C515.628 55.8116 515.485 56.3584 515.479 56.9616V59.4574C515.479 60.2131 515.618 60.866 515.896 61.4162C516.181 61.9664 516.582 62.3906 517.099 62.6889C517.616 62.9872 518.23 63.1364 518.939 63.1364C519.41 63.1364 519.84 63.0701 520.232 62.9375C520.623 62.8049 520.957 62.6061 521.236 62.3409C521.514 62.0758 521.726 61.7509 521.872 61.3665L525.79 61.625C525.591 62.5663 525.183 63.3883 524.567 64.0909C523.957 64.7869 523.168 65.3305 522.2 65.7216C521.239 66.1061 520.129 66.2983 518.869 66.2983ZM528.643 66V50.7273H532.75V53.392H532.909C533.188 52.4441 533.655 51.7282 534.311 51.2443C534.967 50.7538 535.723 50.5085 536.578 50.5085C536.79 50.5085 537.019 50.5218 537.264 50.5483C537.509 50.5748 537.725 50.6113 537.911 50.6577V54.4162C537.712 54.3565 537.437 54.3035 537.085 54.2571C536.734 54.2107 536.412 54.1875 536.121 54.1875C535.498 54.1875 534.941 54.3234 534.45 54.5952C533.966 54.8603 533.582 55.2315 533.297 55.7088C533.018 56.1861 532.879 56.7363 532.879 57.3594V66H528.643ZM458.217 102V81.6364H466.251C467.796 81.6364 469.112 81.9313 470.199 82.5213C471.286 83.1046 472.114 83.9167 472.684 84.9574C473.261 85.9915 473.55 87.1847 473.55 88.5369C473.55 89.8892 473.258 91.0824 472.675 92.1165C472.091 93.1506 471.246 93.956 470.139 94.5327C469.039 95.1094 467.706 95.3977 466.142 95.3977H461.021V91.9474H465.446C466.274 91.9474 466.957 91.8049 467.494 91.5199C468.038 91.2282 468.442 90.8272 468.707 90.3168C468.979 89.7997 469.115 89.2064 469.115 88.5369C469.115 87.8608 468.979 87.2708 468.707 86.767C468.442 86.2566 468.038 85.8622 467.494 85.5838C466.951 85.2988 466.261 85.1562 465.426 85.1562H462.523V102H458.217ZM476.267 102V86.7273H480.373V89.392H480.532C480.811 88.4441 481.278 87.7282 481.934 87.2443C482.59 86.7538 483.346 86.5085 484.201 86.5085C484.413 86.5085 484.642 86.5218 484.887 86.5483C485.133 86.5748 485.348 86.6113 485.534 86.6577V90.4162C485.335 90.3565 485.06 90.3035 484.708 90.2571C484.357 90.2107 484.035 90.1875 483.744 90.1875C483.121 90.1875 482.564 90.3234 482.073 90.5952C481.589 90.8603 481.205 91.2315 480.92 91.7088C480.642 92.1861 480.502 92.7363 480.502 93.3594V102H476.267ZM487.724 102V86.7273H491.959V102H487.724ZM489.851 84.7585C489.222 84.7585 488.681 84.5497 488.231 84.1321C487.787 83.7079 487.564 83.2008 487.564 82.6108C487.564 82.0275 487.787 81.527 488.231 81.1094C488.681 80.6851 489.222 80.473 489.851 80.473C490.481 80.473 491.018 80.6851 491.462 81.1094C491.913 81.527 492.138 82.0275 492.138 82.6108C492.138 83.2008 491.913 83.7079 491.462 84.1321C491.018 84.5497 490.481 84.7585 489.851 84.7585ZM502.253 102.298C500.689 102.298 499.343 101.967 498.216 101.304C497.096 100.634 496.234 99.7064 495.631 98.5199C495.034 97.3333 494.736 95.9678 494.736 94.4233C494.736 92.8589 495.038 91.4867 495.641 90.3068C496.251 89.1203 497.116 88.1955 498.236 87.5327C499.356 86.8632 500.689 86.5284 502.233 86.5284C503.566 86.5284 504.732 86.7704 505.733 87.2543C506.734 87.7382 507.526 88.4176 508.11 89.2926C508.693 90.1676 509.014 91.1951 509.074 92.375H505.077C504.964 91.6127 504.666 90.9995 504.182 90.5355C503.705 90.0649 503.078 89.8295 502.303 89.8295C501.646 89.8295 501.073 90.0085 500.583 90.3665C500.099 90.7178 499.721 91.2315 499.449 91.9077C499.177 92.5838 499.041 93.4025 499.041 94.3636C499.041 95.3381 499.174 96.1667 499.439 96.8494C499.711 97.5322 500.092 98.0526 500.583 98.4105C501.073 98.7685 501.646 98.9474 502.303 98.9474C502.787 98.9474 503.221 98.848 503.605 98.6491C503.996 98.4503 504.318 98.1619 504.57 97.7841C504.828 97.3996 504.997 96.9389 505.077 96.402H509.074C509.008 97.5687 508.69 98.5961 508.119 99.4844C507.556 100.366 506.777 101.055 505.783 101.553C504.789 102.05 503.612 102.298 502.253 102.298ZM518.746 102.298C517.175 102.298 515.823 101.98 514.689 101.344C513.563 100.701 512.694 99.7926 512.084 98.6193C511.474 97.4394 511.17 96.044 511.17 94.4332C511.17 92.8622 511.474 91.4834 512.084 90.2969C512.694 89.1103 513.553 88.1856 514.66 87.5227C515.773 86.8598 517.079 86.5284 518.577 86.5284C519.585 86.5284 520.523 86.6908 521.391 87.0156C522.266 87.3338 523.028 87.8144 523.678 88.4574C524.334 89.1004 524.845 89.9091 525.209 90.8835C525.574 91.8513 525.756 92.9848 525.756 94.2841V95.4474H512.86V92.8224H521.769C521.769 92.2126 521.636 91.6723 521.371 91.2017C521.106 90.7311 520.738 90.3632 520.268 90.098C519.804 89.8262 519.263 89.6903 518.647 89.6903C518.004 89.6903 517.434 89.8395 516.937 90.1378C516.446 90.4295 516.062 90.8239 515.783 91.321C515.505 91.8116 515.362 92.3584 515.356 92.9616V95.4574C515.356 96.2131 515.495 96.866 515.773 97.4162C516.058 97.9664 516.459 98.3906 516.976 98.6889C517.493 98.9872 518.107 99.1364 518.816 99.1364C519.287 99.1364 519.717 99.0701 520.108 98.9375C520.5 98.8049 520.834 98.6061 521.113 98.3409C521.391 98.0758 521.603 97.7509 521.749 97.3665L525.667 97.625C525.468 98.5663 525.06 99.3883 524.444 100.091C523.834 100.787 523.045 101.33 522.077 101.722C521.116 102.106 520.006 102.298 518.746 102.298ZM541.228 91.0824L537.35 91.321C537.284 90.9896 537.141 90.6913 536.922 90.4261C536.704 90.1544 536.415 89.9389 536.057 89.7798C535.706 89.6141 535.285 89.5312 534.795 89.5312C534.138 89.5312 533.585 89.6705 533.134 89.9489C532.683 90.2206 532.458 90.5852 532.458 91.0426C532.458 91.4072 532.604 91.7154 532.895 91.9673C533.187 92.2192 533.688 92.4214 534.397 92.5739L537.161 93.1307C538.646 93.4356 539.753 93.9261 540.482 94.6023C541.211 95.2784 541.576 96.1667 541.576 97.267C541.576 98.268 541.281 99.1463 540.691 99.902C540.108 100.658 539.305 101.248 538.285 101.672C537.27 102.089 536.1 102.298 534.775 102.298C532.753 102.298 531.142 101.877 529.942 101.036C528.749 100.187 528.05 99.0336 527.844 97.5753L532.01 97.3565C532.136 97.973 532.441 98.4437 532.925 98.7685C533.409 99.0866 534.029 99.2457 534.785 99.2457C535.527 99.2457 536.124 99.1032 536.574 98.8182C537.032 98.5265 537.264 98.152 537.27 97.6946C537.264 97.3101 537.101 96.9953 536.783 96.75C536.465 96.4981 535.974 96.3059 535.312 96.1733L532.667 95.6463C531.175 95.348 530.065 94.831 529.336 94.0952C528.613 93.3594 528.252 92.4214 528.252 91.2812C528.252 90.3002 528.517 89.455 529.047 88.7457C529.584 88.0365 530.337 87.4896 531.305 87.1051C532.279 86.7206 533.419 86.5284 534.725 86.5284C536.654 86.5284 538.172 86.9361 539.279 87.7514C540.393 88.5668 541.042 89.6771 541.228 91.0824Z" fill="white"/>
<path d="M243.346 219V192.818H253.675C255.661 192.818 257.353 193.197 258.751 193.956C260.148 194.706 261.214 195.75 261.947 197.088C262.688 198.418 263.059 199.952 263.059 201.69C263.059 203.429 262.684 204.963 261.934 206.293C261.184 207.622 260.097 208.658 258.674 209.399C257.259 210.141 255.546 210.511 253.535 210.511H246.951V206.075H252.64C253.705 206.075 254.583 205.892 255.273 205.526C255.972 205.151 256.492 204.635 256.833 203.979C257.183 203.314 257.357 202.551 257.357 201.69C257.357 200.821 257.183 200.062 256.833 199.415C256.492 198.759 255.972 198.251 255.273 197.893C254.575 197.527 253.688 197.344 252.614 197.344H248.881V219H243.346ZM266.552 219V199.364H271.832V202.79H272.037C272.395 201.571 272.995 200.651 273.839 200.028C274.683 199.398 275.654 199.082 276.754 199.082C277.027 199.082 277.321 199.099 277.636 199.134C277.951 199.168 278.228 199.214 278.467 199.274V204.107C278.211 204.03 277.858 203.962 277.406 203.902C276.954 203.842 276.541 203.812 276.166 203.812C275.365 203.812 274.649 203.987 274.018 204.337C273.396 204.678 272.902 205.155 272.535 205.768C272.177 206.382 271.998 207.089 271.998 207.891V219H266.552ZM289.241 219.384C287.255 219.384 285.538 218.962 284.089 218.118C282.648 217.266 281.536 216.081 280.752 214.564C279.968 213.038 279.576 211.27 279.576 209.259C279.576 207.23 279.968 205.457 280.752 203.94C281.536 202.415 282.648 201.23 284.089 200.386C285.538 199.534 287.255 199.108 289.241 199.108C291.227 199.108 292.94 199.534 294.38 200.386C295.829 201.23 296.945 202.415 297.729 203.94C298.513 205.457 298.906 207.23 298.906 209.259C298.906 211.27 298.513 213.038 297.729 214.564C296.945 216.081 295.829 217.266 294.38 218.118C292.94 218.962 291.227 219.384 289.241 219.384ZM289.266 215.165C290.17 215.165 290.924 214.909 291.529 214.398C292.134 213.878 292.59 213.17 292.897 212.276C293.212 211.381 293.37 210.362 293.37 209.22C293.37 208.078 293.212 207.06 292.897 206.165C292.59 205.27 292.134 204.562 291.529 204.043C290.924 203.523 290.17 203.263 289.266 203.263C288.354 203.263 287.587 203.523 286.965 204.043C286.352 204.562 285.887 205.27 285.572 206.165C285.265 207.06 285.112 208.078 285.112 209.22C285.112 210.362 285.265 211.381 285.572 212.276C285.887 213.17 286.352 213.878 286.965 214.398C287.587 214.909 288.354 215.165 289.266 215.165ZM313.006 199.364V203.455H300.887V199.364H313.006ZM303.661 219V197.945C303.661 196.521 303.938 195.341 304.492 194.403C305.055 193.466 305.822 192.763 306.793 192.294C307.765 191.825 308.869 191.591 310.104 191.591C310.94 191.591 311.702 191.655 312.393 191.783C313.092 191.911 313.612 192.026 313.952 192.128L312.981 196.219C312.768 196.151 312.504 196.087 312.188 196.027C311.881 195.967 311.566 195.938 311.242 195.938C310.441 195.938 309.883 196.125 309.567 196.5C309.252 196.866 309.094 197.382 309.094 198.047V219H303.661ZM316.333 219V199.364H321.779V219H316.333ZM319.069 196.832C318.26 196.832 317.565 196.564 316.985 196.027C316.414 195.482 316.129 194.83 316.129 194.071C316.129 193.321 316.414 192.678 316.985 192.141C317.565 191.595 318.26 191.322 319.069 191.322C319.879 191.322 320.569 191.595 321.14 192.141C321.72 192.678 322.01 193.321 322.01 194.071C322.01 194.83 321.72 195.482 321.14 196.027C320.569 196.564 319.879 196.832 319.069 196.832ZM336.587 199.364V203.455H324.761V199.364H336.587ZM327.446 194.659H332.892V212.966C332.892 213.469 332.969 213.861 333.122 214.142C333.276 214.415 333.489 214.607 333.761 214.717C334.043 214.828 334.366 214.884 334.733 214.884C334.989 214.884 335.244 214.862 335.5 214.82C335.756 214.768 335.952 214.73 336.088 214.705L336.945 218.757C336.672 218.842 336.288 218.94 335.794 219.051C335.3 219.17 334.699 219.243 333.991 219.268C332.679 219.32 331.528 219.145 330.54 218.744C329.56 218.344 328.797 217.722 328.251 216.878C327.706 216.034 327.438 214.969 327.446 213.682V194.659ZM356.226 204.963L351.24 205.27C351.155 204.844 350.972 204.46 350.691 204.119C350.409 203.77 350.039 203.493 349.578 203.288C349.127 203.075 348.586 202.969 347.955 202.969C347.111 202.969 346.4 203.148 345.82 203.506C345.24 203.855 344.951 204.324 344.951 204.912C344.951 205.381 345.138 205.777 345.513 206.101C345.888 206.425 346.532 206.685 347.444 206.881L350.998 207.597C352.907 207.989 354.33 208.619 355.267 209.489C356.205 210.358 356.674 211.5 356.674 212.915C356.674 214.202 356.294 215.331 355.536 216.303C354.786 217.274 353.755 218.033 352.442 218.578C351.138 219.115 349.634 219.384 347.929 219.384C345.33 219.384 343.259 218.842 341.716 217.76C340.182 216.669 339.283 215.186 339.019 213.311L344.375 213.03C344.537 213.822 344.929 214.428 345.551 214.845C346.174 215.254 346.971 215.459 347.942 215.459C348.897 215.459 349.664 215.276 350.243 214.909C350.831 214.534 351.13 214.053 351.138 213.464C351.13 212.97 350.921 212.565 350.512 212.25C350.103 211.926 349.472 211.679 348.62 211.509L345.219 210.831C343.301 210.447 341.874 209.783 340.936 208.837C340.007 207.891 339.543 206.685 339.543 205.219C339.543 203.957 339.884 202.871 340.566 201.959C341.256 201.047 342.223 200.344 343.468 199.849C344.721 199.355 346.186 199.108 347.865 199.108C350.346 199.108 352.297 199.632 353.721 200.68C355.152 201.729 355.988 203.156 356.226 204.963Z" fill="white"/>
<path d="M228.313 658V631.818H233.848V653.436H245.073V658H228.313ZM257.585 658.384C255.565 658.384 253.827 657.974 252.369 657.156C250.92 656.33 249.804 655.162 249.02 653.653C248.236 652.136 247.844 650.342 247.844 648.271C247.844 646.251 248.236 644.479 249.02 642.953C249.804 641.428 250.907 640.239 252.331 639.386C253.763 638.534 255.442 638.108 257.368 638.108C258.663 638.108 259.869 638.317 260.986 638.734C262.111 639.143 263.091 639.761 263.926 640.588C264.77 641.415 265.426 642.455 265.895 643.707C266.363 644.952 266.598 646.409 266.598 648.08V649.575H250.017V646.2H261.471C261.471 645.416 261.301 644.722 260.96 644.116C260.619 643.511 260.146 643.038 259.541 642.697C258.944 642.348 258.25 642.173 257.457 642.173C256.631 642.173 255.898 642.365 255.258 642.749C254.628 643.124 254.133 643.631 253.775 644.27C253.417 644.901 253.234 645.604 253.226 646.379V649.588C253.226 650.56 253.405 651.399 253.763 652.107C254.129 652.814 254.645 653.359 255.309 653.743C255.974 654.126 256.763 654.318 257.675 654.318C258.28 654.318 258.834 654.233 259.336 654.062C259.839 653.892 260.27 653.636 260.628 653.295C260.986 652.955 261.258 652.537 261.446 652.043L266.483 652.375C266.227 653.585 265.703 654.642 264.91 655.545C264.126 656.44 263.112 657.139 261.868 657.642C260.632 658.136 259.204 658.384 257.585 658.384ZM275.751 658.371C274.498 658.371 273.382 658.153 272.402 657.719C271.422 657.276 270.646 656.624 270.075 655.763C269.513 654.893 269.231 653.811 269.231 652.516C269.231 651.425 269.432 650.509 269.832 649.767C270.233 649.026 270.778 648.429 271.469 647.977C272.159 647.526 272.943 647.185 273.821 646.955C274.707 646.724 275.636 646.562 276.608 646.469C277.75 646.349 278.67 646.239 279.369 646.136C280.068 646.026 280.575 645.864 280.89 645.651C281.206 645.437 281.363 645.122 281.363 644.705V644.628C281.363 643.818 281.108 643.192 280.596 642.749C280.094 642.305 279.378 642.084 278.449 642.084C277.469 642.084 276.689 642.301 276.109 642.736C275.53 643.162 275.146 643.699 274.959 644.347L269.922 643.938C270.177 642.744 270.68 641.713 271.43 640.844C272.18 639.966 273.148 639.293 274.332 638.824C275.525 638.347 276.906 638.108 278.474 638.108C279.565 638.108 280.609 638.236 281.606 638.491C282.612 638.747 283.503 639.143 284.278 639.68C285.062 640.217 285.68 640.908 286.132 641.751C286.584 642.587 286.809 643.588 286.809 644.756V658H281.645V655.277H281.491C281.176 655.891 280.754 656.432 280.226 656.901C279.697 657.361 279.062 657.723 278.321 657.987C277.579 658.243 276.723 658.371 275.751 658.371ZM277.311 654.612C278.112 654.612 278.819 654.455 279.433 654.139C280.047 653.815 280.528 653.381 280.878 652.835C281.227 652.29 281.402 651.672 281.402 650.982V648.898C281.231 649.009 280.997 649.111 280.699 649.205C280.409 649.29 280.081 649.371 279.714 649.447C279.348 649.516 278.981 649.58 278.615 649.639C278.248 649.69 277.916 649.737 277.618 649.78C276.979 649.874 276.42 650.023 275.943 650.227C275.466 650.432 275.095 650.709 274.831 651.058C274.567 651.399 274.434 651.825 274.434 652.337C274.434 653.078 274.703 653.645 275.24 654.037C275.785 654.42 276.476 654.612 277.311 654.612ZM298.27 658.32C296.779 658.32 295.428 657.936 294.218 657.169C293.016 656.393 292.062 655.256 291.354 653.756C290.655 652.247 290.306 650.398 290.306 648.207C290.306 645.957 290.668 644.087 291.393 642.595C292.117 641.095 293.08 639.974 294.282 639.233C295.492 638.483 296.817 638.108 298.258 638.108C299.357 638.108 300.273 638.295 301.006 638.67C301.748 639.037 302.344 639.497 302.796 640.051C303.256 640.597 303.606 641.134 303.844 641.662H304.01V631.818H309.444V658H304.074V654.855H303.844C303.589 655.401 303.226 655.942 302.758 656.479C302.297 657.007 301.697 657.446 300.955 657.795C300.222 658.145 299.327 658.32 298.27 658.32ZM299.996 653.986C300.874 653.986 301.616 653.747 302.221 653.27C302.834 652.784 303.303 652.107 303.627 651.237C303.959 650.368 304.126 649.349 304.126 648.182C304.126 647.014 303.964 646 303.64 645.139C303.316 644.278 302.847 643.614 302.233 643.145C301.62 642.676 300.874 642.442 299.996 642.442C299.101 642.442 298.347 642.685 297.733 643.17C297.12 643.656 296.655 644.33 296.34 645.19C296.025 646.051 295.867 647.048 295.867 648.182C295.867 649.324 296.025 650.334 296.34 651.212C296.664 652.081 297.128 652.763 297.733 653.257C298.347 653.743 299.101 653.986 299.996 653.986ZM330.259 643.963L325.274 644.27C325.188 643.844 325.005 643.46 324.724 643.119C324.443 642.77 324.072 642.493 323.612 642.288C323.16 642.075 322.619 641.969 321.988 641.969C321.144 641.969 320.433 642.148 319.853 642.506C319.274 642.855 318.984 643.324 318.984 643.912C318.984 644.381 319.171 644.777 319.546 645.101C319.921 645.425 320.565 645.685 321.477 645.881L325.031 646.597C326.94 646.989 328.363 647.619 329.301 648.489C330.238 649.358 330.707 650.5 330.707 651.915C330.707 653.202 330.328 654.331 329.569 655.303C328.819 656.274 327.788 657.033 326.475 657.578C325.171 658.115 323.667 658.384 321.963 658.384C319.363 658.384 317.292 657.842 315.749 656.76C314.215 655.669 313.316 654.186 313.052 652.311L318.409 652.03C318.57 652.822 318.963 653.428 319.585 653.845C320.207 654.254 321.004 654.459 321.975 654.459C322.93 654.459 323.697 654.276 324.276 653.909C324.865 653.534 325.163 653.053 325.171 652.464C325.163 651.97 324.954 651.565 324.545 651.25C324.136 650.926 323.505 650.679 322.653 650.509L319.252 649.831C317.335 649.447 315.907 648.783 314.97 647.837C314.041 646.891 313.576 645.685 313.576 644.219C313.576 642.957 313.917 641.871 314.599 640.959C315.289 640.047 316.257 639.344 317.501 638.849C318.754 638.355 320.22 638.108 321.899 638.108C324.379 638.108 326.33 638.632 327.754 639.68C329.186 640.729 330.021 642.156 330.259 643.963Z" fill="white"/>
<path d="M475.329 332.766H470.974C470.894 332.202 470.732 331.702 470.487 331.264C470.241 330.82 469.927 330.442 469.542 330.131C469.158 329.819 468.713 329.58 468.21 329.415C467.713 329.249 467.172 329.166 466.589 329.166C465.535 329.166 464.617 329.428 463.835 329.952C463.052 330.469 462.446 331.224 462.015 332.219C461.584 333.206 461.369 334.406 461.369 335.818C461.369 337.27 461.584 338.49 462.015 339.477C462.453 340.465 463.062 341.211 463.845 341.714C464.627 342.218 465.532 342.47 466.559 342.47C467.136 342.47 467.669 342.394 468.16 342.241C468.657 342.089 469.098 341.867 469.482 341.575C469.867 341.277 470.185 340.916 470.437 340.491C470.695 340.067 470.874 339.583 470.974 339.04L475.329 339.06C475.216 339.994 474.935 340.896 474.484 341.764C474.04 342.626 473.44 343.398 472.684 344.081C471.935 344.757 471.04 345.294 469.999 345.692C468.965 346.083 467.795 346.278 466.49 346.278C464.673 346.278 463.049 345.867 461.617 345.045C460.192 344.223 459.065 343.034 458.237 341.476C457.415 339.918 457.004 338.032 457.004 335.818C457.004 333.598 457.421 331.708 458.257 330.151C459.092 328.593 460.225 327.406 461.657 326.591C463.089 325.769 464.7 325.358 466.49 325.358C467.669 325.358 468.763 325.524 469.771 325.855C470.785 326.187 471.683 326.67 472.465 327.307C473.248 327.937 473.884 328.709 474.374 329.624C474.872 330.538 475.19 331.586 475.329 332.766ZM488.131 339.497V330.727H492.367V346H488.3V343.226H488.141C487.796 344.121 487.223 344.84 486.421 345.384C485.625 345.927 484.654 346.199 483.507 346.199C482.486 346.199 481.588 345.967 480.813 345.503C480.037 345.039 479.431 344.379 478.993 343.524C478.562 342.669 478.343 341.645 478.337 340.452V330.727H482.573V339.696C482.579 340.598 482.821 341.31 483.298 341.834C483.776 342.357 484.415 342.619 485.218 342.619C485.728 342.619 486.205 342.503 486.649 342.271C487.093 342.033 487.451 341.681 487.723 341.217C488.002 340.753 488.137 340.18 488.131 339.497ZM508.462 335.082L504.584 335.321C504.518 334.99 504.376 334.691 504.157 334.426C503.938 334.154 503.65 333.939 503.292 333.78C502.94 333.614 502.519 333.531 502.029 333.531C501.373 333.531 500.819 333.67 500.368 333.949C499.918 334.221 499.692 334.585 499.692 335.043C499.692 335.407 499.838 335.715 500.13 335.967C500.421 336.219 500.922 336.421 501.631 336.574L504.395 337.131C505.88 337.436 506.987 337.926 507.716 338.602C508.446 339.278 508.81 340.167 508.81 341.267C508.81 342.268 508.515 343.146 507.925 343.902C507.342 344.658 506.54 345.248 505.519 345.672C504.505 346.089 503.335 346.298 502.009 346.298C499.987 346.298 498.376 345.877 497.177 345.036C495.983 344.187 495.284 343.034 495.079 341.575L499.245 341.357C499.371 341.973 499.676 342.444 500.16 342.768C500.644 343.087 501.263 343.246 502.019 343.246C502.761 343.246 503.358 343.103 503.809 342.818C504.266 342.527 504.498 342.152 504.505 341.695C504.498 341.31 504.336 340.995 504.018 340.75C503.699 340.498 503.209 340.306 502.546 340.173L499.901 339.646C498.41 339.348 497.299 338.831 496.57 338.095C495.848 337.359 495.486 336.421 495.486 335.281C495.486 334.3 495.751 333.455 496.282 332.746C496.819 332.036 497.571 331.49 498.539 331.105C499.513 330.721 500.653 330.528 501.959 330.528C503.888 330.528 505.406 330.936 506.513 331.751C507.627 332.567 508.277 333.677 508.462 335.082ZM519.601 330.727V333.909H510.404V330.727H519.601ZM512.492 327.068H516.727V341.307C516.727 341.698 516.787 342.003 516.906 342.222C517.026 342.434 517.191 342.583 517.404 342.669C517.622 342.755 517.874 342.798 518.159 342.798C518.358 342.798 518.557 342.782 518.756 342.749C518.955 342.709 519.107 342.679 519.213 342.659L519.879 345.811C519.667 345.877 519.369 345.954 518.985 346.04C518.6 346.133 518.133 346.189 517.583 346.209C516.562 346.249 515.667 346.113 514.898 345.801C514.136 345.49 513.542 345.006 513.118 344.349C512.694 343.693 512.485 342.865 512.492 341.864V327.068ZM529.097 346.298C527.552 346.298 526.217 345.97 525.09 345.314C523.969 344.651 523.104 343.73 522.494 342.55C521.885 341.363 521.58 339.988 521.58 338.423C521.58 336.846 521.885 335.467 522.494 334.287C523.104 333.1 523.969 332.179 525.09 331.523C526.217 330.86 527.552 330.528 529.097 330.528C530.641 330.528 531.974 330.86 533.094 331.523C534.221 332.179 535.089 333.1 535.699 334.287C536.309 335.467 536.614 336.846 536.614 338.423C536.614 339.988 536.309 341.363 535.699 342.55C535.089 343.73 534.221 344.651 533.094 345.314C531.974 345.97 530.641 346.298 529.097 346.298ZM529.117 343.017C529.819 343.017 530.406 342.818 530.877 342.42C531.347 342.016 531.702 341.466 531.941 340.77C532.186 340.074 532.308 339.282 532.308 338.393C532.308 337.505 532.186 336.713 531.941 336.017C531.702 335.321 531.347 334.771 530.877 334.366C530.406 333.962 529.819 333.76 529.117 333.76C528.407 333.76 527.811 333.962 527.327 334.366C526.85 334.771 526.488 335.321 526.243 336.017C526.004 336.713 525.885 337.505 525.885 338.393C525.885 339.282 526.004 340.074 526.243 340.77C526.488 341.466 526.85 342.016 527.327 342.42C527.811 342.818 528.407 343.017 529.117 343.017ZM539.368 346V330.727H543.405V333.422H543.584C543.902 332.527 544.432 331.821 545.175 331.304C545.917 330.787 546.806 330.528 547.84 330.528C548.887 330.528 549.779 330.79 550.514 331.314C551.25 331.831 551.741 332.534 551.986 333.422H552.145C552.457 332.547 553.02 331.848 553.835 331.324C554.657 330.794 555.628 330.528 556.749 330.528C558.174 330.528 559.331 330.982 560.219 331.891C561.114 332.792 561.561 334.071 561.561 335.729V346H557.335V336.564C557.335 335.715 557.11 335.079 556.659 334.655C556.209 334.231 555.645 334.018 554.969 334.018C554.2 334.018 553.6 334.264 553.169 334.754C552.738 335.238 552.523 335.878 552.523 336.673V346H548.416V336.474C548.416 335.725 548.201 335.129 547.77 334.685C547.346 334.241 546.786 334.018 546.09 334.018C545.619 334.018 545.195 334.138 544.817 334.376C544.446 334.608 544.151 334.937 543.932 335.361C543.713 335.778 543.604 336.269 543.604 336.832V346H539.368ZM571.867 346.298C570.296 346.298 568.944 345.98 567.811 345.344C566.684 344.701 565.815 343.793 565.205 342.619C564.596 341.439 564.291 340.044 564.291 338.433C564.291 336.862 564.596 335.483 565.205 334.297C565.815 333.11 566.674 332.186 567.781 331.523C568.894 330.86 570.2 330.528 571.698 330.528C572.706 330.528 573.644 330.691 574.512 331.016C575.387 331.334 576.15 331.814 576.799 332.457C577.455 333.1 577.966 333.909 578.33 334.884C578.695 335.851 578.877 336.985 578.877 338.284V339.447H565.981V336.822H574.89C574.89 336.213 574.758 335.672 574.492 335.202C574.227 334.731 573.859 334.363 573.389 334.098C572.925 333.826 572.384 333.69 571.768 333.69C571.125 333.69 570.555 333.839 570.058 334.138C569.567 334.429 569.183 334.824 568.904 335.321C568.626 335.812 568.483 336.358 568.477 336.962V339.457C568.477 340.213 568.616 340.866 568.894 341.416C569.179 341.966 569.58 342.391 570.097 342.689C570.615 342.987 571.228 343.136 571.937 343.136C572.408 343.136 572.838 343.07 573.23 342.938C573.621 342.805 573.955 342.606 574.234 342.341C574.512 342.076 574.724 341.751 574.87 341.366L578.788 341.625C578.589 342.566 578.181 343.388 577.565 344.091C576.955 344.787 576.166 345.33 575.198 345.722C574.237 346.106 573.127 346.298 571.867 346.298ZM581.642 346V330.727H585.748V333.392H585.907C586.186 332.444 586.653 331.728 587.309 331.244C587.965 330.754 588.721 330.509 589.576 330.509C589.788 330.509 590.017 330.522 590.262 330.548C590.508 330.575 590.723 330.611 590.909 330.658V334.416C590.71 334.357 590.435 334.304 590.083 334.257C589.732 334.211 589.41 334.188 589.119 334.188C588.496 334.188 587.939 334.323 587.448 334.595C586.964 334.86 586.58 335.232 586.295 335.709C586.017 336.186 585.877 336.736 585.877 337.359V346H581.642ZM448.229 382V361.636H461.95V365.186H452.534V370.038H461.244V373.588H452.534V378.45H461.99V382H448.229ZM468.834 366.727L471.638 372.067L474.511 366.727H478.856L474.432 374.364L478.976 382H474.65L471.638 376.72L468.675 382H464.3L468.834 374.364L464.459 366.727H468.834ZM481.372 387.727V366.727H485.548V369.293H485.737C485.923 368.882 486.191 368.464 486.542 368.04C486.9 367.609 487.364 367.251 487.934 366.966C488.511 366.674 489.227 366.528 490.082 366.528C491.196 366.528 492.223 366.82 493.165 367.403C494.106 367.98 494.858 368.852 495.422 370.018C495.985 371.179 496.267 372.634 496.267 374.384C496.267 376.087 495.992 377.526 495.442 378.699C494.898 379.866 494.156 380.75 493.214 381.354C492.28 381.95 491.232 382.249 490.072 382.249C489.25 382.249 488.551 382.113 487.974 381.841C487.404 381.569 486.937 381.228 486.572 380.817C486.208 380.399 485.929 379.978 485.737 379.554H485.608V387.727H481.372ZM485.518 374.364C485.518 375.272 485.644 376.064 485.896 376.74C486.148 377.416 486.513 377.943 486.99 378.321C487.467 378.692 488.047 378.878 488.73 378.878C489.419 378.878 490.003 378.689 490.48 378.311C490.957 377.927 491.318 377.396 491.564 376.72C491.816 376.037 491.942 375.252 491.942 374.364C491.942 373.482 491.819 372.706 491.574 372.037C491.328 371.367 490.967 370.844 490.49 370.466C490.013 370.088 489.426 369.899 488.73 369.899C488.041 369.899 487.457 370.081 486.98 370.446C486.509 370.811 486.148 371.328 485.896 371.997C485.644 372.667 485.518 373.455 485.518 374.364ZM506.051 382.298C504.48 382.298 503.128 381.98 501.994 381.344C500.867 380.701 499.999 379.793 499.389 378.619C498.779 377.439 498.474 376.044 498.474 374.433C498.474 372.862 498.779 371.483 499.389 370.297C499.999 369.11 500.857 368.186 501.964 367.523C503.078 366.86 504.384 366.528 505.882 366.528C506.89 366.528 507.827 366.691 508.696 367.016C509.571 367.334 510.333 367.814 510.983 368.457C511.639 369.1 512.149 369.909 512.514 370.884C512.879 371.851 513.061 372.985 513.061 374.284V375.447H500.165V372.822H509.074C509.074 372.213 508.941 371.672 508.676 371.202C508.411 370.731 508.043 370.363 507.572 370.098C507.108 369.826 506.568 369.69 505.952 369.69C505.309 369.69 504.738 369.839 504.241 370.138C503.751 370.429 503.366 370.824 503.088 371.321C502.809 371.812 502.667 372.358 502.66 372.962V375.457C502.66 376.213 502.8 376.866 503.078 377.416C503.363 377.966 503.764 378.391 504.281 378.689C504.798 378.987 505.411 379.136 506.121 379.136C506.591 379.136 507.022 379.07 507.413 378.938C507.804 378.805 508.139 378.606 508.417 378.341C508.696 378.076 508.908 377.751 509.054 377.366L512.971 377.625C512.773 378.566 512.365 379.388 511.748 380.091C511.139 380.787 510.35 381.33 509.382 381.722C508.421 382.106 507.31 382.298 506.051 382.298ZM515.825 382V366.727H519.932V369.392H520.091C520.369 368.444 520.836 367.728 521.493 367.244C522.149 366.754 522.905 366.509 523.76 366.509C523.972 366.509 524.201 366.522 524.446 366.548C524.691 366.575 524.907 366.611 525.092 366.658V370.416C524.893 370.357 524.618 370.304 524.267 370.257C523.916 370.211 523.594 370.188 523.302 370.188C522.679 370.188 522.122 370.323 521.632 370.595C521.148 370.86 520.764 371.232 520.479 371.709C520.2 372.186 520.061 372.736 520.061 373.359V382H515.825ZM527.282 382V366.727H531.518V382H527.282ZM529.41 364.759C528.78 364.759 528.24 364.55 527.789 364.132C527.345 363.708 527.123 363.201 527.123 362.611C527.123 362.027 527.345 361.527 527.789 361.109C528.24 360.685 528.78 360.473 529.41 360.473C530.04 360.473 530.577 360.685 531.021 361.109C531.472 361.527 531.697 362.027 531.697 362.611C531.697 363.201 531.472 363.708 531.021 364.132C530.577 364.55 530.04 364.759 529.41 364.759ZM541.871 382.298C540.3 382.298 538.948 381.98 537.814 381.344C536.688 380.701 535.819 379.793 535.209 378.619C534.599 377.439 534.295 376.044 534.295 374.433C534.295 372.862 534.599 371.483 535.209 370.297C535.819 369.11 536.678 368.186 537.785 367.523C538.898 366.86 540.204 366.528 541.702 366.528C542.71 366.528 543.648 366.691 544.516 367.016C545.391 367.334 546.153 367.814 546.803 368.457C547.459 369.1 547.97 369.909 548.334 370.884C548.699 371.851 548.881 372.985 548.881 374.284V375.447H535.985V372.822H544.894C544.894 372.213 544.761 371.672 544.496 371.202C544.231 370.731 543.863 370.363 543.393 370.098C542.929 369.826 542.388 369.69 541.772 369.69C541.129 369.69 540.559 369.839 540.062 370.138C539.571 370.429 539.187 370.824 538.908 371.321C538.63 371.812 538.487 372.358 538.481 372.962V375.457C538.481 376.213 538.62 376.866 538.898 377.416C539.183 377.966 539.584 378.391 540.101 378.689C540.618 378.987 541.232 379.136 541.941 379.136C542.412 379.136 542.842 379.07 543.233 378.938C543.625 378.805 543.959 378.606 544.238 378.341C544.516 378.076 544.728 377.751 544.874 377.366L548.792 377.625C548.593 378.566 548.185 379.388 547.569 380.091C546.959 380.787 546.17 381.33 545.202 381.722C544.241 382.106 543.131 382.298 541.871 382.298ZM555.881 373.17V382H551.645V366.727H555.682V369.422H555.861C556.199 368.534 556.766 367.831 557.562 367.314C558.357 366.79 559.322 366.528 560.455 366.528C561.516 366.528 562.44 366.76 563.229 367.224C564.018 367.688 564.631 368.351 565.069 369.213C565.506 370.068 565.725 371.089 565.725 372.276V382H561.489V373.031C561.496 372.097 561.257 371.367 560.773 370.844C560.289 370.313 559.623 370.048 558.775 370.048C558.205 370.048 557.701 370.171 557.263 370.416C556.832 370.661 556.494 371.019 556.249 371.49C556.01 371.954 555.888 372.514 555.881 373.17ZM575.964 382.298C574.4 382.298 573.054 381.967 571.927 381.304C570.807 380.634 569.945 379.706 569.342 378.52C568.745 377.333 568.447 375.968 568.447 374.423C568.447 372.859 568.749 371.487 569.352 370.307C569.962 369.12 570.827 368.196 571.947 367.533C573.067 366.863 574.4 366.528 575.944 366.528C577.276 366.528 578.443 366.77 579.444 367.254C580.445 367.738 581.237 368.418 581.82 369.293C582.404 370.168 582.725 371.195 582.785 372.375H578.788C578.675 371.613 578.377 371 577.893 370.536C577.416 370.065 576.789 369.83 576.014 369.83C575.357 369.83 574.784 370.009 574.294 370.366C573.81 370.718 573.432 371.232 573.16 371.908C572.888 372.584 572.752 373.402 572.752 374.364C572.752 375.338 572.885 376.167 573.15 376.849C573.422 377.532 573.803 378.053 574.294 378.411C574.784 378.768 575.357 378.947 576.014 378.947C576.498 378.947 576.932 378.848 577.316 378.649C577.707 378.45 578.029 378.162 578.281 377.784C578.539 377.4 578.708 376.939 578.788 376.402H582.785C582.719 377.569 582.401 378.596 581.83 379.484C581.267 380.366 580.488 381.055 579.494 381.553C578.499 382.05 577.323 382.298 575.964 382.298ZM592.457 382.298C590.886 382.298 589.534 381.98 588.4 381.344C587.273 380.701 586.405 379.793 585.795 378.619C585.185 377.439 584.881 376.044 584.881 374.433C584.881 372.862 585.185 371.483 585.795 370.297C586.405 369.11 587.264 368.186 588.371 367.523C589.484 366.86 590.79 366.528 592.288 366.528C593.296 366.528 594.234 366.691 595.102 367.016C595.977 367.334 596.739 367.814 597.389 368.457C598.045 369.1 598.556 369.909 598.92 370.884C599.285 371.851 599.467 372.985 599.467 374.284V375.447H586.571V372.822H595.48C595.48 372.213 595.347 371.672 595.082 371.202C594.817 370.731 594.449 370.363 593.979 370.098C593.515 369.826 592.974 369.69 592.358 369.69C591.715 369.69 591.145 369.839 590.648 370.138C590.157 370.429 589.773 370.824 589.494 371.321C589.216 371.812 589.073 372.358 589.067 372.962V375.457C589.067 376.213 589.206 376.866 589.484 377.416C589.769 377.966 590.17 378.391 590.687 378.689C591.204 378.987 591.818 379.136 592.527 379.136C592.997 379.136 593.428 379.07 593.819 378.938C594.211 378.805 594.545 378.606 594.824 378.341C595.102 378.076 595.314 377.751 595.46 377.366L599.378 377.625C599.179 378.566 598.771 379.388 598.155 380.091C597.545 380.787 596.756 381.33 595.788 381.722C594.827 382.106 593.717 382.298 592.457 382.298Z" fill="white"/>
<path d="M403.449 216.963C402.324 216.163 400.763 216.426 399.963 217.551C399.163 218.676 399.426 220.237 400.551 221.037L403.449 216.963ZM487.5 313L494.906 285.099L467.04 292.635L487.5 313ZM400.551 221.037C401.911 222.005 403.35 223.047 404.854 224.156L407.821 220.131C406.295 219.007 404.834 217.948 403.449 216.963L400.551 221.037ZM413.37 230.621C416.056 232.715 418.856 234.951 421.727 237.303L424.896 233.436C421.993 231.057 419.162 228.797 416.445 226.678L413.37 230.621ZM429.925 244.184C432.584 246.472 435.268 248.836 437.944 251.26L441.3 247.553C438.59 245.1 435.875 242.707 433.185 240.394L429.925 244.184ZM445.765 258.543C448.339 261.011 450.877 263.52 453.349 266.054L456.928 262.562C454.414 259.985 451.837 257.437 449.226 254.934L445.765 258.543ZM460.641 273.828C463.06 276.519 465.373 279.217 467.546 281.905L471.434 278.761C469.2 275.998 466.83 273.233 464.359 270.485L460.641 273.828ZM473.919 290.35C476.022 293.368 477.893 296.337 479.486 299.232L483.866 296.82C482.174 293.746 480.207 290.627 478.021 287.491L473.919 290.35Z" fill="white"/>
<path d="M533.65 132.724C532.945 131.537 531.411 131.145 530.224 131.85C529.037 132.555 528.645 134.089 529.35 135.276L533.65 132.724ZM542 314.5L563.585 295.331L536.192 286.223L542 314.5ZM529.35 135.276C530.129 136.588 530.931 138.042 531.749 139.633L536.196 137.347C535.337 135.676 534.486 134.133 533.65 132.724L529.35 135.276ZM535.968 148.81C537.181 151.738 538.392 154.919 539.573 158.333L544.298 156.698C543.086 153.194 541.84 149.92 540.586 146.895L535.968 148.81ZM542.654 168.029C543.569 171.173 544.449 174.46 545.28 177.881L550.138 176.701C549.29 173.208 548.391 169.847 547.455 166.632L542.654 168.029ZM547.476 187.851C548.121 191.106 548.716 194.456 549.253 197.894L554.193 197.123C553.646 193.617 553.038 190.199 552.38 186.879L547.476 187.851ZM550.621 208.002C551.003 211.326 551.326 214.717 551.583 218.17L556.569 217.8C556.307 214.279 555.978 210.82 555.588 207.431L550.621 208.002ZM552.135 228.363C552.248 231.717 552.297 235.119 552.273 238.565L557.273 238.599C557.297 235.084 557.248 231.614 557.132 228.194L552.135 228.363ZM551.993 248.772C551.831 252.13 551.598 255.523 551.289 258.945L556.269 259.395C556.584 255.902 556.822 252.439 556.987 249.013L551.993 248.772ZM550.155 269.087C549.71 272.424 549.189 275.784 548.588 279.164L553.51 280.04C554.124 276.588 554.656 273.156 555.111 269.748L550.155 269.087ZM546.582 289.16C545.846 292.45 545.031 295.754 544.133 299.069L548.959 300.377C549.877 296.989 550.71 293.613 551.462 290.251L546.582 289.16Z" fill="white"/>
<path d="M218.616 27.418C217.466 28.1824 217.154 29.7342 217.918 30.884C218.682 32.0338 220.234 32.3463 221.384 31.5819L218.616 27.418ZM433 29.5L416.535 5.78823L404.233 31.903L433 29.5ZM221.384 31.5819C222.655 30.7371 224.032 29.8743 225.514 29.0008L222.974 24.6938C221.42 25.6099 219.966 26.5203 218.616 27.418L221.384 31.5819ZM234.241 24.3508C237.044 22.9944 240.073 21.6454 243.315 20.3293L241.434 15.6965C238.095 17.0521 234.967 18.4449 232.063 19.8498L234.241 24.3508ZM252.624 16.8587C255.646 15.8265 258.808 14.8336 262.103 13.895L260.733 9.08626C257.355 10.0485 254.111 11.067 251.007 12.1271L252.624 16.8587ZM271.735 11.4056C274.893 10.6705 278.151 9.98967 281.505 9.37346L280.601 4.45578C277.17 5.08627 273.835 5.78313 270.602 6.5358L271.735 11.4056ZM291.326 7.80008C294.557 7.35722 297.865 6.97687 301.244 6.66701L300.787 1.68789C297.333 2.00464 293.951 2.3935 290.647 2.84638L291.326 7.80008ZM311.169 5.97671C314.436 5.82127 317.762 5.73339 321.144 5.71949L321.124 0.719528C317.669 0.733736 314.27 0.823519 310.932 0.982361L311.169 5.97671ZM331.114 5.89264C334.382 6.01939 337.697 6.21657 341.056 6.48949L341.461 1.50591C338.031 1.22723 334.646 1.02585 331.308 0.896396L331.114 5.89264ZM350.979 7.50545C354.236 7.90784 357.531 8.38265 360.861 8.93438L361.678 4.00164C358.28 3.43858 354.917 2.95394 351.592 2.54317L350.979 7.50545ZM370.671 10.7659C373.88 11.4327 377.119 12.1721 380.386 12.9879L381.597 8.13687C378.266 7.3049 374.962 6.55071 371.688 5.87047L370.671 10.7659ZM390.012 15.5936C393.164 16.5129 396.338 17.5045 399.535 18.5715L401.118 13.8288C397.861 12.7415 394.625 11.7309 391.412 10.7937L390.012 15.5936ZM408.942 21.9092C412.018 23.0652 415.111 24.2923 418.222 25.5931L420.151 20.9801C416.984 19.6559 413.834 18.4064 410.702 17.2289L408.942 21.9092Z" fill="white"/>
<path d="M65.1283 333.709C64.6917 335.019 65.3996 336.435 66.7094 336.872C68.0193 337.308 69.4351 336.6 69.8717 335.291L65.1283 333.709ZM177 212L148.375 208.267L159.454 234.923L177 212ZM69.8717 335.291C70.3771 333.775 70.9606 332.182 71.6197 330.519L66.9717 328.676C66.2822 330.415 65.6662 332.096 65.1283 333.709L69.8717 335.291ZM75.8202 321.072C77.2548 318.129 78.8574 315.06 80.6148 311.895L76.2435 309.467C74.4469 312.703 72.8027 315.851 71.3258 318.881L75.8202 321.072ZM85.8617 302.919C87.6283 300.036 89.5014 297.105 91.4717 294.146L87.3099 291.375C85.3057 294.385 83.3988 297.369 81.5986 300.306L85.8617 302.919ZM97.3991 285.575C99.3988 282.788 101.475 279.994 103.619 277.21L99.6581 274.159C97.4788 276.988 95.3691 279.827 93.3366 282.66L97.3991 285.575ZM110.118 269.065C112.322 266.399 114.583 263.758 116.894 261.156L113.156 257.835C110.804 260.482 108.505 263.169 106.264 265.879L110.118 269.065ZM123.954 253.506C126.365 250.993 128.819 248.537 131.308 246.151L127.849 242.541C125.306 244.977 122.803 247.484 120.346 250.044L123.954 253.506ZM138.97 239.142C141.607 236.844 144.273 234.639 146.961 232.543L143.886 228.6C141.122 230.756 138.386 233.019 135.685 235.372L138.97 239.142ZM155.314 226.44C158.215 224.465 161.129 222.634 164.048 220.965L161.566 216.624C158.524 218.364 155.499 220.265 152.5 222.307L155.314 226.44Z" fill="white"/>
<path d="M195.856 428.223C197.084 428.855 198.591 428.372 199.223 427.144C199.855 425.916 199.372 424.409 198.144 423.777L195.856 428.223ZM116 129.5L93.7002 147.832L120.726 157.978L116 129.5ZM108.593 142.666C107.512 145.86 106.487 149.03 105.518 152.175L110.296 153.647C111.252 150.547 112.262 147.42 113.329 144.269L108.593 142.666ZM102.737 161.682C101.838 164.925 101 168.14 100.219 171.328L105.075 172.517C105.844 169.378 106.67 166.212 107.555 163.017L102.737 161.682ZM97.9968 181.051C97.3026 184.326 96.6697 187.571 96.0963 190.786L101.019 191.663C101.582 188.502 102.205 185.31 102.888 182.088L97.9968 181.051ZM94.5106 200.633C94.0316 203.97 93.6169 207.273 93.2646 210.542L98.2358 211.078C98.5818 207.867 98.9891 204.622 99.4599 201.343L94.5106 200.633ZM92.3773 220.455C92.1396 223.797 91.9674 227.103 91.8581 230.371L96.8553 230.538C96.9625 227.333 97.1314 224.09 97.3647 220.809L92.3773 220.455ZM91.7179 240.38C91.7368 243.751 91.8229 247.08 91.9732 250.366L96.968 250.138C96.8207 246.918 96.7363 243.656 96.7178 240.352L91.7179 240.38ZM92.6328 260.32C92.9242 263.669 93.2826 266.973 93.7044 270.23L98.663 269.587C98.2501 266.4 97.8993 263.166 97.614 259.886L92.6328 260.32ZM95.1949 280.082C95.7704 283.403 96.4121 286.673 97.1157 289.891L102 288.823C101.312 285.675 100.685 282.477 100.121 279.229L95.1949 280.082ZM99.467 299.609C100.332 302.866 101.26 306.066 102.247 309.209L107.017 307.711C106.053 304.639 105.145 301.51 104.299 298.326L99.467 299.609ZM105.454 318.673C106.607 321.838 107.82 324.941 109.085 327.981L113.701 326.058C112.464 323.088 111.279 320.055 110.152 316.961L105.454 318.673ZM113.135 337.114C114.57 340.164 116.059 343.144 117.595 346.054L122.017 343.721C120.516 340.877 119.061 337.965 117.658 334.984L113.135 337.114ZM122.457 354.783C124.166 357.692 125.92 360.525 127.712 363.28L131.903 360.554C130.153 357.862 128.439 355.094 126.768 352.25L122.457 354.783ZM133.349 371.528C135.32 374.275 137.325 376.934 139.356 379.507L143.28 376.408C141.296 373.895 139.337 371.297 137.411 368.613L133.349 371.528ZM145.722 387.195C147.95 389.76 150.197 392.225 152.454 394.588L156.07 391.135C153.867 388.828 151.673 386.422 149.498 383.917L145.722 387.195ZM159.549 401.664C162.032 404.021 164.514 406.256 166.981 408.368L170.233 404.57C167.831 402.513 165.413 400.336 162.992 398.038L159.549 401.664ZM174.735 414.65C177.507 416.77 180.242 418.73 182.92 420.528L185.707 416.377C183.117 414.638 180.466 412.738 177.774 410.679L174.735 414.65ZM191.44 425.824C192.94 426.681 194.414 427.481 195.856 428.223L198.144 423.777C196.769 423.069 195.359 422.304 193.918 421.482L191.44 425.824Z" fill="white"/>
<path d="M196.053 631.814C197.331 632.337 198.791 631.725 199.314 630.447C199.837 629.169 199.224 627.709 197.947 627.186L196.053 631.814ZM52 399L36.4928 423.349L65.333 424.604L52 399ZM49.1426 414.575C49.1715 418.097 49.2752 421.577 49.4505 425.014L54.444 424.759C54.2724 421.393 54.1708 417.985 54.1424 414.534L49.1426 414.575ZM50.2103 435.433C50.5445 438.947 50.954 442.415 51.4352 445.836L56.3864 445.139C55.9156 441.792 55.5149 438.399 55.1878 434.959L50.2103 435.433ZM53.1298 456.17C53.7798 459.635 54.5036 463.049 55.2972 466.413L60.1636 465.265C59.3876 461.976 58.6798 458.637 58.0441 455.248L53.1298 456.17ZM57.9377 476.544C58.9052 479.93 59.9434 483.262 61.0478 486.539L65.786 484.943C64.7063 481.738 63.6912 478.481 62.7453 475.17L57.9377 476.544ZM64.6211 496.378C65.8991 499.656 67.243 502.876 68.6478 506.038L73.2172 504.008C71.8434 500.916 70.5292 497.767 69.2797 494.562L64.6211 496.378ZM73.1154 515.501C74.6891 518.646 76.3221 521.728 78.009 524.749L82.3744 522.311C80.7238 519.355 79.1261 516.34 77.5868 513.264L73.1154 515.501ZM83.3119 533.765C85.1606 536.754 87.0606 539.678 89.0057 542.535L93.1391 539.722C91.2342 536.923 89.374 534.061 87.5643 531.135L83.3119 533.765ZM95.0746 551.052C97.1782 553.874 99.3236 556.626 101.504 559.308L105.384 556.154C103.247 553.525 101.144 550.828 99.0835 548.064L95.0746 551.052ZM108.269 567.287C110.602 569.927 112.966 572.491 115.352 574.981L118.961 571.521C116.621 569.079 114.303 566.564 112.016 563.976L108.269 567.287ZM122.732 582.38C125.272 584.827 127.828 587.191 130.392 589.474L133.717 585.74C131.201 583.5 128.693 581.18 126.201 578.779L122.732 582.38ZM138.33 596.27C141.072 598.526 143.813 600.689 146.541 602.76L149.564 598.777C146.887 596.745 144.197 594.623 141.507 592.409L138.33 596.27ZM154.985 608.909C157.914 610.953 160.815 612.888 163.677 614.715L166.368 610.501C163.564 608.711 160.719 606.813 157.847 604.809L154.985 608.909ZM172.622 620.161C175.76 621.977 178.828 623.654 181.806 625.193L184.101 620.751C181.196 619.249 178.198 617.611 175.127 615.833L172.622 620.161ZM191.227 629.744C192.877 630.483 194.487 631.173 196.053 631.814L197.947 627.186C196.433 626.567 194.873 625.899 193.272 625.181L191.227 629.744Z" fill="white"/>
<path d="M514.496 416.855C514.416 415.477 513.234 414.424 511.855 414.504C510.477 414.584 509.424 415.766 509.504 417.145L514.496 416.855ZM361.5 633L390.185 636.244L378.652 609.78L361.5 633ZM376.185 629.02C379.212 627.528 382.179 625.992 385.088 624.416L382.706 620.02C379.854 621.565 376.943 623.071 373.974 624.535L376.185 629.02ZM393.815 619.466C396.724 617.74 399.57 615.972 402.355 614.166L399.635 609.971C396.905 611.741 394.115 613.474 391.263 615.167L393.815 619.466ZM410.674 608.531C413.433 606.58 416.126 604.59 418.756 602.566L415.706 598.604C413.13 600.588 410.49 602.537 407.787 604.449L410.674 608.531ZM426.588 596.279C429.178 594.112 431.701 591.911 434.158 589.679L430.795 585.978C428.389 588.165 425.917 590.321 423.38 592.445L426.588 596.279ZM441.451 582.776C443.856 580.405 446.191 578.006 448.458 575.582L444.806 572.167C442.585 574.542 440.297 576.893 437.941 579.215L441.451 582.776ZM455.167 568.11C457.371 565.552 459.505 562.972 461.568 560.374L457.653 557.264C455.631 559.81 453.54 562.339 451.379 564.845L455.167 568.11ZM467.655 552.388C469.649 549.661 471.569 546.919 473.418 544.168L469.268 541.379C467.456 544.076 465.573 546.764 463.619 549.437L467.655 552.388ZM478.852 535.728C480.626 532.85 482.324 529.967 483.949 527.084L479.594 524.629C478 527.455 476.335 530.282 474.596 533.104L478.852 535.728ZM488.704 518.251C490.252 515.237 491.721 512.23 493.115 509.234L488.582 507.125C487.215 510.062 485.774 513.012 484.256 515.967L488.704 518.251ZM497.177 500.039C498.49 496.901 499.721 493.784 500.872 490.696L496.187 488.95C495.058 491.977 493.852 495.032 492.564 498.109L497.177 500.039ZM504.188 481.223C505.25 477.981 506.223 474.78 507.112 471.631L502.3 470.273C501.43 473.356 500.477 476.491 499.437 479.666L504.188 481.223ZM509.636 461.874C510.425 458.521 511.114 455.242 511.709 452.048L506.793 451.133C506.213 454.249 505.54 457.452 504.769 460.729L509.636 461.874ZM513.3 442.08C513.76 438.605 514.098 435.259 514.323 432.063L509.336 431.712C509.118 434.802 508.79 438.045 508.343 441.425L513.3 442.08ZM514.659 421.942C514.645 420.181 514.59 418.484 514.496 416.855L509.504 417.145C509.594 418.685 509.646 420.298 509.659 421.981L514.659 421.942Z" fill="white"/>
<g opacity="0.33" filter="url(#filter0_bi_245_3827)">
<circle cx="302.925" cy="445.925" r="73.1499" transform="rotate(30 302.925 445.925)" fill="#4F70C7"/>
</g>
<g opacity="0.08" filter="url(#filter1_bi_245_3827)">
<circle cx="302.925" cy="445.925" r="73.1499" transform="rotate(30 302.925 445.925)" fill="#4F70C7"/>
</g>
<g opacity="0.25" filter="url(#filter2_bi_245_3827)">
<circle cx="302.925" cy="445.925" r="59.2059" transform="rotate(30 302.925 445.925)" fill="#4F70C7"/>
</g>
<g filter="url(#filter3_bi_245_3827)">
<circle cx="302.925" cy="445.925" r="44.8065" transform="rotate(30 302.925 445.925)" fill="#1B47B8"/>
</g>
<defs>
<filter id="filter0_bi_245_3827" x="190.539" y="333.538" width="224.772" height="224.772" filterUnits="userSpaceOnUse" color-interpolation-filters="sRGB">
<feFlood flood-opacity="0" result="BackgroundImageFix"/>
<feGaussianBlur in="BackgroundImage" stdDeviation="19.612"/>
<feComposite in2="SourceAlpha" operator="in" result="effect1_backgroundBlur_245_3827"/>
<feBlend mode="normal" in="SourceGraphic" in2="effect1_backgroundBlur_245_3827" result="shape"/>
<feColorMatrix in="SourceAlpha" type="matrix" values="0 0 0 0 0 0 0 0 0 0 0 0 0 0 0 0 0 0 127 0" result="hardAlpha"/>
<feOffset dx="-2.61493" dy="2.61493"/>
<feGaussianBlur stdDeviation="1.30747"/>
<feComposite in2="hardAlpha" operator="arithmetic" k2="-1" k3="1"/>
<feColorMatrix type="matrix" values="0 0 0 0 0.351373 0 0 0 0 0.467451 0 0 0 0 0.759216 0 0 0 0.456 0"/>
<feBlend mode="normal" in2="shape" result="effect2_innerShadow_245_3827"/>
</filter>
<filter id="filter1_bi_245_3827" x="190.539" y="333.538" width="224.772" height="224.772" filterUnits="userSpaceOnUse" color-interpolation-filters="sRGB">
<feFlood flood-opacity="0" result="BackgroundImageFix"/>
<feGaussianBlur in="BackgroundImage" stdDeviation="19.612"/>
<feComposite in2="SourceAlpha" operator="in" result="effect1_backgroundBlur_245_3827"/>
<feBlend mode="normal" in="SourceGraphic" in2="effect1_backgroundBlur_245_3827" result="shape"/>
<feColorMatrix in="SourceAlpha" type="matrix" values="0 0 0 0 0 0 0 0 0 0 0 0 0 0 0 0 0 0 127 0" result="hardAlpha"/>
<feOffset dx="-2.61493" dy="2.61493"/>
<feGaussianBlur stdDeviation="1.30747"/>
<feComposite in2="hardAlpha" operator="arithmetic" k2="-1" k3="1"/>
<feColorMatrix type="matrix" values="0 0 0 0 0.351373 0 0 0 0 0.467451 0 0 0 0 0.759216 0 0 0 0.456 0"/>
<feBlend mode="normal" in2="shape" result="effect2_innerShadow_245_3827"/>
</filter>
<filter id="filter2_bi_245_3827" x="204.485" y="347.485" width="196.879" height="196.88" filterUnits="userSpaceOnUse" color-interpolation-filters="sRGB">
<feFlood flood-opacity="0" result="BackgroundImageFix"/>
<feGaussianBlur in="BackgroundImage" stdDeviation="19.612"/>
<feComposite in2="SourceAlpha" operator="in" result="effect1_backgroundBlur_245_3827"/>
<feBlend mode="normal" in="SourceGraphic" in2="effect1_backgroundBlur_245_3827" result="shape"/>
<feColorMatrix in="SourceAlpha" type="matrix" values="0 0 0 0 0 0 0 0 0 0 0 0 0 0 0 0 0 0 127 0" result="hardAlpha"/>
<feOffset dx="-2.61493" dy="2.61493"/>
<feGaussianBlur stdDeviation="1.30747"/>
<feComposite in2="hardAlpha" operator="arithmetic" k2="-1" k3="1"/>
<feColorMatrix type="matrix" values="0 0 0 0 0.351373 0 0 0 0 0.467451 0 0 0 0 0.759216 0 0 0 0.456 0"/>
<feBlend mode="normal" in2="shape" result="effect2_innerShadow_245_3827"/>
</filter>
<filter id="filter3_bi_245_3827" x="218.887" y="361.887" width="168.076" height="168.076" filterUnits="userSpaceOnUse" color-interpolation-filters="sRGB">
<feFlood flood-opacity="0" result="BackgroundImageFix"/>
<feGaussianBlur in="BackgroundImage" stdDeviation="19.612"/>
<feComposite in2="SourceAlpha" operator="in" result="effect1_backgroundBlur_245_3827"/>
<feBlend mode="normal" in="SourceGraphic" in2="effect1_backgroundBlur_245_3827" result="shape"/>
<feColorMatrix in="SourceAlpha" type="matrix" values="0 0 0 0 0 0 0 0 0 0 0 0 0 0 0 0 0 0 127 0" result="hardAlpha"/>
<feOffset dx="-2.61493" dy="2.61493"/>
<feGaussianBlur stdDeviation="1.30747"/>
<feComposite in2="hardAlpha" operator="arithmetic" k2="-1" k3="1"/>
<feColorMatrix type="matrix" values="0 0 0 0 0.351373 0 0 0 0 0.467451 0 0 0 0 0.759216 0 0 0 0.456 0"/>
<feBlend mode="normal" in2="shape" result="effect2_innerShadow_245_3827"/>
</filter>
</defs>
</svg>
