<svg width="1400" height="1221" viewBox="0 0 1400 1221" fill="none" xmlns="http://www.w3.org/2000/svg">
<g filter="url(#filter0_f_612_5737)">
<circle cx="660" cy="481" r="279" fill="black"/>
</g>
<path d="M893.465 614.978C812.373 755.433 632.773 803.557 492.317 722.465C351.862 641.373 303.738 461.773 384.83 321.317C465.922 180.862 645.522 132.738 785.978 213.83C926.433 294.922 974.557 474.522 893.465 614.978ZM434.396 349.934C369.108 463.015 407.853 607.612 520.934 672.899C634.015 738.187 778.612 699.442 843.899 586.361C909.187 473.28 870.442 328.683 757.361 263.396C644.28 198.108 499.683 236.853 434.396 349.934Z" fill="#264187"/>
<path opacity="0.6" d="M816.046 570.226C759.779 667.684 635.159 701.076 537.701 644.809C440.243 588.541 406.851 463.922 463.119 366.464C519.386 269.005 644.006 235.614 741.464 291.881C838.922 348.149 872.314 472.768 816.046 570.226ZM497.511 386.32C452.21 464.784 479.094 565.115 557.558 610.416C636.021 655.718 736.353 628.834 781.654 550.37C826.955 471.906 800.071 371.575 721.608 326.273C643.144 280.972 542.812 307.856 497.511 386.32Z" fill="#1B47B8"/>
<g opacity="0.25">
<mask id="path-4-inside-1_612_5737" fill="white">
<path d="M758.27 536.856C720.555 602.179 637.026 624.561 571.702 586.846C506.379 549.132 483.997 465.603 521.712 400.279C559.426 334.955 642.956 312.574 708.279 350.288C773.603 388.003 795.984 471.532 758.27 536.856ZM544.764 413.588C514.4 466.18 532.419 533.43 585.012 563.794C637.604 594.158 704.853 576.139 735.218 523.547C765.582 470.954 747.562 403.705 694.97 373.341C642.378 342.976 575.128 360.996 544.764 413.588Z"/>
</mask>
<path d="M758.27 536.856C720.555 602.179 637.026 624.561 571.702 586.846C506.379 549.132 483.997 465.603 521.712 400.279C559.426 334.955 642.956 312.574 708.279 350.288C773.603 388.003 795.984 471.532 758.27 536.856ZM544.764 413.588C514.4 466.18 532.419 533.43 585.012 563.794C637.604 594.158 704.853 576.139 735.218 523.547C765.582 470.954 747.562 403.705 694.97 373.341C642.378 342.976 575.128 360.996 544.764 413.588Z" fill="#1B47B8" stroke="#FFCC00" stroke-opacity="0.25" stroke-width="2" mask="url(#path-4-inside-1_612_5737)"/>
</g>
<defs>
<filter id="filter0_f_612_5737" x="-79.9998" y="-259" width="1480" height="1480" filterUnits="userSpaceOnUse" color-interpolation-filters="sRGB">
<feFlood flood-opacity="0" result="BackgroundImageFix"/>
<feBlend mode="normal" in="SourceGraphic" in2="BackgroundImageFix" result="shape"/>
<feGaussianBlur stdDeviation="230.5" result="effect1_foregroundBlur_612_5737"/>
</filter>
</defs>
</svg>
