<svg width="302" height="535" viewBox="0 0 302 535" fill="none" xmlns="http://www.w3.org/2000/svg">
<g filter="url(#filter0_f_618_5738)">
<circle cx="24.3234" cy="257.322" r="104.673" fill="black"/>
</g>
<path d="M111.913 307.587C81.4896 360.282 14.1084 378.337 -38.5868 347.913C-91.2821 317.49 -109.337 250.108 -78.9132 197.413C-48.4896 144.718 18.8916 126.663 71.5868 157.087C124.282 187.51 142.337 254.892 111.913 307.587ZM-60.3175 208.149C-84.8116 250.575 -70.2757 304.823 -27.8506 329.317C14.5745 353.812 68.8233 339.276 93.3175 296.851C117.812 254.425 103.276 200.177 60.8506 175.683C18.4255 151.188 -35.8233 165.724 -60.3175 208.149Z" fill="#264187"/>
<path opacity="0.6" d="M82.8678 290.797C61.7577 327.361 15.0038 339.889 -21.5599 318.779C-58.1237 297.669 -70.6513 250.915 -49.5412 214.351C-28.4312 177.787 18.3227 165.26 54.8865 186.37C91.4502 207.48 103.978 254.234 82.8678 290.797ZM-36.6382 221.801C-53.634 251.238 -43.548 288.88 -14.1104 305.876C15.3272 322.871 52.9689 312.785 69.9647 283.348C86.9605 253.91 76.8745 216.269 47.4369 199.273C17.9993 182.277 -19.6424 192.363 -36.6382 221.801Z" fill="#1B47B8"/>
<g opacity="0.25">
<mask id="path-4-inside-1_618_5738" fill="white">
<path d="M61.1916 278.278C47.042 302.785 15.7041 311.182 -8.80358 297.033C-33.3113 282.883 -41.7083 251.545 -27.5587 227.037C-13.4092 202.53 17.9287 194.133 42.4364 208.282C66.9441 222.432 75.3411 253.77 61.1916 278.278ZM-18.9102 232.031C-30.302 251.762 -23.5416 276.992 -3.81033 288.384C15.9209 299.776 41.1512 293.016 52.543 273.284C63.9348 253.553 57.1744 228.323 37.4432 216.931C17.7119 205.539 -7.51832 212.3 -18.9102 232.031Z"/>
</mask>
<path d="M61.1916 278.278C47.042 302.785 15.7041 311.182 -8.80358 297.033C-33.3113 282.883 -41.7083 251.545 -27.5587 227.037C-13.4092 202.53 17.9287 194.133 42.4364 208.282C66.9441 222.432 75.3411 253.77 61.1916 278.278ZM-18.9102 232.031C-30.302 251.762 -23.5416 276.992 -3.81033 288.384C15.9209 299.776 41.1512 293.016 52.543 273.284C63.9348 253.553 57.1744 228.323 37.4432 216.931C17.7119 205.539 -7.51832 212.3 -18.9102 232.031Z" fill="#1B47B8" stroke="#FFCC00" stroke-opacity="0.25" stroke-width="0.750347" mask="url(#path-4-inside-1_618_5738)"/>
</g>
<defs>
<filter id="filter0_f_618_5738" x="-253.305" y="-20.3066" width="555.257" height="555.257" filterUnits="userSpaceOnUse" color-interpolation-filters="sRGB">
<feFlood flood-opacity="0" result="BackgroundImageFix"/>
<feBlend mode="normal" in="SourceGraphic" in2="BackgroundImageFix" result="shape"/>
<feGaussianBlur stdDeviation="86.4775" result="effect1_foregroundBlur_618_5738"/>
</filter>
</defs>
</svg>
