<svg width="1029" height="454" viewBox="0 0 1029 454" fill="none" xmlns="http://www.w3.org/2000/svg">
<g filter="url(#filter0_bii_747_5285)">
<path d="M151.933 199.033C151.933 214.442 139.442 226.932 124.034 226.932C108.626 226.932 96.1353 214.442 96.1353 199.033C96.1353 183.625 108.626 171.135 124.034 171.135C139.442 171.135 151.933 183.625 151.933 199.033ZM104.234 199.033C104.234 209.969 113.099 218.834 124.034 218.834C134.97 218.834 143.834 209.969 143.834 199.033C143.834 188.098 134.97 179.233 124.034 179.233C113.099 179.233 104.234 188.098 104.234 199.033Z" fill="#0047FF" fill-opacity="0.8"/>
</g>
<g filter="url(#filter1_bii_747_5285)">
<path d="M396.933 201.033C396.933 216.442 384.442 228.932 369.034 228.932C353.626 228.932 341.135 216.442 341.135 201.033C341.135 185.625 353.626 173.135 369.034 173.135C384.442 173.135 396.933 185.625 396.933 201.033ZM349.234 201.033C349.234 211.969 358.099 220.834 369.034 220.834C379.97 220.834 388.834 211.969 388.834 201.033C388.834 190.098 379.97 181.233 369.034 181.233C358.099 181.233 349.234 190.098 349.234 201.033Z" fill="#0047FF" fill-opacity="0.8"/>
</g>
<path d="M337.136 200.988L322.234 192.159L322.039 209.479L337.136 200.988ZM163.997 200.533L167.088 200.568L167.122 197.568L164.031 197.534L163.997 200.533ZM173.271 200.638L179.454 200.708L179.488 197.708L173.305 197.638L173.271 200.638ZM185.637 200.778L191.82 200.848L191.854 197.848L185.671 197.778L185.637 200.778ZM198.003 200.917L204.186 200.987L204.22 197.987L198.037 197.918L198.003 200.917ZM210.369 201.057L216.552 201.127L216.585 198.127L210.403 198.057L210.369 201.057ZM222.735 201.197L228.917 201.266L228.951 198.267L222.768 198.197L222.735 201.197ZM235.1 201.336L241.283 201.406L241.317 198.406L235.134 198.336L235.1 201.336ZM247.466 201.476L253.649 201.546L253.683 198.546L247.5 198.476L247.466 201.476ZM259.832 201.616L266.015 201.685L266.049 198.686L259.866 198.616L259.832 201.616ZM272.198 201.755L278.381 201.825L278.415 198.825L272.232 198.755L272.198 201.755ZM284.564 201.895L290.747 201.965L290.781 198.965L284.598 198.895L284.564 201.895ZM296.93 202.034L303.113 202.104L303.146 199.104L296.963 199.035L296.93 202.034ZM309.295 202.174L315.478 202.244L315.512 199.244L309.329 199.174L309.295 202.174ZM321.661 202.314L327.844 202.383L327.878 199.384L321.695 199.314L321.661 202.314Z" fill="#F5F8FF"/>
<g filter="url(#filter2_bii_747_5285)">
<path d="M641.933 199.033C641.933 214.442 629.442 226.932 614.034 226.932C598.626 226.932 586.135 214.442 586.135 199.033C586.135 183.625 598.626 171.135 614.034 171.135C629.442 171.135 641.933 183.625 641.933 199.033ZM594.234 199.033C594.234 209.969 603.099 218.834 614.034 218.834C624.97 218.834 633.834 209.969 633.834 199.033C633.834 188.098 624.97 179.233 614.034 179.233C603.099 179.233 594.234 188.098 594.234 199.033Z" fill="#0047FF" fill-opacity="0.8"/>
</g>
<path d="M582.136 199.079L567.039 190.588L567.234 207.908L582.136 199.079ZM409.031 202.533L412.122 202.498L412.088 199.499L408.997 199.534L409.031 202.533ZM418.305 202.429L424.488 202.359L424.454 199.359L418.271 199.429L418.305 202.429ZM430.671 202.289L436.854 202.219L436.82 199.219L430.637 199.289L430.671 202.289ZM443.037 202.149L449.22 202.08L449.186 199.08L443.003 199.15L443.037 202.149ZM455.403 202.01L461.585 201.94L461.552 198.94L455.369 199.01L455.403 202.01ZM467.768 201.87L473.951 201.8L473.917 198.8L467.735 198.87L467.768 201.87ZM480.134 201.73L486.317 201.661L486.283 198.661L480.1 198.731L480.134 201.73ZM492.5 201.591L498.683 201.521L498.649 198.521L492.466 198.591L492.5 201.591ZM504.866 201.451L511.049 201.381L511.015 198.382L504.832 198.451L504.866 201.451ZM517.232 201.312L523.415 201.242L523.381 198.242L517.198 198.312L517.232 201.312ZM529.598 201.172L535.781 201.102L535.747 198.102L529.564 198.172L529.598 201.172ZM541.963 201.032L548.146 200.963L548.113 197.963L541.93 198.033L541.963 201.032ZM554.329 200.893L560.512 200.823L560.478 197.823L554.295 197.893L554.329 200.893ZM566.695 200.753L572.878 200.683L572.844 197.683L566.661 197.753L566.695 200.753Z" fill="#F5F8FF"/>
<path d="M820.883 200.527L805.962 191.733L805.807 209.053L820.883 200.527ZM654 200.533L656.98 200.56L657.007 197.56L654.027 197.534L654 200.533ZM662.94 200.613L668.899 200.667L668.926 197.667L662.967 197.614L662.94 200.613ZM674.859 200.72L680.819 200.773L680.845 197.774L674.886 197.72L674.859 200.72ZM686.778 200.827L692.738 200.88L692.765 197.88L686.805 197.827L686.778 200.827ZM698.698 200.934L704.657 200.987L704.684 197.987L698.724 197.934L698.698 200.934ZM710.617 201.04L716.576 201.094L716.603 198.094L710.644 198.04L710.617 201.04ZM722.536 201.147L728.496 201.2L728.523 198.2L722.563 198.147L722.536 201.147ZM734.455 201.254L740.415 201.307L740.442 198.307L734.482 198.254L734.455 201.254ZM746.375 201.36L752.334 201.414L752.361 198.414L746.401 198.36L746.375 201.36ZM758.294 201.467L764.254 201.52L764.28 198.521L758.321 198.467L758.294 201.467ZM770.213 201.574L776.173 201.627L776.2 198.627L770.24 198.574L770.213 201.574ZM782.132 201.68L788.092 201.734L788.119 198.734L782.159 198.681L782.132 201.68ZM794.052 201.787L800.011 201.841L800.038 198.841L794.079 198.787L794.052 201.787ZM805.971 201.894L811.931 201.947L811.957 198.947L805.998 198.894L805.971 201.894Z" fill="#F5F8FF"/>
<g filter="url(#filter3_bii_747_5285)">
<path d="M886.933 199.033C886.933 214.442 874.442 226.932 859.034 226.932C843.626 226.932 831.135 214.442 831.135 199.033C831.135 183.625 843.626 171.135 859.034 171.135C874.442 171.135 886.933 183.625 886.933 199.033ZM839.234 199.033C839.234 209.969 848.099 218.834 859.034 218.834C869.97 218.834 878.834 209.969 878.834 199.033C878.834 188.098 869.97 179.233 859.034 179.233C848.099 179.233 839.234 188.098 839.234 199.033Z" fill="#0047FF" fill-opacity="0.8"/>
</g>
<g filter="url(#filter4_bii_747_5285)">
<path d="M247.775 199.034C247.775 267.374 192.374 322.775 124.034 322.775C55.6932 322.775 0.29248 267.374 0.29248 199.034C0.29248 130.693 55.6932 75.2925 124.034 75.2925C192.374 75.2925 247.775 130.693 247.775 199.034ZM36.2134 199.034C36.2134 247.535 75.5318 286.854 124.034 286.854C172.535 286.854 211.854 247.535 211.854 199.034C211.854 150.532 172.535 111.213 124.034 111.213C75.5318 111.213 36.2134 150.532 36.2134 199.034Z" fill="#0047FF" fill-opacity="0.8"/>
</g>
<g filter="url(#filter5_bii_747_5285)">
<path d="M476.196 262.904C442.026 322.088 366.347 342.366 307.163 308.196C247.979 274.026 227.701 198.347 261.871 139.163C296.041 79.9785 371.72 59.7004 430.904 93.8705C490.089 128.041 510.367 203.72 476.196 262.904ZM292.979 157.123C268.728 199.127 283.12 252.837 325.124 277.088C367.127 301.339 420.837 286.947 445.088 244.943C469.339 202.94 454.947 149.23 412.944 124.979C370.94 100.728 317.23 115.12 292.979 157.123Z" fill="#0047FF" fill-opacity="0.8"/>
</g>
<g filter="url(#filter6_bii_747_5285)">
<path d="M721.196 260.904C687.026 320.088 611.347 340.366 552.163 306.196C492.979 272.026 472.701 196.347 506.871 137.163C541.041 77.9785 616.72 57.7004 675.904 91.8705C735.089 126.041 755.367 201.72 721.196 260.904ZM537.979 155.123C513.728 197.127 528.12 250.837 570.124 275.088C612.127 299.339 665.837 284.947 690.088 242.943C714.339 200.94 699.947 147.23 657.944 122.979C615.94 98.7281 562.23 113.12 537.979 155.123Z" fill="#0047FF" fill-opacity="0.8"/>
</g>
<g filter="url(#filter7_bii_747_5285)">
<path d="M966.196 260.904C932.026 320.088 856.347 340.366 797.163 306.196C737.979 272.026 717.701 196.347 751.871 137.163C786.041 77.9785 861.72 57.7004 920.904 91.8705C980.089 126.041 1000.37 201.72 966.196 260.904ZM782.979 155.123C758.728 197.127 773.12 250.837 815.124 275.088C857.127 299.339 910.837 284.947 935.088 242.943C959.339 200.94 944.947 147.23 902.944 122.979C860.94 98.7281 807.23 113.12 782.979 155.123Z" fill="#0047FF" fill-opacity="0.8"/>
</g>
<rect x="245.5" y="0.5" width="777" height="401" rx="199.5" stroke="#F5F8FF" stroke-dasharray="11 11"/>
<path d="M107.657 154H102.501V139.455H107.699C109.162 139.455 110.422 139.746 111.478 140.328C112.534 140.906 113.346 141.737 113.914 142.821C114.487 143.905 114.773 145.203 114.773 146.713C114.773 148.228 114.487 149.53 113.914 150.619C113.346 151.708 112.529 152.544 111.464 153.126C110.403 153.709 109.134 154 107.657 154ZM105.576 151.365H107.529C108.438 151.365 109.203 151.204 109.823 150.882C110.448 150.555 110.917 150.051 111.229 149.369C111.546 148.683 111.705 147.797 111.705 146.713C111.705 145.638 111.546 144.76 111.229 144.078C110.917 143.396 110.45 142.894 109.83 142.572C109.21 142.25 108.445 142.089 107.536 142.089H105.576V151.365ZM120.105 154.206C119.409 154.206 118.789 154.085 118.244 153.844C117.7 153.598 117.269 153.235 116.952 152.757C116.639 152.274 116.483 151.673 116.483 150.953C116.483 150.347 116.594 149.838 116.817 149.426C117.039 149.014 117.343 148.683 117.726 148.432C118.11 148.181 118.545 147.991 119.033 147.864C119.525 147.736 120.041 147.646 120.581 147.594C121.216 147.527 121.727 147.466 122.115 147.409C122.503 147.348 122.785 147.258 122.96 147.139C123.136 147.021 123.223 146.846 123.223 146.614V146.571C123.223 146.121 123.081 145.773 122.797 145.527C122.518 145.281 122.12 145.158 121.604 145.158C121.059 145.158 120.626 145.278 120.304 145.52C119.982 145.757 119.769 146.055 119.665 146.415L116.867 146.188C117.009 145.525 117.288 144.952 117.705 144.469C118.121 143.981 118.659 143.607 119.317 143.347C119.98 143.081 120.747 142.949 121.618 142.949C122.224 142.949 122.804 143.02 123.358 143.162C123.917 143.304 124.412 143.524 124.843 143.822C125.278 144.121 125.621 144.504 125.872 144.973C126.123 145.437 126.249 145.993 126.249 146.642V154H123.379V152.487H123.294C123.119 152.828 122.885 153.129 122.591 153.389C122.298 153.645 121.945 153.846 121.533 153.993C121.121 154.135 120.645 154.206 120.105 154.206ZM120.972 152.118C121.417 152.118 121.81 152.03 122.151 151.855C122.492 151.675 122.759 151.434 122.953 151.131C123.147 150.828 123.244 150.484 123.244 150.101V148.943C123.15 149.005 123.02 149.062 122.854 149.114C122.693 149.161 122.511 149.206 122.307 149.249C122.103 149.286 121.9 149.322 121.696 149.355C121.493 149.384 121.308 149.41 121.142 149.433C120.787 149.485 120.477 149.568 120.212 149.682C119.947 149.795 119.741 149.949 119.594 150.143C119.447 150.333 119.374 150.57 119.374 150.854C119.374 151.266 119.523 151.58 119.821 151.798C120.124 152.011 120.508 152.118 120.972 152.118ZM134.399 143.091V145.364H127.829V143.091H134.399ZM129.32 140.477H132.346V150.648C132.346 150.927 132.389 151.145 132.474 151.301C132.559 151.453 132.677 151.559 132.829 151.621C132.985 151.682 133.165 151.713 133.369 151.713C133.511 151.713 133.653 151.701 133.795 151.678C133.937 151.649 134.046 151.628 134.122 151.614L134.597 153.865C134.446 153.912 134.233 153.967 133.958 154.028C133.684 154.095 133.35 154.135 132.957 154.149C132.228 154.178 131.588 154.08 131.039 153.858C130.495 153.635 130.071 153.29 129.768 152.821C129.465 152.352 129.316 151.76 129.32 151.045V140.477ZM139.48 154.206C138.784 154.206 138.164 154.085 137.619 153.844C137.075 153.598 136.644 153.235 136.327 152.757C136.014 152.274 135.858 151.673 135.858 150.953C135.858 150.347 135.969 149.838 136.192 149.426C136.414 149.014 136.718 148.683 137.101 148.432C137.485 148.181 137.92 147.991 138.408 147.864C138.9 147.736 139.416 147.646 139.956 147.594C140.591 147.527 141.102 147.466 141.49 147.409C141.878 147.348 142.16 147.258 142.335 147.139C142.511 147.021 142.598 146.846 142.598 146.614V146.571C142.598 146.121 142.456 145.773 142.172 145.527C141.893 145.281 141.495 145.158 140.979 145.158C140.434 145.158 140.001 145.278 139.679 145.52C139.357 145.757 139.144 146.055 139.04 146.415L136.242 146.188C136.384 145.525 136.663 144.952 137.08 144.469C137.496 143.981 138.034 143.607 138.692 143.347C139.355 143.081 140.122 142.949 140.993 142.949C141.599 142.949 142.179 143.02 142.733 143.162C143.292 143.304 143.787 143.524 144.218 143.822C144.653 144.121 144.996 144.504 145.247 144.973C145.498 145.437 145.624 145.993 145.624 146.642V154H142.754V152.487H142.669C142.494 152.828 142.26 153.129 141.966 153.389C141.673 153.645 141.32 153.846 140.908 153.993C140.496 154.135 140.02 154.206 139.48 154.206ZM140.347 152.118C140.792 152.118 141.185 152.03 141.526 151.855C141.867 151.675 142.134 151.434 142.328 151.131C142.522 150.828 142.619 150.484 142.619 150.101V148.943C142.525 149.005 142.395 149.062 142.229 149.114C142.068 149.161 141.886 149.206 141.682 149.249C141.478 149.286 141.275 149.322 141.071 149.355C140.868 149.384 140.683 149.41 140.517 149.433C140.162 149.485 139.852 149.568 139.587 149.682C139.322 149.795 139.116 149.949 138.969 150.143C138.822 150.333 138.749 150.57 138.749 150.854C138.749 151.266 138.898 151.58 139.196 151.798C139.499 152.011 139.883 152.118 140.347 152.118Z" fill="#F5F8FF"/>
<path d="M318.043 148.455V163H314.967V148.455H318.043ZM323.542 156.693V163H320.516V152.091H323.4V154.016H323.527C323.769 153.381 324.174 152.879 324.742 152.51C325.31 152.136 325.999 151.949 326.809 151.949C327.566 151.949 328.227 152.115 328.79 152.446C329.354 152.777 329.792 153.251 330.104 153.866C330.417 154.477 330.573 155.206 330.573 156.054V163H327.547V156.594C327.552 155.926 327.382 155.405 327.036 155.031C326.69 154.652 326.214 154.463 325.608 154.463C325.201 154.463 324.841 154.551 324.529 154.726C324.221 154.901 323.98 155.157 323.804 155.493C323.634 155.824 323.546 156.224 323.542 156.693ZM338.824 152.091V154.364H332.091V152.091H338.824ZM333.632 163V151.303C333.632 150.512 333.786 149.856 334.094 149.335C334.406 148.814 334.832 148.424 335.372 148.163C335.912 147.903 336.525 147.773 337.212 147.773C337.676 147.773 338.099 147.808 338.483 147.879C338.871 147.95 339.16 148.014 339.349 148.071L338.81 150.344C338.691 150.306 338.545 150.27 338.369 150.237C338.199 150.204 338.024 150.188 337.844 150.188C337.399 150.188 337.089 150.292 336.913 150.5C336.738 150.704 336.651 150.99 336.651 151.359V163H333.632ZM345.211 163.213C344.107 163.213 343.153 162.979 342.348 162.51C341.548 162.036 340.93 161.378 340.495 160.536C340.059 159.688 339.841 158.705 339.841 157.588C339.841 156.461 340.059 155.476 340.495 154.634C340.93 153.786 341.548 153.128 342.348 152.659C343.153 152.186 344.107 151.949 345.211 151.949C346.314 151.949 347.266 152.186 348.066 152.659C348.871 153.128 349.491 153.786 349.926 154.634C350.362 155.476 350.58 156.461 350.58 157.588C350.58 158.705 350.362 159.688 349.926 160.536C349.491 161.378 348.871 162.036 348.066 162.51C347.266 162.979 346.314 163.213 345.211 163.213ZM345.225 160.869C345.727 160.869 346.146 160.727 346.482 160.443C346.818 160.154 347.071 159.761 347.242 159.264C347.417 158.767 347.505 158.201 347.505 157.567C347.505 156.932 347.417 156.366 347.242 155.869C347.071 155.372 346.818 154.979 346.482 154.69C346.146 154.402 345.727 154.257 345.225 154.257C344.718 154.257 344.292 154.402 343.946 154.69C343.605 154.979 343.347 155.372 343.172 155.869C343.002 156.366 342.917 156.932 342.917 157.567C342.917 158.201 343.002 158.767 343.172 159.264C343.347 159.761 343.605 160.154 343.946 160.443C344.292 160.727 344.718 160.869 345.225 160.869ZM352.547 163V152.091H355.48V153.994H355.594C355.793 153.317 356.127 152.806 356.596 152.46C357.064 152.11 357.604 151.935 358.215 151.935C358.366 151.935 358.53 151.944 358.705 151.963C358.88 151.982 359.034 152.008 359.167 152.041V154.726C359.025 154.683 358.828 154.645 358.577 154.612C358.326 154.579 358.096 154.562 357.888 154.562C357.443 154.562 357.045 154.66 356.695 154.854C356.349 155.043 356.075 155.308 355.871 155.649C355.672 155.99 355.573 156.383 355.573 156.828V163H352.547ZM360.731 163V152.091H363.614V154.016H363.742C363.969 153.376 364.348 152.872 364.879 152.503C365.409 152.134 366.043 151.949 366.782 151.949C367.53 151.949 368.167 152.136 368.692 152.51C369.218 152.879 369.568 153.381 369.744 154.016H369.857C370.08 153.391 370.482 152.891 371.065 152.517C371.652 152.138 372.345 151.949 373.146 151.949C374.164 151.949 374.99 152.273 375.624 152.922C376.263 153.566 376.583 154.48 376.583 155.663V163H373.565V156.26C373.565 155.654 373.404 155.199 373.082 154.896C372.76 154.593 372.357 154.442 371.874 154.442C371.325 154.442 370.897 154.617 370.589 154.967C370.281 155.313 370.127 155.77 370.127 156.338V163H367.194V156.196C367.194 155.661 367.04 155.235 366.732 154.918C366.429 154.6 366.029 154.442 365.532 154.442C365.196 154.442 364.893 154.527 364.623 154.697C364.358 154.863 364.147 155.098 363.991 155.401C363.835 155.699 363.756 156.049 363.756 156.452V163H360.731ZM382.084 163.206C381.388 163.206 380.768 163.085 380.223 162.844C379.679 162.598 379.248 162.235 378.93 161.757C378.618 161.274 378.462 160.673 378.462 159.953C378.462 159.347 378.573 158.838 378.795 158.426C379.018 158.014 379.321 157.683 379.705 157.432C380.088 157.181 380.524 156.991 381.011 156.864C381.504 156.736 382.02 156.646 382.56 156.594C383.194 156.527 383.705 156.466 384.094 156.409C384.482 156.348 384.764 156.258 384.939 156.139C385.114 156.021 385.202 155.846 385.202 155.614V155.571C385.202 155.121 385.06 154.773 384.776 154.527C384.496 154.281 384.098 154.158 383.582 154.158C383.038 154.158 382.605 154.278 382.283 154.52C381.961 154.757 381.748 155.055 381.643 155.415L378.845 155.188C378.987 154.525 379.267 153.952 379.683 153.469C380.1 152.981 380.637 152.607 381.295 152.347C381.958 152.081 382.725 151.949 383.597 151.949C384.203 151.949 384.783 152.02 385.337 152.162C385.895 152.304 386.39 152.524 386.821 152.822C387.257 153.121 387.6 153.504 387.851 153.973C388.102 154.437 388.227 154.993 388.227 155.642V163H385.358V161.487H385.273C385.098 161.828 384.863 162.129 384.57 162.389C384.276 162.645 383.923 162.846 383.511 162.993C383.099 163.135 382.624 163.206 382.084 163.206ZM382.95 161.118C383.395 161.118 383.788 161.03 384.129 160.855C384.47 160.675 384.738 160.434 384.932 160.131C385.126 159.828 385.223 159.484 385.223 159.101V157.943C385.128 158.005 384.998 158.062 384.832 158.114C384.671 158.161 384.489 158.206 384.286 158.249C384.082 158.286 383.878 158.322 383.675 158.355C383.471 158.384 383.286 158.41 383.121 158.433C382.766 158.485 382.455 158.568 382.19 158.682C381.925 158.795 381.719 158.949 381.572 159.143C381.426 159.333 381.352 159.57 381.352 159.854C381.352 160.266 381.501 160.58 381.8 160.798C382.103 161.011 382.486 161.118 382.95 161.118ZM396.377 152.091V154.364H389.808V152.091H396.377ZM391.299 149.477H394.325V159.648C394.325 159.927 394.367 160.145 394.452 160.301C394.538 160.453 394.656 160.559 394.808 160.621C394.964 160.682 395.144 160.713 395.347 160.713C395.489 160.713 395.631 160.701 395.773 160.678C395.915 160.649 396.024 160.628 396.1 160.614L396.576 162.865C396.424 162.912 396.211 162.967 395.937 163.028C395.662 163.095 395.328 163.135 394.935 163.149C394.206 163.178 393.567 163.08 393.018 162.858C392.473 162.635 392.049 162.29 391.746 161.821C391.443 161.352 391.294 160.76 391.299 160.045V149.477ZM398.348 163V152.091H401.374V163H398.348ZM399.868 150.685C399.418 150.685 399.032 150.536 398.71 150.237C398.393 149.934 398.234 149.572 398.234 149.151C398.234 148.734 398.393 148.376 398.71 148.078C399.032 147.775 399.418 147.624 399.868 147.624C400.318 147.624 400.701 147.775 401.018 148.078C401.34 148.376 401.501 148.734 401.501 149.151C401.501 149.572 401.34 149.934 401.018 150.237C400.701 150.536 400.318 150.685 399.868 150.685ZM408.726 163.213C407.623 163.213 406.669 162.979 405.864 162.51C405.064 162.036 404.446 161.378 404.01 160.536C403.575 159.688 403.357 158.705 403.357 157.588C403.357 156.461 403.575 155.476 404.01 154.634C404.446 153.786 405.064 153.128 405.864 152.659C406.669 152.186 407.623 151.949 408.726 151.949C409.829 151.949 410.781 152.186 411.581 152.659C412.386 153.128 413.007 153.786 413.442 154.634C413.878 155.476 414.096 156.461 414.096 157.588C414.096 158.705 413.878 159.688 413.442 160.536C413.007 161.378 412.386 162.036 411.581 162.51C410.781 162.979 409.829 163.213 408.726 163.213ZM408.74 160.869C409.242 160.869 409.661 160.727 409.998 160.443C410.334 160.154 410.587 159.761 410.757 159.264C410.933 158.767 411.02 158.201 411.02 157.567C411.02 156.932 410.933 156.366 410.757 155.869C410.587 155.372 410.334 154.979 409.998 154.69C409.661 154.402 409.242 154.257 408.74 154.257C408.234 154.257 407.808 154.402 407.462 154.69C407.121 154.979 406.863 155.372 406.688 155.869C406.517 156.366 406.432 156.932 406.432 157.567C406.432 158.201 406.517 158.767 406.688 159.264C406.863 159.761 407.121 160.154 407.462 160.443C407.808 160.727 408.234 160.869 408.74 160.869ZM419.088 156.693V163H416.063V152.091H418.946V154.016H419.074C419.316 153.381 419.721 152.879 420.289 152.51C420.857 152.136 421.546 151.949 422.355 151.949C423.113 151.949 423.774 152.115 424.337 152.446C424.9 152.777 425.338 153.251 425.651 153.866C425.963 154.477 426.12 155.206 426.12 156.054V163H423.094V156.594C423.099 155.926 422.928 155.405 422.583 155.031C422.237 154.652 421.761 154.463 421.155 154.463C420.748 154.463 420.388 154.551 420.076 154.726C419.768 154.901 419.526 155.157 419.351 155.493C419.181 155.824 419.093 156.224 419.088 156.693Z" fill="#F5F8FF"/>
<path d="M559.784 163V148.455H562.859V154.868H563.051L568.285 148.455H571.971L566.574 154.967L572.035 163H568.356L564.372 157.02L562.859 158.866V163H559.784ZM576.542 156.693V163H573.516V152.091H576.4V154.016H576.527C576.769 153.381 577.174 152.879 577.742 152.51C578.31 152.136 578.999 151.949 579.809 151.949C580.566 151.949 581.227 152.115 581.79 152.446C582.354 152.777 582.792 153.251 583.104 153.866C583.417 154.477 583.573 155.206 583.573 156.054V163H580.547V156.594C580.552 155.926 580.382 155.405 580.036 155.031C579.69 154.652 579.214 154.463 578.608 154.463C578.201 154.463 577.841 154.551 577.529 154.726C577.221 154.901 576.98 155.157 576.804 155.493C576.634 155.824 576.546 156.224 576.542 156.693ZM590.886 163.213C589.783 163.213 588.829 162.979 588.024 162.51C587.224 162.036 586.606 161.378 586.17 160.536C585.735 159.688 585.517 158.705 585.517 157.588C585.517 156.461 585.735 155.476 586.17 154.634C586.606 153.786 587.224 153.128 588.024 152.659C588.829 152.186 589.783 151.949 590.886 151.949C591.99 151.949 592.941 152.186 593.741 152.659C594.546 153.128 595.167 153.786 595.602 154.634C596.038 155.476 596.256 156.461 596.256 157.588C596.256 158.705 596.038 159.688 595.602 160.536C595.167 161.378 594.546 162.036 593.741 162.51C592.941 162.979 591.99 163.213 590.886 163.213ZM590.901 160.869C591.402 160.869 591.821 160.727 592.158 160.443C592.494 160.154 592.747 159.761 592.918 159.264C593.093 158.767 593.18 158.201 593.18 157.567C593.18 156.932 593.093 156.366 592.918 155.869C592.747 155.372 592.494 154.979 592.158 154.69C591.821 154.402 591.402 154.257 590.901 154.257C590.394 154.257 589.968 154.402 589.622 154.69C589.281 154.979 589.023 155.372 588.848 155.869C588.678 156.366 588.592 156.932 588.592 157.567C588.592 158.201 588.678 158.767 588.848 159.264C589.023 159.761 589.281 160.154 589.622 160.443C589.968 160.727 590.394 160.869 590.901 160.869ZM600.102 163L597.133 152.091H600.194L601.884 159.42H601.984L603.745 152.091H606.749L608.539 159.378H608.631L610.293 152.091H613.347L610.386 163H607.183L605.308 156.139H605.173L603.298 163H600.102ZM617.987 148.455V163H614.961V148.455H617.987ZM625.382 163.213C624.26 163.213 623.294 162.986 622.484 162.531C621.679 162.072 621.059 161.423 620.624 160.585C620.188 159.742 619.97 158.746 619.97 157.595C619.97 156.473 620.188 155.488 620.624 154.641C621.059 153.793 621.672 153.133 622.463 152.659C623.259 152.186 624.191 151.949 625.261 151.949C625.981 151.949 626.651 152.065 627.271 152.297C627.896 152.524 628.441 152.867 628.905 153.327C629.374 153.786 629.738 154.364 629.999 155.06C630.259 155.751 630.389 156.561 630.389 157.489V158.32H621.178V156.445H627.541C627.541 156.009 627.446 155.623 627.257 155.287C627.068 154.951 626.805 154.688 626.469 154.499C626.137 154.304 625.751 154.207 625.311 154.207C624.852 154.207 624.445 154.314 624.089 154.527C623.739 154.735 623.464 155.017 623.266 155.372C623.067 155.723 622.965 156.113 622.96 156.544V158.327C622.96 158.866 623.06 159.333 623.259 159.726C623.462 160.119 623.749 160.422 624.118 160.635C624.487 160.848 624.925 160.955 625.432 160.955C625.768 160.955 626.076 160.907 626.355 160.812C626.634 160.718 626.874 160.576 627.072 160.386C627.271 160.197 627.423 159.965 627.527 159.69L630.325 159.875C630.183 160.547 629.892 161.134 629.452 161.636C629.016 162.134 628.453 162.522 627.761 162.801C627.075 163.076 626.282 163.213 625.382 163.213ZM636.384 163.178C635.555 163.178 634.804 162.964 634.132 162.538C633.464 162.107 632.934 161.475 632.541 160.642C632.153 159.804 631.959 158.777 631.959 157.56C631.959 156.31 632.16 155.27 632.562 154.442C632.965 153.608 633.5 152.986 634.168 152.574C634.84 152.157 635.576 151.949 636.376 151.949C636.987 151.949 637.496 152.053 637.903 152.261C638.315 152.465 638.647 152.721 638.898 153.028C639.153 153.331 639.348 153.63 639.48 153.923H639.572V148.455H642.591V163H639.608V161.253H639.48C639.338 161.556 639.137 161.857 638.876 162.155C638.621 162.448 638.287 162.692 637.875 162.886C637.468 163.08 636.971 163.178 636.384 163.178ZM637.342 160.77C637.83 160.77 638.242 160.637 638.578 160.372C638.919 160.102 639.179 159.726 639.359 159.243C639.544 158.76 639.636 158.194 639.636 157.545C639.636 156.897 639.546 156.333 639.366 155.855C639.187 155.377 638.926 155.008 638.585 154.747C638.244 154.487 637.83 154.357 637.342 154.357C636.845 154.357 636.426 154.491 636.085 154.761C635.744 155.031 635.486 155.405 635.311 155.884C635.136 156.362 635.048 156.916 635.048 157.545C635.048 158.18 635.136 158.741 635.311 159.229C635.491 159.712 635.749 160.09 636.085 160.365C636.426 160.635 636.845 160.77 637.342 160.77ZM649.993 167.318C649.013 167.318 648.173 167.183 647.472 166.913C646.776 166.648 646.222 166.286 645.81 165.827C645.398 165.367 645.131 164.851 645.007 164.278L647.806 163.902C647.891 164.12 648.026 164.323 648.211 164.513C648.395 164.702 648.639 164.854 648.942 164.967C649.25 165.086 649.624 165.145 650.064 165.145C650.722 165.145 651.265 164.984 651.691 164.662C652.122 164.345 652.337 163.812 652.337 163.064V161.068H652.209C652.077 161.371 651.878 161.658 651.613 161.928C651.347 162.197 651.007 162.418 650.59 162.588C650.173 162.759 649.676 162.844 649.098 162.844C648.279 162.844 647.533 162.654 646.861 162.276C646.194 161.892 645.661 161.307 645.263 160.521C644.87 159.731 644.674 158.732 644.674 157.524C644.674 156.288 644.875 155.256 645.277 154.428C645.68 153.599 646.215 152.979 646.882 152.567C647.555 152.155 648.291 151.949 649.091 151.949C649.702 151.949 650.213 152.053 650.625 152.261C651.037 152.465 651.369 152.721 651.62 153.028C651.875 153.331 652.072 153.63 652.209 153.923H652.323V152.091H655.327V163.107C655.327 164.035 655.1 164.811 654.645 165.436C654.191 166.061 653.561 166.53 652.756 166.842C651.956 167.16 651.035 167.318 649.993 167.318ZM650.057 160.571C650.545 160.571 650.957 160.45 651.293 160.209C651.634 159.963 651.894 159.612 652.074 159.158C652.259 158.698 652.351 158.149 652.351 157.51C652.351 156.871 652.261 156.317 652.081 155.848C651.901 155.375 651.641 155.008 651.3 154.747C650.959 154.487 650.545 154.357 650.057 154.357C649.56 154.357 649.141 154.491 648.8 154.761C648.459 155.027 648.201 155.396 648.026 155.869C647.851 156.343 647.763 156.89 647.763 157.51C647.763 158.14 647.851 158.684 648.026 159.143C648.206 159.598 648.464 159.951 648.8 160.202C649.141 160.448 649.56 160.571 650.057 160.571ZM662.706 163.213C661.584 163.213 660.618 162.986 659.809 162.531C659.004 162.072 658.383 161.423 657.948 160.585C657.512 159.742 657.294 158.746 657.294 157.595C657.294 156.473 657.512 155.488 657.948 154.641C658.383 153.793 658.997 153.133 659.787 152.659C660.583 152.186 661.516 151.949 662.586 151.949C663.305 151.949 663.975 152.065 664.596 152.297C665.221 152.524 665.765 152.867 666.229 153.327C666.698 153.786 667.062 154.364 667.323 155.06C667.583 155.751 667.713 156.561 667.713 157.489V158.32H658.502V156.445H664.865C664.865 156.009 664.771 155.623 664.581 155.287C664.392 154.951 664.129 154.688 663.793 154.499C663.462 154.304 663.076 154.207 662.635 154.207C662.176 154.207 661.769 154.314 661.414 154.527C661.063 154.735 660.789 155.017 660.59 155.372C660.391 155.723 660.289 156.113 660.284 156.544V158.327C660.284 158.866 660.384 159.333 660.583 159.726C660.786 160.119 661.073 160.422 661.442 160.635C661.811 160.848 662.249 160.955 662.756 160.955C663.092 160.955 663.4 160.907 663.679 160.812C663.959 160.718 664.198 160.576 664.397 160.386C664.596 160.197 664.747 159.965 664.851 159.69L667.65 159.875C667.507 160.547 667.216 161.134 666.776 161.636C666.34 162.134 665.777 162.522 665.086 162.801C664.399 163.076 663.606 163.213 662.706 163.213Z" fill="#F5F8FF"/>
<path d="M575.097 236.71C575.052 236.252 574.857 235.896 574.512 235.642C574.167 235.388 573.7 235.261 573.109 235.261C572.707 235.261 572.368 235.318 572.092 235.432C571.815 235.542 571.603 235.695 571.455 235.892C571.311 236.089 571.239 236.312 571.239 236.562C571.232 236.771 571.275 236.953 571.37 237.108C571.469 237.263 571.603 237.398 571.773 237.511C571.944 237.621 572.141 237.718 572.364 237.801C572.588 237.881 572.826 237.949 573.08 238.006L574.126 238.256C574.633 238.369 575.099 238.521 575.523 238.71C575.948 238.9 576.315 239.133 576.626 239.409C576.936 239.686 577.177 240.011 577.347 240.386C577.522 240.761 577.611 241.191 577.614 241.676C577.611 242.388 577.429 243.006 577.069 243.528C576.713 244.047 576.198 244.451 575.523 244.739C574.853 245.023 574.044 245.165 573.097 245.165C572.158 245.165 571.34 245.021 570.643 244.733C569.95 244.445 569.408 244.019 569.018 243.455C568.631 242.886 568.429 242.184 568.41 241.347H570.79C570.817 241.737 570.929 242.062 571.126 242.324C571.326 242.581 571.594 242.777 571.927 242.909C572.264 243.038 572.645 243.102 573.069 243.102C573.486 243.102 573.847 243.042 574.154 242.92C574.465 242.799 574.705 242.631 574.876 242.415C575.046 242.199 575.131 241.951 575.131 241.67C575.131 241.409 575.054 241.189 574.898 241.011C574.747 240.833 574.523 240.682 574.228 240.557C573.936 240.432 573.578 240.318 573.154 240.216L571.887 239.898C570.906 239.659 570.131 239.286 569.563 238.778C568.995 238.271 568.713 237.587 568.717 236.727C568.713 236.023 568.9 235.407 569.279 234.881C569.662 234.354 570.186 233.943 570.853 233.648C571.52 233.352 572.277 233.205 573.126 233.205C573.989 233.205 574.743 233.352 575.387 233.648C576.035 233.943 576.539 234.354 576.898 234.881C577.258 235.407 577.444 236.017 577.455 236.71H575.097ZM583.866 236.273V238.091H578.61V236.273H583.866ZM579.803 234.182H582.224V242.318C582.224 242.542 582.258 242.716 582.326 242.841C582.394 242.962 582.489 243.047 582.61 243.097C582.735 243.146 582.879 243.17 583.042 243.17C583.156 243.17 583.269 243.161 583.383 243.142C583.496 243.119 583.584 243.102 583.644 243.091L584.025 244.892C583.904 244.93 583.733 244.973 583.513 245.023C583.294 245.076 583.027 245.108 582.712 245.119C582.129 245.142 581.618 245.064 581.178 244.886C580.743 244.708 580.404 244.432 580.161 244.057C579.919 243.682 579.799 243.208 579.803 242.636V234.182ZM589.292 245.17C588.409 245.17 587.646 244.983 587.002 244.608C586.362 244.229 585.868 243.703 585.519 243.028C585.171 242.35 584.996 241.564 584.996 240.67C584.996 239.769 585.171 238.981 585.519 238.307C585.868 237.629 586.362 237.102 587.002 236.727C587.646 236.348 588.409 236.159 589.292 236.159C590.174 236.159 590.936 236.348 591.576 236.727C592.22 237.102 592.716 237.629 593.065 238.307C593.413 238.981 593.587 239.769 593.587 240.67C593.587 241.564 593.413 242.35 593.065 243.028C592.716 243.703 592.22 244.229 591.576 244.608C590.936 244.983 590.174 245.17 589.292 245.17ZM589.303 243.295C589.705 243.295 590.04 243.182 590.309 242.955C590.578 242.723 590.781 242.409 590.917 242.011C591.057 241.614 591.127 241.161 591.127 240.653C591.127 240.146 591.057 239.693 590.917 239.295C590.781 238.898 590.578 238.583 590.309 238.352C590.04 238.121 589.705 238.006 589.303 238.006C588.898 238.006 588.557 238.121 588.281 238.352C588.008 238.583 587.801 238.898 587.661 239.295C587.525 239.693 587.457 240.146 587.457 240.653C587.457 241.161 587.525 241.614 587.661 242.011C587.801 242.409 588.008 242.723 588.281 242.955C588.557 243.182 588.898 243.295 589.303 243.295ZM595.161 245V236.273H597.508V237.795H597.599C597.758 237.254 598.025 236.845 598.4 236.568C598.775 236.288 599.207 236.148 599.695 236.148C599.817 236.148 599.947 236.155 600.087 236.17C600.228 236.186 600.351 236.206 600.457 236.233V238.381C600.343 238.347 600.186 238.316 599.985 238.29C599.784 238.263 599.601 238.25 599.434 238.25C599.078 238.25 598.76 238.328 598.479 238.483C598.203 238.634 597.983 238.847 597.82 239.119C597.661 239.392 597.582 239.706 597.582 240.062V245H595.161ZM603.468 248.273C603.161 248.273 602.873 248.248 602.604 248.199C602.339 248.153 602.12 248.095 601.945 248.023L602.491 246.216C602.775 246.303 603.031 246.35 603.258 246.358C603.489 246.366 603.688 246.313 603.854 246.199C604.025 246.085 604.163 245.892 604.269 245.619L604.411 245.25L601.281 236.273H603.826L605.633 242.682H605.724L607.548 236.273H610.11L606.718 245.943C606.555 246.413 606.334 246.822 606.053 247.17C605.777 247.523 605.426 247.794 605.002 247.983C604.578 248.176 604.067 248.273 603.468 248.273ZM615.991 236.273V238.091H610.735V236.273H615.991ZM611.928 234.182H614.349V242.318C614.349 242.542 614.383 242.716 614.451 242.841C614.519 242.962 614.614 243.047 614.735 243.097C614.86 243.146 615.004 243.17 615.167 243.17C615.281 243.17 615.394 243.161 615.508 243.142C615.621 243.119 615.709 243.102 615.769 243.091L616.15 244.892C616.029 244.93 615.858 244.973 615.638 245.023C615.419 245.076 615.152 245.108 614.837 245.119C614.254 245.142 613.743 245.064 613.303 244.886C612.868 244.708 612.529 244.432 612.286 244.057C612.044 243.682 611.924 243.208 611.928 242.636V234.182ZM621.451 245.17C620.553 245.17 619.781 244.989 619.133 244.625C618.489 244.258 617.993 243.739 617.644 243.068C617.296 242.394 617.121 241.597 617.121 240.676C617.121 239.778 617.296 238.991 617.644 238.312C617.993 237.634 618.483 237.106 619.116 236.727C619.752 236.348 620.498 236.159 621.354 236.159C621.93 236.159 622.466 236.252 622.962 236.438C623.462 236.619 623.898 236.894 624.269 237.261C624.644 237.629 624.936 238.091 625.144 238.648C625.353 239.201 625.457 239.848 625.457 240.591V241.256H618.087V239.756H623.178C623.178 239.407 623.103 239.098 622.951 238.83C622.799 238.561 622.589 238.35 622.32 238.199C622.055 238.044 621.746 237.966 621.394 237.966C621.027 237.966 620.701 238.051 620.417 238.222C620.137 238.388 619.917 238.614 619.758 238.898C619.599 239.178 619.517 239.491 619.513 239.835V241.261C619.513 241.693 619.593 242.066 619.752 242.381C619.915 242.695 620.144 242.938 620.44 243.108C620.735 243.278 621.085 243.364 621.491 243.364C621.76 243.364 622.006 243.326 622.229 243.25C622.453 243.174 622.644 243.061 622.803 242.909C622.962 242.758 623.084 242.572 623.167 242.352L625.406 242.5C625.292 243.038 625.059 243.508 624.707 243.909C624.358 244.307 623.907 244.617 623.354 244.841C622.805 245.061 622.171 245.17 621.451 245.17ZM629.457 233.364V245H627.036V233.364H629.457ZM633.816 233.364V245H631.396V233.364H633.816ZM635.755 245V236.273H638.175V245H635.755ZM636.971 235.148C636.611 235.148 636.302 235.028 636.045 234.79C635.791 234.547 635.664 234.258 635.664 233.92C635.664 233.587 635.791 233.301 636.045 233.062C636.302 232.82 636.611 232.699 636.971 232.699C637.331 232.699 637.638 232.82 637.891 233.062C638.149 233.301 638.278 233.587 638.278 233.92C638.278 234.258 638.149 234.547 637.891 234.79C637.638 235.028 637.331 235.148 636.971 235.148ZM642.535 239.955V245H640.114V236.273H642.421V237.812H642.523C642.717 237.305 643.04 236.903 643.495 236.608C643.95 236.309 644.501 236.159 645.148 236.159C645.754 236.159 646.283 236.292 646.734 236.557C647.184 236.822 647.535 237.201 647.785 237.693C648.035 238.182 648.16 238.765 648.16 239.443V245H645.739V239.875C645.743 239.341 645.607 238.924 645.33 238.625C645.054 238.322 644.673 238.17 644.188 238.17C643.862 238.17 643.575 238.241 643.325 238.381C643.078 238.521 642.885 238.725 642.745 238.994C642.609 239.259 642.539 239.58 642.535 239.955ZM653.999 248.455C653.215 248.455 652.543 248.347 651.982 248.131C651.425 247.919 650.982 247.629 650.653 247.261C650.323 246.894 650.109 246.481 650.011 246.023L652.249 245.722C652.317 245.896 652.425 246.059 652.573 246.21C652.721 246.362 652.916 246.483 653.158 246.574C653.405 246.669 653.704 246.716 654.056 246.716C654.583 246.716 655.016 246.587 655.357 246.33C655.702 246.076 655.874 245.65 655.874 245.051V243.455H655.772C655.666 243.697 655.507 243.926 655.295 244.142C655.083 244.358 654.81 244.534 654.477 244.67C654.143 244.807 653.746 244.875 653.283 244.875C652.628 244.875 652.031 244.723 651.494 244.42C650.96 244.114 650.533 243.646 650.215 243.017C649.901 242.384 649.744 241.585 649.744 240.619C649.744 239.631 649.905 238.805 650.227 238.142C650.549 237.479 650.977 236.983 651.511 236.653C652.049 236.324 652.638 236.159 653.278 236.159C653.766 236.159 654.175 236.242 654.505 236.409C654.835 236.572 655.1 236.777 655.3 237.023C655.505 237.265 655.662 237.504 655.772 237.739H655.863V236.273H658.266V245.085C658.266 245.828 658.085 246.449 657.721 246.949C657.357 247.449 656.853 247.824 656.21 248.074C655.569 248.328 654.833 248.455 653.999 248.455ZM654.05 243.057C654.441 243.057 654.77 242.96 655.039 242.767C655.312 242.57 655.52 242.29 655.664 241.926C655.812 241.559 655.886 241.119 655.886 240.608C655.886 240.097 655.814 239.653 655.67 239.278C655.526 238.9 655.317 238.606 655.045 238.398C654.772 238.189 654.441 238.085 654.05 238.085C653.653 238.085 653.317 238.193 653.045 238.409C652.772 238.621 652.566 238.917 652.425 239.295C652.285 239.674 652.215 240.112 652.215 240.608C652.215 241.112 652.285 241.547 652.425 241.915C652.569 242.278 652.776 242.561 653.045 242.761C653.317 242.958 653.653 243.057 654.05 243.057Z" fill="#F5F8FF"/>
<path d="M805.919 245V236.273H808.339V245H805.919ZM807.135 235.148C806.775 235.148 806.466 235.028 806.209 234.79C805.955 234.547 805.828 234.258 805.828 233.92C805.828 233.587 805.955 233.301 806.209 233.062C806.466 232.82 806.775 232.699 807.135 232.699C807.495 232.699 807.802 232.82 808.055 233.062C808.313 233.301 808.442 233.587 808.442 233.92C808.442 234.258 808.313 234.547 808.055 234.79C807.802 235.028 807.495 235.148 807.135 235.148ZM812.699 239.955V245H810.278V236.273H812.585V237.812H812.688C812.881 237.305 813.205 236.903 813.659 236.608C814.114 236.309 814.665 236.159 815.312 236.159C815.919 236.159 816.447 236.292 816.898 236.557C817.348 236.822 817.699 237.201 817.949 237.693C818.199 238.182 818.324 238.765 818.324 239.443V245H815.903V239.875C815.907 239.341 815.771 238.924 815.494 238.625C815.218 238.322 814.837 238.17 814.352 238.17C814.027 238.17 813.739 238.241 813.489 238.381C813.242 238.521 813.049 238.725 812.909 238.994C812.773 239.259 812.703 239.58 812.699 239.955ZM824.874 236.273V238.091H819.618V236.273H824.874ZM820.811 234.182H823.232V242.318C823.232 242.542 823.266 242.716 823.334 242.841C823.402 242.962 823.497 243.047 823.618 243.097C823.743 243.146 823.887 243.17 824.05 243.17C824.163 243.17 824.277 243.161 824.391 243.142C824.504 243.119 824.591 243.102 824.652 243.091L825.033 244.892C824.911 244.93 824.741 244.973 824.521 245.023C824.302 245.076 824.035 245.108 823.72 245.119C823.137 245.142 822.625 245.064 822.186 244.886C821.75 244.708 821.411 244.432 821.169 244.057C820.927 243.682 820.807 243.208 820.811 242.636V234.182ZM830.334 245.17C829.436 245.17 828.663 244.989 828.016 244.625C827.372 244.258 826.875 243.739 826.527 243.068C826.179 242.394 826.004 241.597 826.004 240.676C826.004 239.778 826.179 238.991 826.527 238.312C826.875 237.634 827.366 237.106 827.999 236.727C828.635 236.348 829.381 236.159 830.237 236.159C830.813 236.159 831.349 236.252 831.845 236.438C832.345 236.619 832.781 236.894 833.152 237.261C833.527 237.629 833.819 238.091 834.027 238.648C834.235 239.201 834.339 239.848 834.339 240.591V241.256H826.97V239.756H832.061C832.061 239.407 831.985 239.098 831.834 238.83C831.682 238.561 831.472 238.35 831.203 238.199C830.938 238.044 830.629 237.966 830.277 237.966C829.91 237.966 829.584 238.051 829.3 238.222C829.019 238.388 828.8 238.614 828.641 238.898C828.482 239.178 828.4 239.491 828.396 239.835V241.261C828.396 241.693 828.476 242.066 828.635 242.381C828.798 242.695 829.027 242.938 829.322 243.108C829.618 243.278 829.968 243.364 830.374 243.364C830.643 243.364 830.889 243.326 831.112 243.25C831.336 243.174 831.527 243.061 831.686 242.909C831.845 242.758 831.966 242.572 832.05 242.352L834.288 242.5C834.175 243.038 833.942 243.508 833.589 243.909C833.241 244.307 832.79 244.617 832.237 244.841C831.688 245.061 831.054 245.17 830.334 245.17ZM835.919 245V236.273H838.266V237.795H838.357C838.516 237.254 838.783 236.845 839.158 236.568C839.533 236.288 839.964 236.148 840.453 236.148C840.574 236.148 840.705 236.155 840.845 236.17C840.985 236.186 841.108 236.206 841.214 236.233V238.381C841.101 238.347 840.944 238.316 840.743 238.29C840.542 238.263 840.358 238.25 840.192 238.25C839.836 238.25 839.518 238.328 839.237 238.483C838.961 238.634 838.741 238.847 838.578 239.119C838.419 239.392 838.339 239.706 838.339 240.062V245H835.919ZM842.466 248.273V236.273H844.852V237.739H844.96C845.066 237.504 845.22 237.265 845.42 237.023C845.625 236.777 845.89 236.572 846.216 236.409C846.545 236.242 846.955 236.159 847.443 236.159C848.08 236.159 848.667 236.326 849.205 236.659C849.742 236.989 850.172 237.487 850.494 238.153C850.816 238.816 850.977 239.648 850.977 240.648C850.977 241.621 850.82 242.443 850.506 243.114C850.195 243.78 849.771 244.286 849.233 244.631C848.699 244.972 848.1 245.142 847.438 245.142C846.968 245.142 846.568 245.064 846.239 244.909C845.913 244.754 845.646 244.559 845.438 244.324C845.229 244.085 845.07 243.845 844.96 243.602H844.886V248.273H842.466ZM844.835 240.636C844.835 241.155 844.907 241.608 845.051 241.994C845.195 242.381 845.403 242.682 845.676 242.898C845.949 243.11 846.28 243.216 846.67 243.216C847.064 243.216 847.398 243.108 847.67 242.892C847.943 242.672 848.15 242.369 848.29 241.983C848.434 241.593 848.506 241.144 848.506 240.636C848.506 240.133 848.436 239.689 848.295 239.307C848.155 238.924 847.949 238.625 847.676 238.409C847.403 238.193 847.068 238.085 846.67 238.085C846.277 238.085 845.943 238.189 845.67 238.398C845.402 238.606 845.195 238.902 845.051 239.284C844.907 239.667 844.835 240.117 844.835 240.636ZM852.591 245V236.273H854.938V237.795H855.028C855.188 237.254 855.455 236.845 855.83 236.568C856.205 236.288 856.636 236.148 857.125 236.148C857.246 236.148 857.377 236.155 857.517 236.17C857.657 236.186 857.78 236.206 857.886 236.233V238.381C857.773 238.347 857.616 238.316 857.415 238.29C857.214 238.263 857.03 238.25 856.864 238.25C856.508 238.25 856.189 238.328 855.909 238.483C855.633 238.634 855.413 238.847 855.25 239.119C855.091 239.392 855.011 239.706 855.011 240.062V245H852.591ZM861.376 245.165C860.82 245.165 860.323 245.068 859.888 244.875C859.452 244.678 859.107 244.388 858.854 244.006C858.604 243.619 858.479 243.138 858.479 242.562C858.479 242.078 858.568 241.67 858.746 241.341C858.924 241.011 859.166 240.746 859.473 240.545C859.78 240.345 860.128 240.193 860.518 240.091C860.912 239.989 861.325 239.917 861.757 239.875C862.265 239.822 862.674 239.773 862.984 239.727C863.295 239.678 863.52 239.606 863.661 239.511C863.801 239.417 863.871 239.277 863.871 239.091V239.057C863.871 238.697 863.757 238.419 863.53 238.222C863.306 238.025 862.988 237.926 862.575 237.926C862.14 237.926 861.793 238.023 861.536 238.216C861.278 238.405 861.107 238.644 861.024 238.932L858.786 238.75C858.899 238.22 859.123 237.761 859.456 237.375C859.789 236.985 860.219 236.686 860.746 236.477C861.276 236.265 861.89 236.159 862.587 236.159C863.071 236.159 863.536 236.216 863.979 236.33C864.426 236.443 864.821 236.619 865.166 236.858C865.515 237.097 865.789 237.403 865.99 237.778C866.191 238.15 866.291 238.595 866.291 239.114V245H863.996V243.79H863.928C863.787 244.062 863.6 244.303 863.365 244.511C863.13 244.716 862.848 244.877 862.518 244.994C862.189 245.108 861.808 245.165 861.376 245.165ZM862.07 243.494C862.426 243.494 862.74 243.424 863.013 243.284C863.286 243.14 863.5 242.947 863.655 242.705C863.81 242.462 863.888 242.187 863.888 241.881V240.955C863.812 241.004 863.708 241.049 863.575 241.091C863.446 241.129 863.301 241.165 863.138 241.199C862.975 241.229 862.812 241.258 862.649 241.284C862.486 241.307 862.339 241.328 862.206 241.347C861.922 241.388 861.674 241.455 861.462 241.545C861.25 241.636 861.085 241.759 860.967 241.915C860.85 242.066 860.791 242.256 860.791 242.483C860.791 242.812 860.911 243.064 861.149 243.239C861.392 243.409 861.698 243.494 862.07 243.494ZM872.811 236.273V238.091H867.555V236.273H872.811ZM868.749 234.182H871.169V242.318C871.169 242.542 871.203 242.716 871.271 242.841C871.339 242.962 871.434 243.047 871.555 243.097C871.68 243.146 871.824 243.17 871.987 243.17C872.101 243.17 872.214 243.161 872.328 243.142C872.442 243.119 872.529 243.102 872.589 243.091L872.97 244.892C872.849 244.93 872.679 244.973 872.459 245.023C872.239 245.076 871.972 245.108 871.658 245.119C871.074 245.142 870.563 245.064 870.124 244.886C869.688 244.708 869.349 244.432 869.107 244.057C868.864 243.682 868.745 243.208 868.749 242.636V234.182ZM876.876 245.165C876.32 245.165 875.823 245.068 875.388 244.875C874.952 244.678 874.607 244.388 874.354 244.006C874.104 243.619 873.979 243.138 873.979 242.562C873.979 242.078 874.068 241.67 874.246 241.341C874.424 241.011 874.666 240.746 874.973 240.545C875.28 240.345 875.628 240.193 876.018 240.091C876.412 239.989 876.825 239.917 877.257 239.875C877.765 239.822 878.174 239.773 878.484 239.727C878.795 239.678 879.02 239.606 879.161 239.511C879.301 239.417 879.371 239.277 879.371 239.091V239.057C879.371 238.697 879.257 238.419 879.03 238.222C878.806 238.025 878.488 237.926 878.075 237.926C877.64 237.926 877.293 238.023 877.036 238.216C876.778 238.405 876.607 238.644 876.524 238.932L874.286 238.75C874.399 238.22 874.623 237.761 874.956 237.375C875.289 236.985 875.719 236.686 876.246 236.477C876.776 236.265 877.39 236.159 878.087 236.159C878.571 236.159 879.036 236.216 879.479 236.33C879.926 236.443 880.321 236.619 880.666 236.858C881.015 237.097 881.289 237.403 881.49 237.778C881.691 238.15 881.791 238.595 881.791 239.114V245H879.496V243.79H879.428C879.287 244.062 879.1 244.303 878.865 244.511C878.63 244.716 878.348 244.877 878.018 244.994C877.689 245.108 877.308 245.165 876.876 245.165ZM877.57 243.494C877.926 243.494 878.24 243.424 878.513 243.284C878.786 243.14 879 242.947 879.155 242.705C879.31 242.462 879.388 242.187 879.388 241.881V240.955C879.312 241.004 879.208 241.049 879.075 241.091C878.946 241.129 878.801 241.165 878.638 241.199C878.475 241.229 878.312 241.258 878.149 241.284C877.986 241.307 877.839 241.328 877.706 241.347C877.422 241.388 877.174 241.455 876.962 241.545C876.75 241.636 876.585 241.759 876.467 241.915C876.35 242.066 876.291 242.256 876.291 242.483C876.291 242.812 876.411 243.064 876.649 243.239C876.892 243.409 877.198 243.494 877.57 243.494ZM888.311 236.273V238.091H883.055V236.273H888.311ZM884.249 234.182H886.669V242.318C886.669 242.542 886.703 242.716 886.771 242.841C886.839 242.962 886.934 243.047 887.055 243.097C887.18 243.146 887.324 243.17 887.487 243.17C887.601 243.17 887.714 243.161 887.828 243.142C887.942 243.119 888.029 243.102 888.089 243.091L888.47 244.892C888.349 244.93 888.179 244.973 887.959 245.023C887.739 245.076 887.472 245.108 887.158 245.119C886.574 245.142 886.063 245.064 885.624 244.886C885.188 244.708 884.849 244.432 884.607 244.057C884.364 243.682 884.245 243.208 884.249 242.636V234.182ZM889.888 245V236.273H892.308V245H889.888ZM891.104 235.148C890.744 235.148 890.435 235.028 890.178 234.79C889.924 234.547 889.797 234.258 889.797 233.92C889.797 233.587 889.924 233.301 890.178 233.062C890.435 232.82 890.744 232.699 891.104 232.699C891.464 232.699 891.77 232.82 892.024 233.062C892.282 233.301 892.411 233.587 892.411 233.92C892.411 234.258 892.282 234.547 892.024 234.79C891.77 235.028 891.464 235.148 891.104 235.148ZM898.19 245.17C897.308 245.17 896.545 244.983 895.901 244.608C895.26 244.229 894.766 243.703 894.418 243.028C894.069 242.35 893.895 241.564 893.895 240.67C893.895 239.769 894.069 238.981 894.418 238.307C894.766 237.629 895.26 237.102 895.901 236.727C896.545 236.348 897.308 236.159 898.19 236.159C899.073 236.159 899.834 236.348 900.474 236.727C901.118 237.102 901.615 237.629 901.963 238.307C902.312 238.981 902.486 239.769 902.486 240.67C902.486 241.564 902.312 242.35 901.963 243.028C901.615 243.703 901.118 244.229 900.474 244.608C899.834 244.983 899.073 245.17 898.19 245.17ZM898.202 243.295C898.603 243.295 898.938 243.182 899.207 242.955C899.476 242.723 899.679 242.409 899.815 242.011C899.955 241.614 900.026 241.161 900.026 240.653C900.026 240.146 899.955 239.693 899.815 239.295C899.679 238.898 899.476 238.583 899.207 238.352C898.938 238.121 898.603 238.006 898.202 238.006C897.796 238.006 897.455 238.121 897.179 238.352C896.906 238.583 896.7 238.898 896.56 239.295C896.423 239.693 896.355 240.146 896.355 240.653C896.355 241.161 896.423 241.614 896.56 242.011C896.7 242.409 896.906 242.723 897.179 242.955C897.455 243.182 897.796 243.295 898.202 243.295ZM906.48 239.955V245H904.06V236.273H906.366V237.812H906.469C906.662 237.305 906.986 236.903 907.44 236.608C907.895 236.309 908.446 236.159 909.094 236.159C909.7 236.159 910.228 236.292 910.679 236.557C911.13 236.822 911.48 237.201 911.73 237.693C911.98 238.182 912.105 238.765 912.105 239.443V245H909.685V239.875C909.688 239.341 909.552 238.924 909.276 238.625C908.999 238.322 908.618 238.17 908.134 238.17C907.808 238.17 907.52 238.241 907.27 238.381C907.024 238.521 906.83 238.725 906.69 238.994C906.554 239.259 906.484 239.58 906.48 239.955Z" fill="#F5F8FF"/>
<path d="M822.726 163L818.564 148.455H821.923L824.331 158.561H824.452L827.108 148.455H829.984L832.634 158.582H832.761L835.169 148.455H838.528L834.366 163H831.369L828.599 153.49H828.486L825.723 163H822.726ZM840.118 163V152.091H843.143V163H840.118ZM841.637 150.685C841.188 150.685 840.802 150.536 840.48 150.237C840.163 149.934 840.004 149.572 840.004 149.151C840.004 148.734 840.163 148.376 840.48 148.078C840.802 147.775 841.188 147.624 841.637 147.624C842.087 147.624 842.471 147.775 842.788 148.078C843.11 148.376 843.271 148.734 843.271 149.151C843.271 149.572 843.11 149.934 842.788 150.237C842.471 150.536 842.087 150.685 841.637 150.685ZM854.643 155.202L851.874 155.372C851.826 155.135 851.724 154.922 851.568 154.733C851.412 154.539 851.206 154.385 850.95 154.271C850.699 154.153 850.399 154.094 850.048 154.094C849.58 154.094 849.184 154.193 848.862 154.392C848.54 154.586 848.379 154.847 848.379 155.173C848.379 155.434 848.483 155.654 848.692 155.834C848.9 156.014 849.258 156.158 849.764 156.267L851.739 156.665C852.799 156.883 853.59 157.233 854.111 157.716C854.632 158.199 854.892 158.833 854.892 159.619C854.892 160.334 854.681 160.962 854.26 161.501C853.843 162.041 853.27 162.463 852.541 162.766C851.817 163.064 850.981 163.213 850.034 163.213C848.59 163.213 847.439 162.912 846.582 162.311C845.73 161.705 845.231 160.881 845.084 159.839L848.06 159.683C848.15 160.124 848.367 160.46 848.713 160.692C849.059 160.919 849.501 161.033 850.041 161.033C850.571 161.033 850.998 160.931 851.32 160.727C851.646 160.519 851.812 160.251 851.817 159.925C851.812 159.65 851.696 159.425 851.469 159.25C851.241 159.07 850.891 158.933 850.418 158.838L848.528 158.462C847.463 158.249 846.67 157.879 846.149 157.354C845.633 156.828 845.375 156.158 845.375 155.344C845.375 154.643 845.564 154.039 845.943 153.533C846.327 153.026 846.864 152.635 847.555 152.361C848.251 152.086 849.066 151.949 849.999 151.949C851.376 151.949 852.461 152.24 853.251 152.822C854.047 153.405 854.511 154.198 854.643 155.202ZM860.817 163.178C859.989 163.178 859.238 162.964 858.566 162.538C857.898 162.107 857.368 161.475 856.975 160.642C856.587 159.804 856.392 158.777 856.392 157.56C856.392 156.31 856.594 155.27 856.996 154.442C857.399 153.608 857.934 152.986 858.601 152.574C859.274 152.157 860.01 151.949 860.81 151.949C861.421 151.949 861.93 152.053 862.337 152.261C862.749 152.465 863.08 152.721 863.331 153.028C863.587 153.331 863.781 153.63 863.914 153.923H864.006V148.455H867.025V163H864.042V161.253H863.914C863.772 161.556 863.57 161.857 863.31 162.155C863.054 162.448 862.721 162.692 862.309 162.886C861.901 163.08 861.404 163.178 860.817 163.178ZM861.776 160.77C862.264 160.77 862.676 160.637 863.012 160.372C863.353 160.102 863.613 159.726 863.793 159.243C863.978 158.76 864.07 158.194 864.07 157.545C864.07 156.897 863.98 156.333 863.8 155.855C863.62 155.377 863.36 155.008 863.019 154.747C862.678 154.487 862.264 154.357 861.776 154.357C861.279 154.357 860.86 154.491 860.519 154.761C860.178 155.031 859.92 155.405 859.745 155.884C859.569 156.362 859.482 156.916 859.482 157.545C859.482 158.18 859.569 158.741 859.745 159.229C859.925 159.712 860.183 160.09 860.519 160.365C860.86 160.635 861.279 160.77 861.776 160.77ZM874.441 163.213C873.338 163.213 872.384 162.979 871.579 162.51C870.779 162.036 870.161 161.378 869.725 160.536C869.29 159.688 869.072 158.705 869.072 157.588C869.072 156.461 869.29 155.476 869.725 154.634C870.161 153.786 870.779 153.128 871.579 152.659C872.384 152.186 873.338 151.949 874.441 151.949C875.544 151.949 876.496 152.186 877.296 152.659C878.101 153.128 878.721 153.786 879.157 154.634C879.593 155.476 879.81 156.461 879.81 157.588C879.81 158.705 879.593 159.688 879.157 160.536C878.721 161.378 878.101 162.036 877.296 162.51C876.496 162.979 875.544 163.213 874.441 163.213ZM874.455 160.869C874.957 160.869 875.376 160.727 875.712 160.443C876.049 160.154 876.302 159.761 876.472 159.264C876.647 158.767 876.735 158.201 876.735 157.567C876.735 156.932 876.647 156.366 876.472 155.869C876.302 155.372 876.049 154.979 875.712 154.69C875.376 154.402 874.957 154.257 874.455 154.257C873.949 154.257 873.522 154.402 873.177 154.69C872.836 154.979 872.578 155.372 872.403 155.869C872.232 156.366 872.147 156.932 872.147 157.567C872.147 158.201 872.232 158.767 872.403 159.264C872.578 159.761 872.836 160.154 873.177 160.443C873.522 160.727 873.949 160.869 874.455 160.869ZM881.778 163V152.091H884.661V154.016H884.789C885.016 153.376 885.395 152.872 885.925 152.503C886.456 152.134 887.09 151.949 887.829 151.949C888.577 151.949 889.214 152.136 889.739 152.51C890.265 152.879 890.615 153.381 890.79 154.016H890.904C891.127 153.391 891.529 152.891 892.112 152.517C892.699 152.138 893.392 151.949 894.192 151.949C895.21 151.949 896.037 152.273 896.671 152.922C897.31 153.566 897.63 154.48 897.63 155.663V163H894.612V156.26C894.612 155.654 894.451 155.199 894.129 154.896C893.807 154.593 893.404 154.442 892.921 154.442C892.372 154.442 891.943 154.617 891.636 154.967C891.328 155.313 891.174 155.77 891.174 156.338V163H888.241V156.196C888.241 155.661 888.087 155.235 887.779 154.918C887.476 154.6 887.076 154.442 886.579 154.442C886.243 154.442 885.94 154.527 885.67 154.697C885.405 154.863 885.194 155.098 885.038 155.401C884.881 155.699 884.803 156.049 884.803 156.452V163H881.778Z" fill="#F5F8FF"/>
<path d="M88.3786 245V233.364H92.9695C93.8482 233.364 94.5982 233.521 95.2195 233.835C95.8445 234.146 96.3198 234.587 96.6456 235.159C96.9751 235.727 97.1399 236.396 97.1399 237.165C97.1399 237.937 96.9732 238.602 96.6399 239.159C96.3066 239.712 95.8236 240.136 95.1911 240.432C94.5623 240.727 93.8009 240.875 92.907 240.875H89.8331V238.898H92.5092C92.9789 238.898 93.3691 238.833 93.6797 238.705C93.9903 238.576 94.2214 238.383 94.3729 238.125C94.5282 237.867 94.6058 237.547 94.6058 237.165C94.6058 236.778 94.5282 236.453 94.3729 236.188C94.2214 235.922 93.9884 235.722 93.674 235.585C93.3634 235.445 92.9714 235.375 92.4979 235.375H90.8388V245H88.3786ZM94.6626 239.705L97.5547 245H94.8388L92.0092 239.705H94.6626ZM102.67 245.17C101.772 245.17 100.999 244.989 100.352 244.625C99.7076 244.258 99.2114 243.739 98.8629 243.068C98.5144 242.394 98.3402 241.597 98.3402 240.676C98.3402 239.778 98.5144 238.991 98.8629 238.312C99.2114 237.634 99.7019 237.106 100.335 236.727C100.971 236.348 101.717 236.159 102.573 236.159C103.149 236.159 103.685 236.252 104.181 236.438C104.681 236.619 105.117 236.894 105.488 237.261C105.863 237.629 106.155 238.091 106.363 238.648C106.571 239.201 106.675 239.848 106.675 240.591V241.256H99.3061V239.756H104.397C104.397 239.407 104.321 239.098 104.17 238.83C104.018 238.561 103.808 238.35 103.539 238.199C103.274 238.044 102.965 237.966 102.613 237.966C102.246 237.966 101.92 238.051 101.636 238.222C101.355 238.388 101.136 238.614 100.977 238.898C100.817 239.178 100.736 239.491 100.732 239.835V241.261C100.732 241.693 100.812 242.066 100.971 242.381C101.134 242.695 101.363 242.938 101.658 243.108C101.954 243.278 102.304 243.364 102.71 243.364C102.978 243.364 103.225 243.326 103.448 243.25C103.672 243.174 103.863 243.061 104.022 242.909C104.181 242.758 104.302 242.572 104.386 242.352L106.624 242.5C106.511 243.038 106.278 243.508 105.925 243.909C105.577 244.307 105.126 244.617 104.573 244.841C104.024 245.061 103.389 245.17 102.67 245.17ZM115.516 238.761L113.3 238.898C113.263 238.708 113.181 238.538 113.056 238.386C112.931 238.231 112.766 238.108 112.562 238.017C112.361 237.922 112.121 237.875 111.84 237.875C111.465 237.875 111.149 237.955 110.891 238.114C110.634 238.269 110.505 238.477 110.505 238.739C110.505 238.947 110.588 239.123 110.755 239.267C110.922 239.411 111.208 239.527 111.613 239.614L113.192 239.932C114.041 240.106 114.674 240.386 115.09 240.773C115.507 241.159 115.715 241.667 115.715 242.295C115.715 242.867 115.547 243.369 115.21 243.801C114.876 244.233 114.418 244.57 113.835 244.812C113.255 245.051 112.586 245.17 111.829 245.17C110.674 245.17 109.753 244.93 109.067 244.449C108.386 243.964 107.986 243.305 107.869 242.472L110.249 242.347C110.321 242.699 110.496 242.968 110.772 243.153C111.049 243.335 111.403 243.426 111.835 243.426C112.259 243.426 112.6 243.345 112.857 243.182C113.119 243.015 113.251 242.801 113.255 242.54C113.251 242.32 113.158 242.14 112.977 242C112.795 241.856 112.514 241.746 112.136 241.67L110.624 241.369C109.772 241.199 109.138 240.903 108.721 240.483C108.308 240.062 108.102 239.527 108.102 238.875C108.102 238.314 108.253 237.831 108.556 237.426C108.863 237.021 109.293 236.708 109.846 236.489C110.403 236.269 111.054 236.159 111.8 236.159C112.903 236.159 113.77 236.392 114.403 236.858C115.039 237.324 115.41 237.958 115.516 238.761ZM121.217 245.17C120.319 245.17 119.546 244.989 118.898 244.625C118.254 244.258 117.758 243.739 117.41 243.068C117.061 242.394 116.887 241.597 116.887 240.676C116.887 239.778 117.061 238.991 117.41 238.312C117.758 237.634 118.249 237.106 118.881 236.727C119.518 236.348 120.264 236.159 121.12 236.159C121.696 236.159 122.232 236.252 122.728 236.438C123.228 236.619 123.664 236.894 124.035 237.261C124.41 237.629 124.701 238.091 124.91 238.648C125.118 239.201 125.222 239.848 125.222 240.591V241.256H117.853V239.756H122.944C122.944 239.407 122.868 239.098 122.717 238.83C122.565 238.561 122.355 238.35 122.086 238.199C121.821 238.044 121.512 237.966 121.16 237.966C120.792 237.966 120.467 238.051 120.183 238.222C119.902 238.388 119.683 238.614 119.523 238.898C119.364 239.178 119.283 239.491 119.279 239.835V241.261C119.279 241.693 119.359 242.066 119.518 242.381C119.681 242.695 119.91 242.938 120.205 243.108C120.501 243.278 120.851 243.364 121.256 243.364C121.525 243.364 121.772 243.326 121.995 243.25C122.219 243.174 122.41 243.061 122.569 242.909C122.728 242.758 122.849 242.572 122.933 242.352L125.171 242.5C125.058 243.038 124.825 243.508 124.472 243.909C124.124 244.307 123.673 244.617 123.12 244.841C122.571 245.061 121.936 245.17 121.217 245.17ZM129.29 245.165C128.734 245.165 128.237 245.068 127.802 244.875C127.366 244.678 127.022 244.388 126.768 244.006C126.518 243.619 126.393 243.138 126.393 242.562C126.393 242.078 126.482 241.67 126.66 241.341C126.838 241.011 127.08 240.746 127.387 240.545C127.694 240.345 128.042 240.193 128.433 240.091C128.826 239.989 129.239 239.917 129.671 239.875C130.179 239.822 130.588 239.773 130.898 239.727C131.209 239.678 131.434 239.606 131.575 239.511C131.715 239.417 131.785 239.277 131.785 239.091V239.057C131.785 238.697 131.671 238.419 131.444 238.222C131.22 238.025 130.902 237.926 130.489 237.926C130.054 237.926 129.707 238.023 129.45 238.216C129.192 238.405 129.022 238.644 128.938 238.932L126.7 238.75C126.813 238.22 127.037 237.761 127.37 237.375C127.703 236.985 128.133 236.686 128.66 236.477C129.19 236.265 129.804 236.159 130.501 236.159C130.986 236.159 131.45 236.216 131.893 236.33C132.34 236.443 132.736 236.619 133.08 236.858C133.429 237.097 133.703 237.403 133.904 237.778C134.105 238.15 134.205 238.595 134.205 239.114V245H131.91V243.79H131.842C131.701 244.062 131.514 244.303 131.279 244.511C131.044 244.716 130.762 244.877 130.433 244.994C130.103 245.108 129.722 245.165 129.29 245.165ZM129.984 243.494C130.34 243.494 130.654 243.424 130.927 243.284C131.2 243.14 131.414 242.947 131.569 242.705C131.724 242.462 131.802 242.187 131.802 241.881V240.955C131.726 241.004 131.622 241.049 131.489 241.091C131.361 241.129 131.215 241.165 131.052 241.199C130.889 241.229 130.726 241.258 130.563 241.284C130.4 241.307 130.253 241.328 130.12 241.347C129.836 241.388 129.588 241.455 129.376 241.545C129.164 241.636 128.999 241.759 128.881 241.915C128.764 242.066 128.705 242.256 128.705 242.483C128.705 242.812 128.825 243.064 129.063 243.239C129.306 243.409 129.612 243.494 129.984 243.494ZM136.083 245V236.273H138.43V237.795H138.521C138.68 237.254 138.947 236.845 139.322 236.568C139.697 236.288 140.129 236.148 140.617 236.148C140.738 236.148 140.869 236.155 141.009 236.17C141.149 236.186 141.272 236.206 141.379 236.233V238.381C141.265 238.347 141.108 238.316 140.907 238.29C140.706 238.263 140.522 238.25 140.356 238.25C140 238.25 139.682 238.328 139.401 238.483C139.125 238.634 138.905 238.847 138.742 239.119C138.583 239.392 138.504 239.706 138.504 240.062V245H136.083ZM146.167 245.17C145.273 245.17 144.504 244.981 143.86 244.602C143.22 244.22 142.728 243.689 142.383 243.011C142.042 242.333 141.871 241.553 141.871 240.67C141.871 239.777 142.044 238.992 142.388 238.318C142.737 237.64 143.231 237.112 143.871 236.733C144.512 236.35 145.273 236.159 146.156 236.159C146.917 236.159 147.584 236.297 148.156 236.574C148.728 236.85 149.18 237.239 149.513 237.739C149.847 238.239 150.031 238.826 150.065 239.5H147.781C147.716 239.064 147.546 238.714 147.269 238.449C146.996 238.18 146.638 238.045 146.195 238.045C145.82 238.045 145.493 238.148 145.212 238.352C144.936 238.553 144.72 238.847 144.565 239.233C144.409 239.619 144.332 240.087 144.332 240.636C144.332 241.193 144.407 241.667 144.559 242.057C144.714 242.447 144.932 242.744 145.212 242.949C145.493 243.153 145.82 243.256 146.195 243.256C146.472 243.256 146.72 243.199 146.94 243.085C147.163 242.972 147.347 242.807 147.491 242.591C147.638 242.371 147.735 242.108 147.781 241.801H150.065C150.027 242.468 149.845 243.055 149.519 243.562C149.197 244.066 148.752 244.46 148.184 244.744C147.616 245.028 146.943 245.17 146.167 245.17ZM154.035 239.955V245H151.614V233.364H153.967V237.812H154.069C154.266 237.297 154.584 236.894 155.023 236.602C155.463 236.307 156.014 236.159 156.677 236.159C157.283 236.159 157.811 236.292 158.262 236.557C158.717 236.818 159.069 237.195 159.319 237.688C159.573 238.176 159.698 238.761 159.694 239.443V245H157.273V239.875C157.277 239.337 157.141 238.919 156.864 238.619C156.592 238.32 156.209 238.17 155.717 238.17C155.387 238.17 155.095 238.241 154.842 238.381C154.592 238.521 154.395 238.725 154.251 238.994C154.111 239.259 154.039 239.58 154.035 239.955Z" fill="#F5F8FF"/>
<path d="M325.308 245V233.364H329.899C330.782 233.364 331.534 233.532 332.155 233.869C332.776 234.203 333.25 234.667 333.575 235.261C333.905 235.852 334.07 236.534 334.07 237.307C334.07 238.08 333.903 238.761 333.57 239.352C333.236 239.943 332.753 240.403 332.121 240.733C331.492 241.062 330.731 241.227 329.837 241.227H326.911V239.256H329.439C329.912 239.256 330.303 239.174 330.609 239.011C330.92 238.845 331.151 238.616 331.303 238.324C331.458 238.028 331.536 237.689 331.536 237.307C331.536 236.92 331.458 236.583 331.303 236.295C331.151 236.004 330.92 235.778 330.609 235.619C330.299 235.456 329.905 235.375 329.428 235.375H327.768V245H325.308ZM335.622 245V236.273H337.969V237.795H338.06C338.219 237.254 338.486 236.845 338.861 236.568C339.236 236.288 339.668 236.148 340.156 236.148C340.277 236.148 340.408 236.155 340.548 236.17C340.688 236.186 340.812 236.206 340.918 236.233V238.381C340.804 238.347 340.647 238.316 340.446 238.29C340.245 238.263 340.062 238.25 339.895 238.25C339.539 238.25 339.221 238.328 338.94 238.483C338.664 238.634 338.444 238.847 338.281 239.119C338.122 239.392 338.043 239.706 338.043 240.062V245H335.622ZM345.74 245.17C344.842 245.17 344.07 244.989 343.422 244.625C342.778 244.258 342.282 243.739 341.933 243.068C341.585 242.394 341.411 241.597 341.411 240.676C341.411 239.778 341.585 238.991 341.933 238.312C342.282 237.634 342.772 237.106 343.405 236.727C344.041 236.348 344.787 236.159 345.643 236.159C346.219 236.159 346.755 236.252 347.251 236.438C347.751 236.619 348.187 236.894 348.558 237.261C348.933 237.629 349.225 238.091 349.433 238.648C349.642 239.201 349.746 239.848 349.746 240.591V241.256H342.376V239.756H347.467C347.467 239.407 347.392 239.098 347.24 238.83C347.089 238.561 346.878 238.35 346.609 238.199C346.344 238.044 346.036 237.966 345.683 237.966C345.316 237.966 344.99 238.051 344.706 238.222C344.426 238.388 344.206 238.614 344.047 238.898C343.888 239.178 343.806 239.491 343.803 239.835V241.261C343.803 241.693 343.882 242.066 344.041 242.381C344.204 242.695 344.433 242.938 344.729 243.108C345.024 243.278 345.375 243.364 345.78 243.364C346.049 243.364 346.295 243.326 346.518 243.25C346.742 243.174 346.933 243.061 347.092 242.909C347.251 242.758 347.373 242.572 347.456 242.352L349.695 242.5C349.581 243.038 349.348 243.508 348.996 243.909C348.647 244.307 348.196 244.617 347.643 244.841C347.094 245.061 346.46 245.17 345.74 245.17ZM358.587 238.761L356.371 238.898C356.333 238.708 356.251 238.538 356.126 238.386C356.001 238.231 355.837 238.108 355.632 238.017C355.431 237.922 355.191 237.875 354.911 237.875C354.536 237.875 354.219 237.955 353.962 238.114C353.704 238.269 353.575 238.477 353.575 238.739C353.575 238.947 353.659 239.123 353.825 239.267C353.992 239.411 354.278 239.527 354.683 239.614L356.263 239.932C357.111 240.106 357.744 240.386 358.161 240.773C358.577 241.159 358.786 241.667 358.786 242.295C358.786 242.867 358.617 243.369 358.28 243.801C357.946 244.233 357.488 244.57 356.905 244.812C356.325 245.051 355.657 245.17 354.899 245.17C353.744 245.17 352.823 244.93 352.138 244.449C351.456 243.964 351.056 243.305 350.939 242.472L353.32 242.347C353.392 242.699 353.566 242.968 353.842 243.153C354.119 243.335 354.473 243.426 354.905 243.426C355.329 243.426 355.67 243.345 355.928 243.182C356.189 243.015 356.321 242.801 356.325 242.54C356.321 242.32 356.229 242.14 356.047 242C355.865 241.856 355.585 241.746 355.206 241.67L353.695 241.369C352.842 241.199 352.208 240.903 351.791 240.483C351.378 240.062 351.172 239.527 351.172 238.875C351.172 238.314 351.323 237.831 351.626 237.426C351.933 237.021 352.363 236.708 352.916 236.489C353.473 236.269 354.125 236.159 354.871 236.159C355.973 236.159 356.84 236.392 357.473 236.858C358.109 237.324 358.481 237.958 358.587 238.761ZM364.287 245.17C363.389 245.17 362.616 244.989 361.969 244.625C361.325 244.258 360.829 243.739 360.48 243.068C360.132 242.394 359.957 241.597 359.957 240.676C359.957 239.778 360.132 238.991 360.48 238.312C360.829 237.634 361.319 237.106 361.952 236.727C362.588 236.348 363.334 236.159 364.19 236.159C364.766 236.159 365.302 236.252 365.798 236.438C366.298 236.619 366.734 236.894 367.105 237.261C367.48 237.629 367.772 238.091 367.98 238.648C368.188 239.201 368.293 239.848 368.293 240.591V241.256H360.923V239.756H366.014C366.014 239.407 365.938 239.098 365.787 238.83C365.635 238.561 365.425 238.35 365.156 238.199C364.891 238.044 364.582 237.966 364.23 237.966C363.863 237.966 363.537 238.051 363.253 238.222C362.973 238.388 362.753 238.614 362.594 238.898C362.435 239.178 362.353 239.491 362.349 239.835V241.261C362.349 241.693 362.429 242.066 362.588 242.381C362.751 242.695 362.98 242.938 363.276 243.108C363.571 243.278 363.921 243.364 364.327 243.364C364.596 243.364 364.842 243.326 365.065 243.25C365.289 243.174 365.48 243.061 365.639 242.909C365.798 242.758 365.92 242.572 366.003 242.352L368.241 242.5C368.128 243.038 367.895 243.508 367.543 243.909C367.194 244.307 366.743 244.617 366.19 244.841C365.641 245.061 365.007 245.17 364.287 245.17ZM372.293 239.955V245H369.872V236.273H372.179V237.812H372.281C372.474 237.305 372.798 236.903 373.253 236.608C373.707 236.309 374.259 236.159 374.906 236.159C375.512 236.159 376.041 236.292 376.491 236.557C376.942 236.822 377.293 237.201 377.543 237.693C377.793 238.182 377.918 238.765 377.918 239.443V245H375.497V239.875C375.501 239.341 375.365 238.924 375.088 238.625C374.812 238.322 374.431 238.17 373.946 238.17C373.62 238.17 373.332 238.241 373.082 238.381C372.836 238.521 372.643 238.725 372.503 238.994C372.366 239.259 372.296 239.58 372.293 239.955ZM384.467 236.273V238.091H379.212V236.273H384.467ZM380.405 234.182H382.825V242.318C382.825 242.542 382.859 242.716 382.928 242.841C382.996 242.962 383.09 243.047 383.212 243.097C383.337 243.146 383.481 243.17 383.643 243.17C383.757 243.17 383.871 243.161 383.984 243.142C384.098 243.119 384.185 243.102 384.246 243.091L384.626 244.892C384.505 244.93 384.335 244.973 384.115 245.023C383.895 245.076 383.628 245.108 383.314 245.119C382.731 245.142 382.219 245.064 381.78 244.886C381.344 244.708 381.005 244.432 380.763 244.057C380.52 243.682 380.401 243.208 380.405 242.636V234.182ZM388.533 245.165C387.976 245.165 387.48 245.068 387.044 244.875C386.608 244.678 386.264 244.388 386.01 244.006C385.76 243.619 385.635 243.138 385.635 242.562C385.635 242.078 385.724 241.67 385.902 241.341C386.08 241.011 386.322 240.746 386.629 240.545C386.936 240.345 387.285 240.193 387.675 240.091C388.069 239.989 388.482 239.917 388.913 239.875C389.421 239.822 389.83 239.773 390.141 239.727C390.451 239.678 390.677 239.606 390.817 239.511C390.957 239.417 391.027 239.277 391.027 239.091V239.057C391.027 238.697 390.913 238.419 390.686 238.222C390.463 238.025 390.144 237.926 389.732 237.926C389.296 237.926 388.949 238.023 388.692 238.216C388.434 238.405 388.264 238.644 388.18 238.932L385.942 238.75C386.055 238.22 386.279 237.761 386.612 237.375C386.946 236.985 387.375 236.686 387.902 236.477C388.432 236.265 389.046 236.159 389.743 236.159C390.228 236.159 390.692 236.216 391.135 236.33C391.582 236.443 391.978 236.619 392.322 236.858C392.671 237.097 392.946 237.403 393.146 237.778C393.347 238.15 393.447 238.595 393.447 239.114V245H391.152V243.79H391.084C390.944 244.062 390.756 244.303 390.521 244.511C390.286 244.716 390.004 244.877 389.675 244.994C389.345 245.108 388.964 245.165 388.533 245.165ZM389.226 243.494C389.582 243.494 389.896 243.424 390.169 243.284C390.442 243.14 390.656 242.947 390.811 242.705C390.966 242.462 391.044 242.187 391.044 241.881V240.955C390.968 241.004 390.864 241.049 390.732 241.091C390.603 241.129 390.457 241.165 390.294 241.199C390.131 241.229 389.968 241.258 389.805 241.284C389.643 241.307 389.495 241.328 389.362 241.347C389.078 241.388 388.83 241.455 388.618 241.545C388.406 241.636 388.241 241.759 388.124 241.915C388.006 242.066 387.947 242.256 387.947 242.483C387.947 242.812 388.067 243.064 388.305 243.239C388.548 243.409 388.855 243.494 389.226 243.494ZM399.967 236.273V238.091H394.712V236.273H399.967ZM395.905 234.182H398.325V242.318C398.325 242.542 398.359 242.716 398.428 242.841C398.496 242.962 398.59 243.047 398.712 243.097C398.837 243.146 398.981 243.17 399.143 243.17C399.257 243.17 399.371 243.161 399.484 243.142C399.598 243.119 399.685 243.102 399.746 243.091L400.126 244.892C400.005 244.93 399.835 244.973 399.615 245.023C399.395 245.076 399.128 245.108 398.814 245.119C398.231 245.142 397.719 245.064 397.28 244.886C396.844 244.708 396.505 244.432 396.263 244.057C396.02 243.682 395.901 243.208 395.905 242.636V234.182ZM401.544 245V236.273H403.964V245H401.544ZM402.76 235.148C402.4 235.148 402.091 235.028 401.834 234.79C401.58 234.547 401.453 234.258 401.453 233.92C401.453 233.587 401.58 233.301 401.834 233.062C402.091 232.82 402.4 232.699 402.76 232.699C403.12 232.699 403.427 232.82 403.68 233.062C403.938 233.301 404.067 233.587 404.067 233.92C404.067 234.258 403.938 234.547 403.68 234.79C403.427 235.028 403.12 235.148 402.76 235.148ZM409.847 245.17C408.964 245.17 408.201 244.983 407.557 244.608C406.917 244.229 406.422 243.703 406.074 243.028C405.725 242.35 405.551 241.564 405.551 240.67C405.551 239.769 405.725 238.981 406.074 238.307C406.422 237.629 406.917 237.102 407.557 236.727C408.201 236.348 408.964 236.159 409.847 236.159C410.729 236.159 411.491 236.348 412.131 236.727C412.775 237.102 413.271 237.629 413.619 238.307C413.968 238.981 414.142 239.769 414.142 240.67C414.142 241.564 413.968 242.35 413.619 243.028C413.271 243.703 412.775 244.229 412.131 244.608C411.491 244.983 410.729 245.17 409.847 245.17ZM409.858 243.295C410.259 243.295 410.595 243.182 410.864 242.955C411.133 242.723 411.335 242.409 411.472 242.011C411.612 241.614 411.682 241.161 411.682 240.653C411.682 240.146 411.612 239.693 411.472 239.295C411.335 238.898 411.133 238.583 410.864 238.352C410.595 238.121 410.259 238.006 409.858 238.006C409.453 238.006 409.112 238.121 408.835 238.352C408.563 238.583 408.356 238.898 408.216 239.295C408.08 239.693 408.011 240.146 408.011 240.653C408.011 241.161 408.08 241.614 408.216 242.011C408.356 242.409 408.563 242.723 408.835 242.955C409.112 243.182 409.453 243.295 409.858 243.295ZM418.136 239.955V245H415.716V236.273H418.023V237.812H418.125C418.318 237.305 418.642 236.903 419.097 236.608C419.551 236.309 420.102 236.159 420.75 236.159C421.356 236.159 421.884 236.292 422.335 236.557C422.786 236.822 423.136 237.201 423.386 237.693C423.636 238.182 423.761 238.765 423.761 239.443V245H421.341V239.875C421.345 239.341 421.208 238.924 420.932 238.625C420.655 238.322 420.275 238.17 419.79 238.17C419.464 238.17 419.176 238.241 418.926 238.381C418.68 238.521 418.487 238.725 418.347 238.994C418.21 239.259 418.14 239.58 418.136 239.955Z" fill="#F5F8FF"/>
<circle opacity="0.6" cx="505" cy="390" r="63.5" fill="#0B2158" stroke="#F5F8FF" stroke-dasharray="11 11"/>
<path d="M484.411 376.438H481.923C481.877 376.116 481.784 375.83 481.644 375.58C481.504 375.326 481.324 375.11 481.104 374.932C480.885 374.754 480.631 374.617 480.343 374.523C480.059 374.428 479.75 374.381 479.417 374.381C478.815 374.381 478.29 374.53 477.843 374.83C477.396 375.125 477.049 375.557 476.803 376.125C476.557 376.689 476.434 377.375 476.434 378.182C476.434 379.011 476.557 379.708 476.803 380.273C477.053 380.837 477.402 381.263 477.849 381.551C478.296 381.839 478.813 381.983 479.4 381.983C479.729 381.983 480.034 381.939 480.315 381.852C480.599 381.765 480.851 381.638 481.07 381.472C481.29 381.301 481.472 381.095 481.616 380.852C481.763 380.61 481.866 380.333 481.923 380.023L484.411 380.034C484.347 380.568 484.186 381.083 483.928 381.58C483.674 382.072 483.332 382.513 482.9 382.903C482.472 383.29 481.96 383.597 481.366 383.824C480.775 384.047 480.106 384.159 479.36 384.159C478.322 384.159 477.394 383.924 476.576 383.455C475.762 382.985 475.118 382.305 474.644 381.415C474.174 380.525 473.94 379.447 473.94 378.182C473.94 376.913 474.178 375.833 474.656 374.943C475.133 374.053 475.781 373.375 476.599 372.909C477.417 372.439 478.337 372.205 479.36 372.205C480.034 372.205 480.659 372.299 481.235 372.489C481.815 372.678 482.328 372.955 482.775 373.318C483.222 373.678 483.585 374.119 483.866 374.642C484.15 375.165 484.332 375.763 484.411 376.438ZM490.073 384.17C489.191 384.17 488.427 383.983 487.783 383.608C487.143 383.229 486.649 382.703 486.3 382.028C485.952 381.35 485.778 380.564 485.778 379.67C485.778 378.769 485.952 377.981 486.3 377.307C486.649 376.629 487.143 376.102 487.783 375.727C488.427 375.348 489.191 375.159 490.073 375.159C490.956 375.159 491.717 375.348 492.357 375.727C493.001 376.102 493.497 376.629 493.846 377.307C494.194 377.981 494.369 378.769 494.369 379.67C494.369 380.564 494.194 381.35 493.846 382.028C493.497 382.703 493.001 383.229 492.357 383.608C491.717 383.983 490.956 384.17 490.073 384.17ZM490.085 382.295C490.486 382.295 490.821 382.182 491.09 381.955C491.359 381.723 491.562 381.409 491.698 381.011C491.838 380.614 491.908 380.161 491.908 379.653C491.908 379.146 491.838 378.693 491.698 378.295C491.562 377.898 491.359 377.583 491.09 377.352C490.821 377.121 490.486 377.006 490.085 377.006C489.679 377.006 489.338 377.121 489.062 377.352C488.789 377.583 488.583 377.898 488.442 378.295C488.306 378.693 488.238 379.146 488.238 379.653C488.238 380.161 488.306 380.614 488.442 381.011C488.583 381.409 488.789 381.723 489.062 381.955C489.338 382.182 489.679 382.295 490.085 382.295ZM498.363 378.955V384H495.942V375.273H498.249V376.812H498.352C498.545 376.305 498.869 375.903 499.323 375.608C499.778 375.309 500.329 375.159 500.977 375.159C501.583 375.159 502.111 375.292 502.562 375.557C503.013 375.822 503.363 376.201 503.613 376.693C503.863 377.182 503.988 377.765 503.988 378.443V384H501.567V378.875C501.571 378.341 501.435 377.924 501.158 377.625C500.882 377.322 500.501 377.17 500.016 377.17C499.691 377.17 499.403 377.241 499.153 377.381C498.906 377.521 498.713 377.725 498.573 377.994C498.437 378.259 498.367 378.58 498.363 378.955ZM510.538 375.273V377.091H505.282V375.273H510.538ZM506.475 373.182H508.896V381.318C508.896 381.542 508.93 381.716 508.998 381.841C509.066 381.962 509.161 382.047 509.282 382.097C509.407 382.146 509.551 382.17 509.714 382.17C509.827 382.17 509.941 382.161 510.055 382.142C510.168 382.119 510.255 382.102 510.316 382.091L510.697 383.892C510.576 383.93 510.405 383.973 510.185 384.023C509.966 384.076 509.699 384.108 509.384 384.119C508.801 384.142 508.29 384.064 507.85 383.886C507.415 383.708 507.076 383.432 506.833 383.057C506.591 382.682 506.471 382.208 506.475 381.636V373.182ZM515.998 384.17C515.1 384.17 514.327 383.989 513.68 383.625C513.036 383.258 512.54 382.739 512.191 382.068C511.843 381.394 511.668 380.597 511.668 379.676C511.668 378.778 511.843 377.991 512.191 377.312C512.54 376.634 513.03 376.106 513.663 375.727C514.299 375.348 515.045 375.159 515.901 375.159C516.477 375.159 517.013 375.252 517.509 375.438C518.009 375.619 518.445 375.894 518.816 376.261C519.191 376.629 519.483 377.091 519.691 377.648C519.899 378.201 520.004 378.848 520.004 379.591V380.256H512.634V378.756H517.725C517.725 378.407 517.649 378.098 517.498 377.83C517.346 377.561 517.136 377.35 516.867 377.199C516.602 377.044 516.293 376.966 515.941 376.966C515.574 376.966 515.248 377.051 514.964 377.222C514.683 377.388 514.464 377.614 514.305 377.898C514.146 378.178 514.064 378.491 514.06 378.835V380.261C514.06 380.693 514.14 381.066 514.299 381.381C514.462 381.695 514.691 381.938 514.987 382.108C515.282 382.278 515.632 382.364 516.038 382.364C516.307 382.364 516.553 382.326 516.776 382.25C517 382.174 517.191 382.061 517.35 381.909C517.509 381.758 517.63 381.572 517.714 381.352L519.952 381.5C519.839 382.038 519.606 382.508 519.254 382.909C518.905 383.307 518.454 383.617 517.901 383.841C517.352 384.061 516.718 384.17 515.998 384.17ZM523.45 375.273L525.052 378.324L526.694 375.273H529.177L526.648 379.636L529.245 384H526.773L525.052 380.983L523.359 384H520.859L523.45 379.636L520.95 375.273H523.45ZM535.256 375.273V377.091H530.001V375.273H535.256ZM531.194 373.182H533.614V381.318C533.614 381.542 533.648 381.716 533.717 381.841C533.785 381.962 533.879 382.047 534.001 382.097C534.126 382.146 534.27 382.17 534.433 382.17C534.546 382.17 534.66 382.161 534.773 382.142C534.887 382.119 534.974 382.102 535.035 382.091L535.415 383.892C535.294 383.93 535.124 383.973 534.904 384.023C534.684 384.076 534.417 384.108 534.103 384.119C533.52 384.142 533.008 384.064 532.569 383.886C532.133 383.708 531.794 383.432 531.552 383.057C531.309 382.682 531.19 382.208 531.194 381.636V373.182Z" fill="#F5F8FF"/>
<defs>
<filter id="filter0_bii_747_5285" x="-67.6006" y="7.3987" width="383.27" height="383.27" filterUnits="userSpaceOnUse" color-interpolation-filters="sRGB">
<feFlood flood-opacity="0" result="BackgroundImageFix"/>
<feGaussianBlur in="BackgroundImage" stdDeviation="81.8679"/>
<feComposite in2="SourceAlpha" operator="in" result="effect1_backgroundBlur_747_5285"/>
<feBlend mode="normal" in="SourceGraphic" in2="effect1_backgroundBlur_747_5285" result="shape"/>
<feColorMatrix in="SourceAlpha" type="matrix" values="0 0 0 0 0 0 0 0 0 0 0 0 0 0 0 0 0 0 127 0" result="hardAlpha"/>
<feOffset dx="-27.2893" dy="27.2893"/>
<feGaussianBlur stdDeviation="13.6447"/>
<feComposite in2="hardAlpha" operator="arithmetic" k2="-1" k3="1"/>
<feColorMatrix type="matrix" values="0 0 0 0 1 0 0 0 0 1 0 0 0 0 1 0 0 0 0.161 0"/>
<feBlend mode="normal" in2="shape" result="effect2_innerShadow_747_5285"/>
<feColorMatrix in="SourceAlpha" type="matrix" values="0 0 0 0 0 0 0 0 0 0 0 0 0 0 0 0 0 0 127 0" result="hardAlpha"/>
<feOffset dx="27.2893" dy="-27.2893"/>
<feGaussianBlur stdDeviation="13.6447"/>
<feComposite in2="hardAlpha" operator="arithmetic" k2="-1" k3="1"/>
<feColorMatrix type="matrix" values="0 0 0 0 0.113255 0 0 0 0 0.193725 0 0 0 0 0.402353 0 0 0 0.161 0"/>
<feBlend mode="normal" in2="effect2_innerShadow_747_5285" result="effect3_innerShadow_747_5285"/>
</filter>
<filter id="filter1_bii_747_5285" x="177.399" y="9.3987" width="383.27" height="383.27" filterUnits="userSpaceOnUse" color-interpolation-filters="sRGB">
<feFlood flood-opacity="0" result="BackgroundImageFix"/>
<feGaussianBlur in="BackgroundImage" stdDeviation="81.8679"/>
<feComposite in2="SourceAlpha" operator="in" result="effect1_backgroundBlur_747_5285"/>
<feBlend mode="normal" in="SourceGraphic" in2="effect1_backgroundBlur_747_5285" result="shape"/>
<feColorMatrix in="SourceAlpha" type="matrix" values="0 0 0 0 0 0 0 0 0 0 0 0 0 0 0 0 0 0 127 0" result="hardAlpha"/>
<feOffset dx="-27.2893" dy="27.2893"/>
<feGaussianBlur stdDeviation="13.6447"/>
<feComposite in2="hardAlpha" operator="arithmetic" k2="-1" k3="1"/>
<feColorMatrix type="matrix" values="0 0 0 0 1 0 0 0 0 1 0 0 0 0 1 0 0 0 0.161 0"/>
<feBlend mode="normal" in2="shape" result="effect2_innerShadow_747_5285"/>
<feColorMatrix in="SourceAlpha" type="matrix" values="0 0 0 0 0 0 0 0 0 0 0 0 0 0 0 0 0 0 127 0" result="hardAlpha"/>
<feOffset dx="27.2893" dy="-27.2893"/>
<feGaussianBlur stdDeviation="13.6447"/>
<feComposite in2="hardAlpha" operator="arithmetic" k2="-1" k3="1"/>
<feColorMatrix type="matrix" values="0 0 0 0 0.113255 0 0 0 0 0.193725 0 0 0 0 0.402353 0 0 0 0.161 0"/>
<feBlend mode="normal" in2="effect2_innerShadow_747_5285" result="effect3_innerShadow_747_5285"/>
</filter>
<filter id="filter2_bii_747_5285" x="422.399" y="7.3987" width="383.27" height="383.27" filterUnits="userSpaceOnUse" color-interpolation-filters="sRGB">
<feFlood flood-opacity="0" result="BackgroundImageFix"/>
<feGaussianBlur in="BackgroundImage" stdDeviation="81.8679"/>
<feComposite in2="SourceAlpha" operator="in" result="effect1_backgroundBlur_747_5285"/>
<feBlend mode="normal" in="SourceGraphic" in2="effect1_backgroundBlur_747_5285" result="shape"/>
<feColorMatrix in="SourceAlpha" type="matrix" values="0 0 0 0 0 0 0 0 0 0 0 0 0 0 0 0 0 0 127 0" result="hardAlpha"/>
<feOffset dx="-27.2893" dy="27.2893"/>
<feGaussianBlur stdDeviation="13.6447"/>
<feComposite in2="hardAlpha" operator="arithmetic" k2="-1" k3="1"/>
<feColorMatrix type="matrix" values="0 0 0 0 1 0 0 0 0 1 0 0 0 0 1 0 0 0 0.161 0"/>
<feBlend mode="normal" in2="shape" result="effect2_innerShadow_747_5285"/>
<feColorMatrix in="SourceAlpha" type="matrix" values="0 0 0 0 0 0 0 0 0 0 0 0 0 0 0 0 0 0 127 0" result="hardAlpha"/>
<feOffset dx="27.2893" dy="-27.2893"/>
<feGaussianBlur stdDeviation="13.6447"/>
<feComposite in2="hardAlpha" operator="arithmetic" k2="-1" k3="1"/>
<feColorMatrix type="matrix" values="0 0 0 0 0.113255 0 0 0 0 0.193725 0 0 0 0 0.402353 0 0 0 0.161 0"/>
<feBlend mode="normal" in2="effect2_innerShadow_747_5285" result="effect3_innerShadow_747_5285"/>
</filter>
<filter id="filter3_bii_747_5285" x="667.399" y="7.3987" width="383.27" height="383.27" filterUnits="userSpaceOnUse" color-interpolation-filters="sRGB">
<feFlood flood-opacity="0" result="BackgroundImageFix"/>
<feGaussianBlur in="BackgroundImage" stdDeviation="81.8679"/>
<feComposite in2="SourceAlpha" operator="in" result="effect1_backgroundBlur_747_5285"/>
<feBlend mode="normal" in="SourceGraphic" in2="effect1_backgroundBlur_747_5285" result="shape"/>
<feColorMatrix in="SourceAlpha" type="matrix" values="0 0 0 0 0 0 0 0 0 0 0 0 0 0 0 0 0 0 127 0" result="hardAlpha"/>
<feOffset dx="-27.2893" dy="27.2893"/>
<feGaussianBlur stdDeviation="13.6447"/>
<feComposite in2="hardAlpha" operator="arithmetic" k2="-1" k3="1"/>
<feColorMatrix type="matrix" values="0 0 0 0 1 0 0 0 0 1 0 0 0 0 1 0 0 0 0.161 0"/>
<feBlend mode="normal" in2="shape" result="effect2_innerShadow_747_5285"/>
<feColorMatrix in="SourceAlpha" type="matrix" values="0 0 0 0 0 0 0 0 0 0 0 0 0 0 0 0 0 0 127 0" result="hardAlpha"/>
<feOffset dx="27.2893" dy="-27.2893"/>
<feGaussianBlur stdDeviation="13.6447"/>
<feComposite in2="hardAlpha" operator="arithmetic" k2="-1" k3="1"/>
<feColorMatrix type="matrix" values="0 0 0 0 0.113255 0 0 0 0 0.193725 0 0 0 0 0.402353 0 0 0 0.161 0"/>
<feBlend mode="normal" in2="effect2_innerShadow_747_5285" result="effect3_innerShadow_747_5285"/>
</filter>
<filter id="filter4_bii_747_5285" x="-163.443" y="-88.4433" width="574.954" height="574.954" filterUnits="userSpaceOnUse" color-interpolation-filters="sRGB">
<feFlood flood-opacity="0" result="BackgroundImageFix"/>
<feGaussianBlur in="BackgroundImage" stdDeviation="81.8679"/>
<feComposite in2="SourceAlpha" operator="in" result="effect1_backgroundBlur_747_5285"/>
<feBlend mode="normal" in="SourceGraphic" in2="effect1_backgroundBlur_747_5285" result="shape"/>
<feColorMatrix in="SourceAlpha" type="matrix" values="0 0 0 0 0 0 0 0 0 0 0 0 0 0 0 0 0 0 127 0" result="hardAlpha"/>
<feOffset dx="-27.2893" dy="27.2893"/>
<feGaussianBlur stdDeviation="13.6447"/>
<feComposite in2="hardAlpha" operator="arithmetic" k2="-1" k3="1"/>
<feColorMatrix type="matrix" values="0 0 0 0 1 0 0 0 0 1 0 0 0 0 1 0 0 0 0.161 0"/>
<feBlend mode="normal" in2="shape" result="effect2_innerShadow_747_5285"/>
<feColorMatrix in="SourceAlpha" type="matrix" values="0 0 0 0 0 0 0 0 0 0 0 0 0 0 0 0 0 0 127 0" result="hardAlpha"/>
<feOffset dx="27.2893" dy="-27.2893"/>
<feGaussianBlur stdDeviation="13.6447"/>
<feComposite in2="hardAlpha" operator="arithmetic" k2="-1" k3="1"/>
<feColorMatrix type="matrix" values="0 0 0 0 0.113255 0 0 0 0 0.193725 0 0 0 0 0.402353 0 0 0 0.161 0"/>
<feBlend mode="normal" in2="effect2_innerShadow_747_5285" result="effect3_innerShadow_747_5285"/>
</filter>
<filter id="filter5_bii_747_5285" x="81.5361" y="-86.4641" width="574.995" height="574.995" filterUnits="userSpaceOnUse" color-interpolation-filters="sRGB">
<feFlood flood-opacity="0" result="BackgroundImageFix"/>
<feGaussianBlur in="BackgroundImage" stdDeviation="81.8679"/>
<feComposite in2="SourceAlpha" operator="in" result="effect1_backgroundBlur_747_5285"/>
<feBlend mode="normal" in="SourceGraphic" in2="effect1_backgroundBlur_747_5285" result="shape"/>
<feColorMatrix in="SourceAlpha" type="matrix" values="0 0 0 0 0 0 0 0 0 0 0 0 0 0 0 0 0 0 127 0" result="hardAlpha"/>
<feOffset dx="-27.2893" dy="27.2893"/>
<feGaussianBlur stdDeviation="13.6447"/>
<feComposite in2="hardAlpha" operator="arithmetic" k2="-1" k3="1"/>
<feColorMatrix type="matrix" values="0 0 0 0 1 0 0 0 0 1 0 0 0 0 1 0 0 0 0.161 0"/>
<feBlend mode="normal" in2="shape" result="effect2_innerShadow_747_5285"/>
<feColorMatrix in="SourceAlpha" type="matrix" values="0 0 0 0 0 0 0 0 0 0 0 0 0 0 0 0 0 0 127 0" result="hardAlpha"/>
<feOffset dx="27.2893" dy="-27.2893"/>
<feGaussianBlur stdDeviation="13.6447"/>
<feComposite in2="hardAlpha" operator="arithmetic" k2="-1" k3="1"/>
<feColorMatrix type="matrix" values="0 0 0 0 0.113255 0 0 0 0 0.193725 0 0 0 0 0.402353 0 0 0 0.161 0"/>
<feBlend mode="normal" in2="effect2_innerShadow_747_5285" result="effect3_innerShadow_747_5285"/>
</filter>
<filter id="filter6_bii_747_5285" x="326.536" y="-88.4641" width="574.995" height="574.995" filterUnits="userSpaceOnUse" color-interpolation-filters="sRGB">
<feFlood flood-opacity="0" result="BackgroundImageFix"/>
<feGaussianBlur in="BackgroundImage" stdDeviation="81.8679"/>
<feComposite in2="SourceAlpha" operator="in" result="effect1_backgroundBlur_747_5285"/>
<feBlend mode="normal" in="SourceGraphic" in2="effect1_backgroundBlur_747_5285" result="shape"/>
<feColorMatrix in="SourceAlpha" type="matrix" values="0 0 0 0 0 0 0 0 0 0 0 0 0 0 0 0 0 0 127 0" result="hardAlpha"/>
<feOffset dx="-27.2893" dy="27.2893"/>
<feGaussianBlur stdDeviation="13.6447"/>
<feComposite in2="hardAlpha" operator="arithmetic" k2="-1" k3="1"/>
<feColorMatrix type="matrix" values="0 0 0 0 1 0 0 0 0 1 0 0 0 0 1 0 0 0 0.161 0"/>
<feBlend mode="normal" in2="shape" result="effect2_innerShadow_747_5285"/>
<feColorMatrix in="SourceAlpha" type="matrix" values="0 0 0 0 0 0 0 0 0 0 0 0 0 0 0 0 0 0 127 0" result="hardAlpha"/>
<feOffset dx="27.2893" dy="-27.2893"/>
<feGaussianBlur stdDeviation="13.6447"/>
<feComposite in2="hardAlpha" operator="arithmetic" k2="-1" k3="1"/>
<feColorMatrix type="matrix" values="0 0 0 0 0.113255 0 0 0 0 0.193725 0 0 0 0 0.402353 0 0 0 0.161 0"/>
<feBlend mode="normal" in2="effect2_innerShadow_747_5285" result="effect3_innerShadow_747_5285"/>
</filter>
<filter id="filter7_bii_747_5285" x="571.536" y="-88.4641" width="574.995" height="574.995" filterUnits="userSpaceOnUse" color-interpolation-filters="sRGB">
<feFlood flood-opacity="0" result="BackgroundImageFix"/>
<feGaussianBlur in="BackgroundImage" stdDeviation="81.8679"/>
<feComposite in2="SourceAlpha" operator="in" result="effect1_backgroundBlur_747_5285"/>
<feBlend mode="normal" in="SourceGraphic" in2="effect1_backgroundBlur_747_5285" result="shape"/>
<feColorMatrix in="SourceAlpha" type="matrix" values="0 0 0 0 0 0 0 0 0 0 0 0 0 0 0 0 0 0 127 0" result="hardAlpha"/>
<feOffset dx="-27.2893" dy="27.2893"/>
<feGaussianBlur stdDeviation="13.6447"/>
<feComposite in2="hardAlpha" operator="arithmetic" k2="-1" k3="1"/>
<feColorMatrix type="matrix" values="0 0 0 0 1 0 0 0 0 1 0 0 0 0 1 0 0 0 0.161 0"/>
<feBlend mode="normal" in2="shape" result="effect2_innerShadow_747_5285"/>
<feColorMatrix in="SourceAlpha" type="matrix" values="0 0 0 0 0 0 0 0 0 0 0 0 0 0 0 0 0 0 127 0" result="hardAlpha"/>
<feOffset dx="27.2893" dy="-27.2893"/>
<feGaussianBlur stdDeviation="13.6447"/>
<feComposite in2="hardAlpha" operator="arithmetic" k2="-1" k3="1"/>
<feColorMatrix type="matrix" values="0 0 0 0 0.113255 0 0 0 0 0.193725 0 0 0 0 0.402353 0 0 0 0.161 0"/>
<feBlend mode="normal" in2="effect2_innerShadow_747_5285" result="effect3_innerShadow_747_5285"/>
</filter>
</defs>
</svg>
